SplineFontDB: 3.2
FontName: Pretension-Italic
FullName: Pretension Italic
FamilyName: Pretension
Weight: Book
Copyright: Copyright 2016 The Inter Project Authors
Version: 4.000;git-a52131595
ItalicAngle: -9.39999
UnderlinePosition: -348
UnderlineWidth: 140
Ascent: 1638
Descent: 410
InvalidEm: 0
sfntRevision: 0x00040000
LayerCount: 2
Layer: 0 1 "Back" 1
Layer: 1 1 "Fore" 0
XUID: [1021 89 -1234937351 4635840]
StyleMap: 0x0001
FSType: 0
OS2Version: 4
OS2_WeightWidthSlopeOnly: 0
OS2_UseTypoMetrics: 1
CreationTime: 1700438797
ModificationTime: 1707800401
PfmFamily: 17
TTFWeight: 400
TTFWidth: 5
LineGap: 0
VLineGap: 0
Panose: 2 0 5 3 0 0 0 2 0 4
OS2TypoAscent: 1984
OS2TypoAOffset: 0
OS2TypoDescent: -494
OS2TypoDOffset: 0
OS2TypoLinegap: 0
OS2WinAscent: 1984
OS2WinAOffset: 0
OS2WinDescent: 494
OS2WinDOffset: 0
HheadAscent: 1984
HheadAOffset: 0
HheadDescent: -494
HheadDOffset: 0
OS2SubXSize: 1331
OS2SubYSize: 1229
OS2SubXOff: -25
OS2SubYOff: 154
OS2SupXSize: 1331
OS2SupYSize: 1229
OS2SupXOff: 119
OS2SupYOff: 717
OS2StrikeYSize: 140
OS2StrikeYPos: 653
OS2CapHeight: 1490
OS2XHeight: 1087
OS2Vendor: 'RSMS'
OS2CodePages: 0000019f.00000000
OS2UnicodeRanges: e0000aff.5200a1ff.00000021.00000000
Lookup: 1 0 0 "'aalt' Access All Alternates in Latin lookup 0" { "'aalt' Access All Alternates in Latin lookup 0 subtable"  } ['aalt' ('DFLT' <'dflt' > 'latn' <'CAT ' 'MOL ' 'ROM ' 'dflt' > ) ]
Lookup: 3 0 0 "'aalt' Access All Alternates in Latin lookup 1" { "'aalt' Access All Alternates in Latin lookup 1 subtable"  } ['aalt' ('DFLT' <'dflt' > 'latn' <'CAT ' 'MOL ' 'ROM ' 'dflt' > ) ]
Lookup: 1 0 0 "Single Substitution lookup 2" { "Single Substitution lookup 2 subtable"  } []
Lookup: 4 0 0 "'ccmp' Glyph Composition/Decomposition in Latin lookup 3" { "'ccmp' Glyph Composition/Decomposition in Latin lookup 3 subtable"  } ['ccmp' ('DFLT' <'dflt' > 'latn' <'CAT ' 'MOL ' 'ROM ' 'dflt' > ) ]

StartChar: .notdef
Encoding: 1114112 -1 0
Width: 1344
Flags: W
LayerCount: 2
Fore
SplineSet
858 -416 m 1,0,-1
 170 -416 l 1,1,-1
 546 1856 l 1,2,-1
 1234 1856 l 1,3,-1
 858 -416 l 1,0,-1
391 -192 m 1,4,-1
 381 -256 l 1,5,-1
 701 -256 l 1,6,-1
 711 -192 l 1,7,-1
 496 -192 l 1,8,-1
 732 -65 l 1,9,-1
 743 0 l 1,10,-1
 423 0 l 1,11,-1
 412 -64 l 1,12,-1
 628 -64 l 1,13,-1
 391 -192 l 1,4,-1
476 320 m 1,14,-1
 434 64 l 1,15,-1
 754 64 l 1,16,-1
 796 320 l 1,17,-1
 476 320 l 1,14,-1
700 128 m 1,18,-1
 508 128 l 1,19,-1
 529 256 l 1,20,-1
 721 256 l 1,21,-1
 700 128 l 1,18,-1
540 704 m 1,22,-1
 497 448 l 1,23,-1
 817 448 l 1,24,-1
 860 704 l 1,25,-1
 668 704 l 1,26,-1
 646 576 l 1,27,-1
 710 576 l 1,28,-1
 721 640 l 1,29,-1
 785 640 l 1,30,-1
 764 512 l 1,31,-1
 572 512 l 1,32,-1
 604 704 l 1,33,-1
 540 704 l 1,22,-1
561 832 m 1,34,-1
 550 768 l 1,35,-1
 870 768 l 1,36,-1
 907 992 l 1,37,-1
 843 992 l 1,38,-1
 817 832 l 1,39,-1
 561 832 l 1,34,-1
582 960 m 1,40,-1
 571 896 l 1,41,-1
 763 896 l 1,42,-1
 790 1056 l 1,43,-1
 918 1056 l 1,44,-1
 928 1120 l 1,45,-1
 608 1120 l 1,46,-1
 598 1056 l 1,47,-1
 726 1056 l 1,48,-1
 710 960 l 1,49,-1
 582 960 l 1,40,-1
758 1248 m 1,50,-1
 694 1248 l 1,51,-1
 709 1344 l 1,52,-1
 773 1344 l 1,53,-1
 758 1248 l 1,50,-1
656 1408 m 1,54,-1
 619 1184 l 1,55,-1
 939 1184 l 1,56,-1
 950 1248 l 1,57,-1
 822 1248 l 1,58,-1
 848 1408 l 1,59,-1
 656 1408 l 1,54,-1
677 1536 m 1,60,-1
 667 1472 l 1,61,-1
 987 1472 l 1,62,-1
 997 1536 l 1,63,-1
 853 1536 l 1,64,-1
 869 1632 l 1,65,-1
 1013 1632 l 1,66,-1
 1024 1696 l 1,67,-1
 704 1696 l 1,68,-1
 693 1632 l 1,69,-1
 805 1632 l 1,70,-1
 789 1536 l 1,71,-1
 677 1536 l 1,60,-1
EndSplineSet
EndChar

StartChar: A
Encoding: 65 65 2
Width: 1376
GlyphClass: 2
Flags: W
AnchorPoint: "Anchor-4" 1250 0 basechar 0
AnchorPoint: "Anchor-1" 846 1490 basechar 0
AnchorPoint: "Anchor-0" 599 0 basechar 0
LayerCount: 2
Fore
SplineSet
-54 0 m 1,0,-1
 739 1490 l 1,1,-1
 951 1490 l 1,2,-1
 1250 0 l 1,3,-1
 1062 0 l 1,4,-1
 895 891 l 2,5,6
 881 971 881 971 861 1092.5 c 128,-1,7
 841 1214 841 1214 815 1402 c 1,8,-1
 859 1402 l 1,9,10
 774 1218 774 1218 715 1097.5 c 128,-1,11
 656 977 656 977 612 891 c 2,12,-1
 149 0 l 1,13,-1
 -54 0 l 1,0,-1
293 417 m 1,14,-1
 320 580 l 1,15,-1
 1068 580 l 1,16,-1
 1041 417 l 1,17,-1
 293 417 l 1,14,-1
EndSplineSet
Substitution2: "'c2sc' Capitals to Small Capitals in Latin lookup 67 subtable" a.sc
Substitution2: "'ss06' Style Set 6 in Latin lookup 52 subtable" A.squared
Substitution2: "'ss05' Style Set 5 in Latin lookup 51 subtable" uni24B6
Substitution2: "Single Substitution lookup 44 subtable" ordfeminine
AlternateSubs2: "'aalt' Access All Alternates in Latin lookup 1 subtable" ordfeminine a.sc
Position2: "'cpsp' Capital Spacing in Latin lookup 0 subtable" dx=0 dy=0 dh=0 dv=0
EndChar

StartChar: uni023A
Encoding: 570 570 46
Width: 1376
GlyphClass: 2
Flags: W
AnchorPoint: "Anchor-4" 1250 0 basechar 0
AnchorPoint: "Anchor-1" 846 1490 basechar 0
AnchorPoint: "Anchor-0" 599 0 basechar 0
LayerCount: 2
Fore
SplineSet
1319 1678 m 1,0,-1
 346 -190 l 1,1,-1
 180 -190 l 1,2,-1
 1153 1678 l 1,3,-1
 1319 1678 l 1,0,-1
-54 0 m 1,4,-1
 739 1490 l 1,5,-1
 951 1490 l 1,6,-1
 1250 0 l 1,7,-1
 1062 0 l 1,8,-1
 895 891 l 2,9,10
 881 971 881 971 861 1092.5 c 128,-1,11
 841 1214 841 1214 815 1402 c 1,12,-1
 859 1402 l 1,13,14
 774 1218 774 1218 715 1097.5 c 128,-1,15
 656 977 656 977 612 891 c 2,16,-1
 149 0 l 1,17,-1
 -54 0 l 1,4,-1
293 417 m 1,18,-1
 320 580 l 1,19,-1
 1068 580 l 1,20,-1
 1041 417 l 1,21,-1
 293 417 l 1,18,-1
EndSplineSet
Position2: "'cpsp' Capital Spacing in Latin lookup 0 subtable" dx=0 dy=0 dh=0 dv=0
EndChar

StartChar: Lambda
Encoding: 923 923 60
Width: 1376
GlyphClass: 2
Flags: W
AnchorPoint: "Anchor-1" 846 1490 basechar 0
AnchorPoint: "Anchor-0" 599 0 basechar 0
LayerCount: 2
Fore
SplineSet
-54 0 m 1,0,-1
 739 1490 l 1,1,-1
 951 1490 l 1,2,-1
 1250 0 l 1,3,-1
 1062 0 l 1,4,-1
 895 891 l 2,5,6
 880 971 880 971 860.5 1092.5 c 128,-1,7
 841 1214 841 1214 815 1402 c 1,8,-1
 859 1402 l 1,9,10
 774 1218 774 1218 715 1097.5 c 128,-1,11
 656 977 656 977 612 891 c 2,12,-1
 149 0 l 1,13,-1
 -54 0 l 1,0,-1
EndSplineSet
Position2: "'cpsp' Capital Spacing in Latin lookup 0 subtable" dx=0 dy=0 dh=0 dv=0
EndChar

StartChar: AE
Encoding: 198 198 61
Width: 1977
GlyphClass: 2
Flags: W
AnchorPoint: "Anchor-1" 1464 1490 basechar 0
LayerCount: 2
Fore
SplineSet
-54 0 m 1,0,-1
 889 1490 l 1,1,-1
 2023 1490 l 1,2,-1
 1996 1327 l 1,3,-1
 1278 1327 l 1,4,-1
 1196 831 l 1,5,-1
 1867 831 l 1,6,-1
 1839 667 l 1,7,-1
 1169 667 l 1,8,-1
 1085 164 l 1,9,-1
 1814 164 l 1,10,-1
 1787 0 l 1,11,-1
 873 0 l 1,12,-1
 1093 1325 l 1,13,-1
 969 1325 l 1,14,-1
 145 0 l 1,15,-1
 -54 0 l 1,0,-1
355 432 m 1,16,-1
 382 595 l 1,17,-1
 1066 595 l 1,18,-1
 1039 432 l 1,19,-1
 355 432 l 1,16,-1
EndSplineSet
Position2: "'cpsp' Capital Spacing in Latin lookup 0 subtable" dx=0 dy=0 dh=0 dv=0
EndChar

StartChar: B
Encoding: 66 66 65
Width: 1324
GlyphClass: 2
Flags: W
AnchorPoint: "Anchor-1" 792 1490 basechar 0
AnchorPoint: "Anchor-0" 554 0 basechar 0
LayerCount: 2
Fore
SplineSet
74 0 m 1,0,-1
 321 1490 l 1,1,-1
 848 1490 l 2,2,3
 1001 1490 1001 1490 1098 1438 c 128,-1,4
 1195 1386 1195 1386 1235.5 1294.5 c 128,-1,5
 1276 1203 1276 1203 1256 1085 c 0,6,7
 1242 998 1242 998 1200.5 937 c 128,-1,8
 1159 876 1159 876 1097 836.5 c 128,-1,9
 1035 797 1035 797 960 774 c 1,10,-1
 960 769 l 1,11,12
 1036 760 1036 760 1097.5 715 c 128,-1,13
 1159 670 1159 670 1189.5 590.5 c 128,-1,14
 1220 511 1220 511 1202 398 c 0,15,16
 1183 279 1183 279 1114 189.5 c 128,-1,17
 1045 100 1045 100 924 50 c 128,-1,18
 803 0 803 0 626 0 c 2,19,-1
 74 0 l 1,0,-1
286 164 m 1,20,-1
 639 164 l 2,21,22
 812 164 812 164 907.5 234.5 c 128,-1,23
 1003 305 1003 305 1022 418 c 0,24,25
 1035 495 1035 495 1006 553.5 c 128,-1,26
 977 612 977 612 911 644.5 c 128,-1,27
 845 677 845 677 745 677 c 2,28,-1
 372 677 l 1,29,-1
 286 164 l 1,20,-1
398 836 m 1,30,-1
 739 836 l 2,31,32
 825 836 825 836 897 868.5 c 128,-1,33
 969 901 969 901 1017 960 c 128,-1,34
 1065 1019 1065 1019 1078 1098 c 0,35,36
 1095 1199 1095 1199 1035.5 1263 c 128,-1,37
 976 1327 976 1327 834 1327 c 2,38,-1
 479 1327 l 1,39,-1
 398 836 l 1,30,-1
EndSplineSet
Substitution2: "'ss06' Style Set 6 in Latin lookup 52 subtable" B.squared
Substitution2: "'ss05' Style Set 5 in Latin lookup 51 subtable" uni24B7
Position2: "'cpsp' Capital Spacing in Latin lookup 0 subtable" dx=0 dy=0 dh=0 dv=0
EndChar

StartChar: uni0181
Encoding: 385 385 70
Width: 1604
GlyphClass: 2
Flags: W
AnchorPoint: "Anchor-1" 1072 1490 basechar 0
AnchorPoint: "Anchor-0" 834 0 basechar 0
LayerCount: 2
Fore
SplineSet
141 1082 m 1,0,-1
 162 1211 l 2,1,2
 185 1350 185 1350 269.5 1420 c 128,-1,3
 354 1490 354 1490 504 1490 c 2,4,-1
 601 1490 l 1,5,-1
 573 1327 l 1,6,-1
 477 1327 l 2,7,8
 412 1327 412 1327 378 1299 c 128,-1,9
 344 1271 344 1271 334 1208 c 2,10,-1
 313 1082 l 1,11,-1
 141 1082 l 1,0,-1
354 0 m 1,12,-1
 601 1490 l 1,13,-1
 1128 1490 l 2,14,15
 1281 1490 1281 1490 1378 1438 c 128,-1,16
 1475 1386 1475 1386 1515.5 1294.5 c 128,-1,17
 1556 1203 1556 1203 1536 1085 c 0,18,19
 1522 998 1522 998 1480.5 937 c 128,-1,20
 1439 876 1439 876 1377 836.5 c 128,-1,21
 1315 797 1315 797 1240 774 c 1,22,-1
 1240 769 l 1,23,24
 1316 760 1316 760 1377.5 715 c 128,-1,25
 1439 670 1439 670 1469.5 590.5 c 128,-1,26
 1500 511 1500 511 1482 398 c 0,27,28
 1463 279 1463 279 1394 189.5 c 128,-1,29
 1325 100 1325 100 1204 50 c 128,-1,30
 1083 0 1083 0 906 0 c 2,31,-1
 354 0 l 1,12,-1
566 164 m 1,32,-1
 919 164 l 2,33,34
 1092 164 1092 164 1187.5 234.5 c 128,-1,35
 1283 305 1283 305 1302 418 c 0,36,37
 1315 495 1315 495 1286 553.5 c 128,-1,38
 1257 612 1257 612 1191 644.5 c 128,-1,39
 1125 677 1125 677 1025 677 c 2,40,-1
 652 677 l 1,41,-1
 566 164 l 1,32,-1
678 836 m 1,42,-1
 1019 836 l 2,43,44
 1105 836 1105 836 1177 868.5 c 128,-1,45
 1249 901 1249 901 1297 960 c 128,-1,46
 1345 1019 1345 1019 1358 1098 c 0,47,48
 1375 1199 1375 1199 1315.5 1263 c 128,-1,49
 1256 1327 1256 1327 1114 1327 c 2,50,-1
 759 1327 l 1,51,-1
 678 836 l 1,42,-1
EndSplineSet
Position2: "'cpsp' Capital Spacing in Latin lookup 0 subtable" dx=0 dy=0 dh=0 dv=0
EndChar

StartChar: C
Encoding: 67 67 73
Width: 1487
GlyphClass: 2
Flags: W
AnchorPoint: "Anchor-3" 679 -5 basechar 0
AnchorPoint: "Anchor-1" 927 1490 basechar 0
LayerCount: 2
Fore
SplineSet
698 -22 m 0,0,1
 523 -22 523 -22 394.5 53 c 128,-1,2
 266 128 266 128 196.5 264 c 128,-1,3
 127 400 127 400 127 585 c 0,4,5
 127 762 127 762 183.5 928.5 c 128,-1,6
 240 1095 240 1095 346 1226.5 c 128,-1,7
 452 1358 452 1358 600 1435 c 128,-1,8
 748 1512 748 1512 931 1512 c 0,9,10
 1048 1512 1048 1512 1145.5 1478 c 128,-1,11
 1243 1444 1243 1444 1314.5 1379.5 c 128,-1,12
 1386 1315 1386 1315 1425.5 1223 c 128,-1,13
 1465 1131 1465 1131 1466 1015 c 1,14,-1
 1281 1015 l 1,15,16
 1277 1093 1277 1093 1249 1153.5 c 128,-1,17
 1221 1214 1221 1214 1174 1256 c 128,-1,18
 1127 1298 1127 1298 1063.5 1319 c 128,-1,19
 1000 1340 1000 1340 924 1340 c 0,20,21
 781 1340 781 1340 667 1276.5 c 128,-1,22
 553 1213 553 1213 473 1105 c 128,-1,23
 393 997 393 997 350.5 862.5 c 128,-1,24
 308 728 308 728 308 588 c 0,25,26
 308 451 308 451 356.5 352.5 c 128,-1,27
 405 254 405 254 494 202 c 128,-1,28
 583 150 583 150 705 150 c 0,29,30
 785 150 785 150 859 171.5 c 128,-1,31
 933 193 933 193 997 234.5 c 128,-1,32
 1061 276 1061 276 1110.5 336 c 128,-1,33
 1160 396 1160 396 1191 475 c 1,34,-1
 1378 475 l 1,35,36
 1339 360 1339 360 1271 268.5 c 128,-1,37
 1203 177 1203 177 1112.5 112 c 128,-1,38
 1022 47 1022 47 917 12.5 c 128,-1,39
 812 -22 812 -22 698 -22 c 0,0,1
EndSplineSet
Substitution2: "'ss06' Style Set 6 in Latin lookup 52 subtable" C.squared
Substitution2: "'ss05' Style Set 5 in Latin lookup 51 subtable" uni24B8
Position2: "'cpsp' Capital Spacing in Latin lookup 0 subtable" dx=0 dy=0 dh=0 dv=0
EndChar

StartChar: uni0187
Encoding: 391 391 74
Width: 1487
GlyphClass: 2
Flags: W
AnchorPoint: "Anchor-3" 679 -5 basechar 0
AnchorPoint: "Anchor-1" 927 1490 basechar 0
LayerCount: 2
Fore
SplineSet
1297 1015 m 1,0,-1
 1365 1429 l 2,1,2
 1386 1554 1386 1554 1471 1617.5 c 128,-1,3
 1556 1681 1556 1681 1694 1681 c 0,4,5
 1727 1681 1727 1681 1752 1679.5 c 128,-1,6
 1777 1678 1777 1678 1795 1676 c 1,7,-1
 1771 1528 l 1,8,9
 1755 1529 1755 1529 1730 1529.5 c 128,-1,10
 1705 1530 1705 1530 1692 1530 c 0,11,12
 1616 1530 1616 1530 1579.5 1505.5 c 128,-1,13
 1543 1481 1543 1481 1535 1429 c 2,14,-1
 1467 1015 l 1,15,-1
 1297 1015 l 1,0,-1
698 -22 m 0,16,17
 523 -22 523 -22 394.5 53 c 128,-1,18
 266 128 266 128 196.5 264 c 128,-1,19
 127 400 127 400 127 585 c 0,20,21
 127 762 127 762 183.5 928.5 c 128,-1,22
 240 1095 240 1095 346 1226.5 c 128,-1,23
 452 1358 452 1358 600 1435 c 128,-1,24
 748 1512 748 1512 931 1512 c 0,25,26
 1048 1512 1048 1512 1145.5 1478 c 128,-1,27
 1243 1444 1243 1444 1314.5 1379.5 c 128,-1,28
 1386 1315 1386 1315 1425.5 1223 c 128,-1,29
 1465 1131 1465 1131 1466 1015 c 1,30,-1
 1281 1015 l 1,31,32
 1277 1093 1277 1093 1249 1153.5 c 128,-1,33
 1221 1214 1221 1214 1174 1256 c 128,-1,34
 1127 1298 1127 1298 1063.5 1319 c 128,-1,35
 1000 1340 1000 1340 924 1340 c 0,36,37
 781 1340 781 1340 667 1276.5 c 128,-1,38
 553 1213 553 1213 473 1105 c 128,-1,39
 393 997 393 997 350.5 862.5 c 128,-1,40
 308 728 308 728 308 588 c 0,41,42
 308 451 308 451 356.5 352.5 c 128,-1,43
 405 254 405 254 494 202 c 128,-1,44
 583 150 583 150 705 150 c 0,45,46
 785 150 785 150 859 171.5 c 128,-1,47
 933 193 933 193 997 234.5 c 128,-1,48
 1061 276 1061 276 1110.5 336 c 128,-1,49
 1160 396 1160 396 1191 475 c 1,50,-1
 1378 475 l 1,51,52
 1339 360 1339 360 1271 268.5 c 128,-1,53
 1203 177 1203 177 1112.5 112 c 128,-1,54
 1022 47 1022 47 917 12.5 c 128,-1,55
 812 -22 812 -22 698 -22 c 0,16,17
EndSplineSet
Position2: "'cpsp' Capital Spacing in Latin lookup 0 subtable" dx=0 dy=0 dh=0 dv=0
EndChar

StartChar: uni023B
Encoding: 571 571 81
Width: 1487
GlyphClass: 2
Flags: W
AnchorPoint: "Anchor-3" 679 -5 basechar 0
AnchorPoint: "Anchor-1" 927 1490 basechar 0
LayerCount: 2
Fore
SplineSet
201 -190 m 1,0,-1
 1172 1678 l 1,1,-1
 1338 1678 l 1,2,-1
 367 -190 l 1,3,-1
 201 -190 l 1,0,-1
698 -22 m 0,4,5
 523 -22 523 -22 394.5 53 c 128,-1,6
 266 128 266 128 196.5 264 c 128,-1,7
 127 400 127 400 127 585 c 0,8,9
 127 762 127 762 183.5 928.5 c 128,-1,10
 240 1095 240 1095 346 1226.5 c 128,-1,11
 452 1358 452 1358 600 1435 c 128,-1,12
 748 1512 748 1512 931 1512 c 0,13,14
 1048 1512 1048 1512 1145.5 1478 c 128,-1,15
 1243 1444 1243 1444 1314.5 1379.5 c 128,-1,16
 1386 1315 1386 1315 1425.5 1223 c 128,-1,17
 1465 1131 1465 1131 1466 1015 c 1,18,-1
 1281 1015 l 1,19,20
 1277 1093 1277 1093 1249 1153.5 c 128,-1,21
 1221 1214 1221 1214 1174 1256 c 128,-1,22
 1127 1298 1127 1298 1063.5 1319 c 128,-1,23
 1000 1340 1000 1340 924 1340 c 0,24,25
 781 1340 781 1340 667 1276.5 c 128,-1,26
 553 1213 553 1213 473 1105 c 128,-1,27
 393 997 393 997 350.5 862.5 c 128,-1,28
 308 728 308 728 308 588 c 0,29,30
 308 451 308 451 356.5 352.5 c 128,-1,31
 405 254 405 254 494 202 c 128,-1,32
 583 150 583 150 705 150 c 0,33,34
 785 150 785 150 859 171.5 c 128,-1,35
 933 193 933 193 997 234.5 c 128,-1,36
 1061 276 1061 276 1110.5 336 c 128,-1,37
 1160 396 1160 396 1191 475 c 1,38,-1
 1378 475 l 1,39,40
 1339 360 1339 360 1271 268.5 c 128,-1,41
 1203 177 1203 177 1112.5 112 c 128,-1,42
 1022 47 1022 47 917 12.5 c 128,-1,43
 812 -22 812 -22 698 -22 c 0,4,5
EndSplineSet
Ligature2: "'ccmp' Glyph Composition/Decomposition in Latin lookup 6 subtable" C uni0338
Position2: "'cpsp' Capital Spacing in Latin lookup 0 subtable" dx=0 dy=0 dh=0 dv=0
EndChar

StartChar: uni0186
Encoding: 390 390 82
Width: 1487
GlyphClass: 2
Flags: W
AnchorPoint: "Anchor-3" 875 1496 basechar 0
AnchorPoint: "Anchor-1" 627 0 basechar 0
LayerCount: 2
Fore
SplineSet
856 1512 m 0,0,1
 1032 1512 1032 1512 1160.5 1437.5 c 128,-1,2
 1289 1363 1289 1363 1358.5 1226.5 c 128,-1,3
 1428 1090 1428 1090 1428 906 c 0,4,5
 1428 728 1428 728 1371 562 c 128,-1,6
 1314 396 1314 396 1208.5 264 c 128,-1,7
 1103 132 1103 132 954.5 55 c 128,-1,8
 806 -22 806 -22 624 -22 c 0,9,10
 507 -22 507 -22 409.5 12 c 128,-1,11
 312 46 312 46 240.5 111 c 128,-1,12
 169 176 169 176 129.5 268 c 128,-1,13
 90 360 90 360 88 476 c 1,14,-1
 274 476 l 1,15,16
 278 397 278 397 305.5 336.5 c 128,-1,17
 333 276 333 276 380.5 234.5 c 128,-1,18
 428 193 428 193 491.5 171.5 c 128,-1,19
 555 150 555 150 631 150 c 0,20,21
 774 150 774 150 888 214 c 128,-1,22
 1002 278 1002 278 1082 386 c 128,-1,23
 1162 494 1162 494 1204.5 628 c 128,-1,24
 1247 762 1247 762 1247 902 c 0,25,26
 1247 1040 1247 1040 1198.5 1138 c 128,-1,27
 1150 1236 1150 1236 1061 1288 c 128,-1,28
 972 1340 972 1340 849 1340 c 0,29,30
 770 1340 770 1340 696 1319 c 128,-1,31
 622 1298 622 1298 558 1256.5 c 128,-1,32
 494 1215 494 1215 444 1154.5 c 128,-1,33
 394 1094 394 1094 364 1016 c 1,34,-1
 177 1016 l 1,35,36
 216 1131 216 1131 284 1222.5 c 128,-1,37
 352 1314 352 1314 442 1379 c 128,-1,38
 532 1444 532 1444 637.5 1478 c 128,-1,39
 743 1512 743 1512 856 1512 c 0,0,1
EndSplineSet
Position2: "'cpsp' Capital Spacing in Latin lookup 0 subtable" dx=0 dy=0 dh=0 dv=0
EndChar

StartChar: D
Encoding: 68 68 84
Width: 1445
GlyphClass: 2
Flags: W
AnchorPoint: "Anchor-1" 759 1490 basechar 0
AnchorPoint: "Anchor-0" 519 0 basechar 0
LayerCount: 2
Fore
SplineSet
565 0 m 2,0,-1
 178 0 l 1,1,-1
 204 164 l 1,2,-1
 551 164 l 2,3,4
 735 164 735 164 867.5 234.5 c 128,-1,5
 1000 305 1000 305 1081 436.5 c 128,-1,6
 1162 568 1162 568 1191 748 c 0,7,8
 1221 928 1221 928 1188.5 1057.5 c 128,-1,9
 1156 1187 1156 1187 1056.5 1256.5 c 128,-1,10
 957 1326 957 1326 783 1326 c 2,11,-1
 389 1326 l 1,12,-1
 417 1490 l 1,13,-1
 787 1490 l 2,14,15
 1005 1490 1005 1490 1149 1401 c 128,-1,16
 1293 1312 1293 1312 1352.5 1145.5 c 128,-1,17
 1412 979 1412 979 1373 747 c 0,18,19
 1335 513 1335 513 1230 346 c 128,-1,20
 1125 179 1125 179 958 89.5 c 128,-1,21
 791 0 791 0 565 0 c 2,0,-1
506 1490 m 1,22,-1
 259 0 l 1,23,-1
 74 0 l 1,24,-1
 321 1490 l 1,25,-1
 506 1490 l 1,22,-1
EndSplineSet
Substitution2: "'ss06' Style Set 6 in Latin lookup 52 subtable" D.squared
Substitution2: "'ss05' Style Set 5 in Latin lookup 51 subtable" uni24B9
Position2: "'cpsp' Capital Spacing in Latin lookup 0 subtable" dx=0 dy=0 dh=0 dv=0
EndChar

StartChar: uni018A
Encoding: 394 394 85
Width: 1725
GlyphClass: 2
Flags: W
AnchorPoint: "Anchor-1" 1039 1490 basechar 0
AnchorPoint: "Anchor-0" 799 0 basechar 0
LayerCount: 2
Fore
SplineSet
141 1082 m 1,0,-1
 162 1211 l 2,1,2
 185 1350 185 1350 269.5 1420 c 128,-1,3
 354 1490 354 1490 505 1490 c 2,4,-1
 601 1490 l 1,5,-1
 574 1327 l 1,6,-1
 478 1327 l 2,7,8
 412 1327 412 1327 378 1299 c 128,-1,9
 344 1271 344 1271 334 1208 c 2,10,-1
 313 1082 l 1,11,-1
 141 1082 l 1,0,-1
845 0 m 2,12,-1
 458 0 l 1,13,-1
 484 164 l 1,14,-1
 831 164 l 2,15,16
 1015 164 1015 164 1147.5 234.5 c 128,-1,17
 1280 305 1280 305 1361 436.5 c 128,-1,18
 1442 568 1442 568 1471 748 c 0,19,20
 1501 928 1501 928 1468.5 1057.5 c 128,-1,21
 1436 1187 1436 1187 1336.5 1256.5 c 128,-1,22
 1237 1326 1237 1326 1063 1326 c 2,23,-1
 669 1326 l 1,24,-1
 697 1490 l 1,25,-1
 1067 1490 l 2,26,27
 1285 1490 1285 1490 1429 1401 c 128,-1,28
 1573 1312 1573 1312 1632.5 1145.5 c 128,-1,29
 1692 979 1692 979 1653 747 c 0,30,31
 1615 513 1615 513 1510 346 c 128,-1,32
 1405 179 1405 179 1238 89.5 c 128,-1,33
 1071 0 1071 0 845 0 c 2,12,-1
786 1490 m 1,34,-1
 539 0 l 1,35,-1
 354 0 l 1,36,-1
 601 1490 l 1,37,-1
 786 1490 l 1,34,-1
EndSplineSet
Position2: "'cpsp' Capital Spacing in Latin lookup 0 subtable" dx=0 dy=0 dh=0 dv=0
EndChar

StartChar: E
Encoding: 69 69 95
Width: 1208
GlyphClass: 2
Flags: W
AnchorPoint: "Anchor-4" 1017 0 basechar 0
AnchorPoint: "Anchor-3" 551 0 basechar 0
AnchorPoint: "Anchor-1" 793 1490 basechar 0
AnchorPoint: "Anchor-0" 546 0 basechar 0
LayerCount: 2
Fore
SplineSet
74 0 m 1,0,-1
 321 1490 l 1,1,-1
 1260 1490 l 1,2,-1
 1232 1327 l 1,3,-1
 479 1327 l 1,4,-1
 399 840 l 1,5,-1
 1099 840 l 1,6,-1
 1071 676 l 1,7,-1
 371 676 l 1,8,-1
 286 164 l 1,9,-1
 1044 164 l 1,10,-1
 1017 0 l 1,11,-1
 74 0 l 1,0,-1
EndSplineSet
Substitution2: "'ss06' Style Set 6 in Latin lookup 52 subtable" E.squared
Substitution2: "'ss05' Style Set 5 in Latin lookup 51 subtable" uni24BA
Position2: "'cpsp' Capital Spacing in Latin lookup 0 subtable" dx=0 dy=0 dh=0 dv=0
EndChar

StartChar: uni0246
Encoding: 582 582 121
Width: 1208
GlyphClass: 2
Flags: W
AnchorPoint: "Anchor-4" 1017 0 basechar 0
AnchorPoint: "Anchor-3" 551 0 basechar 0
AnchorPoint: "Anchor-1" 793 1490 basechar 0
AnchorPoint: "Anchor-0" 546 0 basechar 0
LayerCount: 2
Fore
SplineSet
185 -190 m 1,0,-1
 1034 1678 l 1,1,-1
 1199 1678 l 1,2,-1
 351 -190 l 1,3,-1
 185 -190 l 1,0,-1
74 0 m 1,4,-1
 321 1490 l 1,5,-1
 1260 1490 l 1,6,-1
 1232 1327 l 1,7,-1
 479 1327 l 1,8,-1
 399 840 l 1,9,-1
 1099 840 l 1,10,-1
 1071 676 l 1,11,-1
 371 676 l 1,12,-1
 286 164 l 1,13,-1
 1044 164 l 1,14,-1
 1017 0 l 1,15,-1
 74 0 l 1,4,-1
EndSplineSet
Position2: "'cpsp' Capital Spacing in Latin lookup 0 subtable" dx=0 dy=0 dh=0 dv=0
EndChar

StartChar: Eturn
Encoding: 398 398 122
Width: 1208
GlyphClass: 2
Flags: W
AnchorPoint: "Anchor-4" 258 1490 basechar 0
AnchorPoint: "Anchor-3" 463 0 basechar 0
AnchorPoint: "Anchor-1" 714 1490 basechar 0
AnchorPoint: "Anchor-0" 460 0 basechar 0
LayerCount: 2
Fore
SplineSet
1201 1490 m 1,0,-1
 954 0 l 1,1,-1
 15 0 l 1,2,-1
 43 164 l 1,3,-1
 796 164 l 1,4,-1
 876 651 l 1,5,-1
 176 651 l 1,6,-1
 204 814 l 1,7,-1
 904 814 l 1,8,-1
 989 1327 l 1,9,-1
 231 1327 l 1,10,-1
 258 1490 l 1,11,-1
 1201 1490 l 1,0,-1
EndSplineSet
Position2: "'cpsp' Capital Spacing in Latin lookup 0 subtable" dx=0 dy=0 dh=0 dv=0
EndChar

StartChar: F
Encoding: 70 70 137
Width: 1173
GlyphClass: 2
Flags: W
AnchorPoint: "Anchor-1" 781 1490 basechar 0
AnchorPoint: "Anchor-0" 167 0 basechar 0
LayerCount: 2
Fore
SplineSet
74 0 m 1,0,-1
 321 1490 l 1,1,-1
 1240 1490 l 1,2,-1
 1213 1327 l 1,3,-1
 479 1327 l 1,4,-1
 396 827 l 1,5,-1
 1066 827 l 1,6,-1
 1039 664 l 1,7,-1
 369 664 l 1,8,-1
 259 0 l 1,9,-1
 74 0 l 1,0,-1
EndSplineSet
Substitution2: "'ss06' Style Set 6 in Latin lookup 52 subtable" F.squared
Substitution2: "'ss05' Style Set 5 in Latin lookup 51 subtable" uni24BB
Position2: "'cpsp' Capital Spacing in Latin lookup 0 subtable" dx=0 dy=0 dh=0 dv=0
EndChar

StartChar: uni0191
Encoding: 401 401 138
Width: 1173
GlyphClass: 2
Flags: W
AnchorPoint: "Anchor-1" 781 1490 basechar 0
AnchorPoint: "Anchor-0" 167 0 basechar 0
LayerCount: 2
Fore
SplineSet
-204 -418 m 1,0,-1
 -178 -260 l 1,1,2
 -162 -262 -162 -262 -137 -262.5 c 128,-1,3
 -112 -263 -112 -263 -99 -263 c 0,4,5
 -24 -263 -24 -263 7.5 -238.5 c 128,-1,6
 39 -214 39 -214 47 -162 c 2,7,-1
 95 128 l 1,8,-1
 280 128 l 1,9,-1
 231 -170 l 2,10,11
 210 -293 210 -293 126 -357.5 c 128,-1,12
 42 -422 42 -422 -98 -422 c 0,13,14
 -132 -422 -132 -422 -159.5 -421 c 128,-1,15
 -187 -420 -187 -420 -204 -418 c 1,0,-1
74 0 m 1,16,-1
 321 1490 l 1,17,-1
 1240 1490 l 1,18,-1
 1213 1327 l 1,19,-1
 479 1327 l 1,20,-1
 396 827 l 1,21,-1
 1066 827 l 1,22,-1
 1039 664 l 1,23,-1
 369 664 l 1,24,-1
 259 0 l 1,25,-1
 74 0 l 1,16,-1
EndSplineSet
Position2: "'cpsp' Capital Spacing in Latin lookup 0 subtable" dx=0 dy=0 dh=0 dv=0
EndChar

StartChar: Fturn
Encoding: 8498 8498 140
Width: 1173
GlyphClass: 2
Flags: W
AnchorPoint: "Anchor-1" 1073 1490 basechar 0
AnchorPoint: "Anchor-0" 458 0 basechar 0
LayerCount: 2
Fore
SplineSet
1166 1490 m 1,0,-1
 919 0 l 1,1,-1
 0 0 l 1,2,-1
 27 164 l 1,3,-1
 761 164 l 1,4,-1
 844 663 l 1,5,-1
 174 663 l 1,6,-1
 201 827 l 1,7,-1
 871 827 l 1,8,-1
 981 1490 l 1,9,-1
 1166 1490 l 1,0,-1
EndSplineSet
Position2: "'cpsp' Capital Spacing in Latin lookup 0 subtable" dx=0 dy=0 dh=0 dv=0
EndChar

StartChar: G
Encoding: 1114113 -1 141
Width: 1512
GlyphClass: 2
Flags: W
AnchorPoint: "Anchor-1" 924 1490 basechar 0
AnchorPoint: "Anchor-0" 676 0 basechar 0
LayerCount: 2
Fore
SplineSet
697 -22 m 0,0,1
 522 -22 522 -22 394 53 c 128,-1,2
 266 128 266 128 196.5 264 c 128,-1,3
 127 400 127 400 127 584 c 0,4,5
 127 761 127 761 183.5 927 c 128,-1,6
 240 1093 240 1093 345 1225 c 128,-1,7
 450 1357 450 1357 597 1434.5 c 128,-1,8
 744 1512 744 1512 924 1512 c 0,9,10
 1044 1512 1044 1512 1143.5 1476 c 128,-1,11
 1243 1440 1243 1440 1315 1374 c 128,-1,12
 1387 1308 1387 1308 1427 1217 c 128,-1,13
 1467 1126 1467 1126 1468 1016 c 1,14,-1
 1279 1016 l 1,15,16
 1273 1089 1273 1089 1245.5 1148.5 c 128,-1,17
 1218 1208 1218 1208 1172 1251 c 128,-1,18
 1126 1294 1126 1294 1061.5 1317 c 128,-1,19
 997 1340 997 1340 917 1340 c 0,20,21
 777 1340 777 1340 665 1276 c 128,-1,22
 553 1212 553 1212 473 1104 c 128,-1,23
 393 996 393 996 350.5 862.5 c 128,-1,24
 308 729 308 729 308 591 c 0,25,26
 308 383 308 383 415.5 266.5 c 128,-1,27
 523 150 523 150 704 150 c 0,28,29
 832 150 832 150 943 206.5 c 128,-1,30
 1054 263 1054 263 1129.5 363.5 c 128,-1,31
 1205 464 1205 464 1227 597 c 1,32,-1
 1282 584 l 1,33,-1
 836 584 l 1,34,-1
 864 747 l 1,35,-1
 1434 747 l 1,36,-1
 1406 579 l 2,37,38
 1383 445 1383 445 1319.5 335 c 128,-1,39
 1256 225 1256 225 1161 145 c 128,-1,40
 1066 65 1066 65 947.5 21.5 c 128,-1,41
 829 -22 829 -22 697 -22 c 0,0,1
EndSplineSet
Substitution2: "'c2sc' Capitals to Small Capitals in Latin lookup 67 subtable" g.sc
Substitution2: "'cv10' Character Variants 10 in Latin lookup 64 subtable" G.1
Substitution2: "'ss06' Style Set 6 in Latin lookup 52 subtable" G.squared
Substitution2: "'ss05' Style Set 5 in Latin lookup 51 subtable" uni24BC
Substitution2: "'salt' Stylistic Alternatives in Latin lookup 46 subtable" G.1
Substitution2: "'aalt' Access All Alternates in Latin lookup 0 subtable" g.sc
Position2: "'cpsp' Capital Spacing in Latin lookup 0 subtable" dx=0 dy=0 dh=0 dv=0
EndChar

StartChar: uni0193
Encoding: 1114115 -1 143
Width: 1512
GlyphClass: 2
Flags: W
AnchorPoint: "Anchor-1" 924 1490 basechar 0
AnchorPoint: "Anchor-0" 676 0 basechar 0
LayerCount: 2
Fore
SplineSet
1330 1038 m 1,0,-1
 1368 1429 l 2,1,2
 1376 1515 1376 1515 1420 1570.5 c 128,-1,3
 1464 1626 1464 1626 1535.5 1653 c 128,-1,4
 1607 1680 1607 1680 1695 1680 c 0,5,6
 1729 1680 1729 1680 1754 1679 c 128,-1,7
 1779 1678 1779 1678 1796 1676 c 1,8,-1
 1772 1527 l 1,9,10
 1757 1528 1757 1528 1731.5 1528.5 c 128,-1,11
 1706 1529 1706 1529 1693 1529 c 0,12,13
 1619 1529 1619 1529 1582 1505 c 128,-1,14
 1545 1481 1545 1481 1536 1429 c 2,15,-1
 1469 1016 l 1,16,-1
 1330 1038 l 1,0,-1
697 -22 m 0,17,18
 522 -22 522 -22 394 53 c 128,-1,19
 266 128 266 128 196.5 264 c 128,-1,20
 127 400 127 400 127 584 c 0,21,22
 127 761 127 761 183.5 927 c 128,-1,23
 240 1093 240 1093 345 1225 c 128,-1,24
 450 1357 450 1357 597 1434.5 c 128,-1,25
 744 1512 744 1512 924 1512 c 0,26,27
 1044 1512 1044 1512 1143.5 1476 c 128,-1,28
 1243 1440 1243 1440 1315 1374 c 128,-1,29
 1387 1308 1387 1308 1427 1217 c 128,-1,30
 1467 1126 1467 1126 1468 1016 c 1,31,-1
 1279 1016 l 1,32,33
 1273 1089 1273 1089 1245.5 1148.5 c 128,-1,34
 1218 1208 1218 1208 1172 1251 c 128,-1,35
 1126 1294 1126 1294 1061.5 1317 c 128,-1,36
 997 1340 997 1340 917 1340 c 0,37,38
 777 1340 777 1340 665 1276 c 128,-1,39
 553 1212 553 1212 473 1104 c 128,-1,40
 393 996 393 996 350.5 862.5 c 128,-1,41
 308 729 308 729 308 591 c 0,42,43
 308 383 308 383 415.5 266.5 c 128,-1,44
 523 150 523 150 704 150 c 0,45,46
 832 150 832 150 943 206.5 c 128,-1,47
 1054 263 1054 263 1129.5 363.5 c 128,-1,48
 1205 464 1205 464 1227 597 c 1,49,-1
 1282 584 l 1,50,-1
 836 584 l 1,51,-1
 864 747 l 1,52,-1
 1434 747 l 1,53,-1
 1406 579 l 2,54,55
 1383 445 1383 445 1319.5 335 c 128,-1,56
 1256 225 1256 225 1161 145 c 128,-1,57
 1066 65 1066 65 947.5 21.5 c 128,-1,58
 829 -22 829 -22 697 -22 c 0,17,18
EndSplineSet
Substitution2: "'c2sc' Capitals to Small Capitals in Latin lookup 67 subtable" uni0260.sc
Substitution2: "'cv10' Character Variants 10 in Latin lookup 64 subtable" uni0193.1
Substitution2: "'salt' Stylistic Alternatives in Latin lookup 46 subtable" uni0193.1
Substitution2: "'aalt' Access All Alternates in Latin lookup 0 subtable" uni0260.sc
Position2: "'cpsp' Capital Spacing in Latin lookup 0 subtable" dx=0 dy=0 dh=0 dv=0
EndChar

StartChar: G.1
Encoding: 57346 57346 151
AltUni2: 000047.ffffffff.0
Width: 1512
GlyphClass: 2
Flags: W
AnchorPoint: "Anchor-1" 931 1490 basechar 0
AnchorPoint: "Anchor-0" 666 0 basechar 0
LayerCount: 2
Fore
SplineSet
678 -22 m 0,0,1
 485 -22 485 -22 350.5 74 c 128,-1,2
 216 170 216 170 158.5 342.5 c 128,-1,3
 101 515 101 515 139 744 c 0,4,5
 168 917 168 917 240.5 1058.5 c 128,-1,6
 313 1200 313 1200 419 1301.5 c 128,-1,7
 525 1403 525 1403 656.5 1457.5 c 128,-1,8
 788 1512 788 1512 935 1512 c 0,9,10
 1054 1512 1054 1512 1151 1476 c 128,-1,11
 1248 1440 1248 1440 1319 1373.5 c 128,-1,12
 1390 1307 1390 1307 1428.5 1216 c 128,-1,13
 1467 1125 1467 1125 1469 1016 c 1,14,-1
 1280 1016 l 1,15,16
 1272 1089 1272 1089 1243 1148.5 c 128,-1,17
 1214 1208 1214 1208 1166 1251 c 128,-1,18
 1118 1294 1118 1294 1052.5 1317 c 128,-1,19
 987 1340 987 1340 906 1340 c 0,20,21
 767 1340 767 1340 645 1268.5 c 128,-1,22
 523 1197 523 1197 438 1063.5 c 128,-1,23
 353 930 353 930 322 745 c 0,24,25
 291 561 291 561 332.5 427.5 c 128,-1,26
 374 294 374 294 473.5 222 c 128,-1,27
 573 150 573 150 716 150 c 0,28,29
 844 150 844 150 952.5 206.5 c 128,-1,30
 1061 263 1061 263 1135.5 367 c 128,-1,31
 1210 471 1210 471 1234 615 c 1,32,-1
 1321 615 l 1,33,-1
 1300 489 l 2,34,35
 1285 395 1285 395 1236.5 304 c 128,-1,36
 1188 213 1188 213 1108.5 139.5 c 128,-1,37
 1029 66 1029 66 921 22 c 128,-1,38
 813 -22 813 -22 678 -22 c 0,0,1
1164 0 m 1,39,-1
 1180 281 l 1,40,-1
 1231 584 l 1,41,-1
 836 584 l 1,42,-1
 863 747 l 1,43,-1
 1434 747 l 1,44,-1
 1311 0 l 1,45,-1
 1164 0 l 1,39,-1
EndSplineSet
Substitution2: "'ss06' Style Set 6 in Latin lookup 52 subtable" G.1.squared
EndChar

StartChar: uni0193.1
Encoding: 57348 57348 153
AltUni2: 000193.ffffffff.0
Width: 1512
GlyphClass: 2
Flags: W
AnchorPoint: "Anchor-1" 931 1490 basechar 0
AnchorPoint: "Anchor-0" 666 0 basechar 0
LayerCount: 2
Fore
SplineSet
1330 1038 m 1,0,-1
 1368 1429 l 2,1,2
 1376 1515 1376 1515 1420 1570.5 c 128,-1,3
 1464 1626 1464 1626 1535.5 1653 c 128,-1,4
 1607 1680 1607 1680 1695 1680 c 0,5,6
 1729 1680 1729 1680 1754 1679 c 128,-1,7
 1779 1678 1779 1678 1796 1676 c 1,8,-1
 1772 1527 l 1,9,10
 1757 1528 1757 1528 1731.5 1528.5 c 128,-1,11
 1706 1529 1706 1529 1693 1529 c 0,12,13
 1619 1529 1619 1529 1582 1505 c 128,-1,14
 1545 1481 1545 1481 1536 1429 c 2,15,-1
 1469 1016 l 1,16,-1
 1330 1038 l 1,0,-1
678 -22 m 0,17,18
 485 -22 485 -22 350.5 74 c 128,-1,19
 216 170 216 170 158.5 342.5 c 128,-1,20
 101 515 101 515 139 744 c 0,21,22
 168 917 168 917 240.5 1058.5 c 128,-1,23
 313 1200 313 1200 419 1301.5 c 128,-1,24
 525 1403 525 1403 656.5 1457.5 c 128,-1,25
 788 1512 788 1512 935 1512 c 0,26,27
 1054 1512 1054 1512 1151 1476 c 128,-1,28
 1248 1440 1248 1440 1319 1373.5 c 128,-1,29
 1390 1307 1390 1307 1428.5 1216 c 128,-1,30
 1467 1125 1467 1125 1469 1016 c 1,31,-1
 1280 1016 l 1,32,33
 1272 1089 1272 1089 1243 1148.5 c 128,-1,34
 1214 1208 1214 1208 1166 1251 c 128,-1,35
 1118 1294 1118 1294 1052.5 1317 c 128,-1,36
 987 1340 987 1340 906 1340 c 0,37,38
 767 1340 767 1340 645 1268.5 c 128,-1,39
 523 1197 523 1197 438 1063.5 c 128,-1,40
 353 930 353 930 322 745 c 0,41,42
 291 561 291 561 332.5 427.5 c 128,-1,43
 374 294 374 294 473.5 222 c 128,-1,44
 573 150 573 150 716 150 c 0,45,46
 844 150 844 150 952.5 206.5 c 128,-1,47
 1061 263 1061 263 1135.5 367 c 128,-1,48
 1210 471 1210 471 1234 615 c 1,49,-1
 1321 615 l 1,50,-1
 1300 489 l 2,51,52
 1285 395 1285 395 1236.5 304 c 128,-1,53
 1188 213 1188 213 1108.5 139.5 c 128,-1,54
 1029 66 1029 66 921 22 c 128,-1,55
 813 -22 813 -22 678 -22 c 0,17,18
1164 0 m 1,56,-1
 1180 281 l 1,57,-1
 1231 584 l 1,58,-1
 836 584 l 1,59,-1
 863 747 l 1,60,-1
 1434 747 l 1,61,-1
 1311 0 l 1,62,-1
 1164 0 l 1,56,-1
EndSplineSet
EndChar

StartChar: H
Encoding: 72 72 161
Width: 1487
GlyphClass: 2
Flags: W
AnchorPoint: "Anchor-3" 169 0 basechar 0
AnchorPoint: "Anchor-1" 900 1490 basechar 0
AnchorPoint: "Anchor-0" 653 0 basechar 0
LayerCount: 2
Fore
SplineSet
74 0 m 1,0,-1
 321 1490 l 1,1,-1
 506 1490 l 1,2,-1
 399 845 l 1,3,-1
 1187 845 l 1,4,-1
 1294 1490 l 1,5,-1
 1479 1490 l 1,6,-1
 1232 0 l 1,7,-1
 1047 0 l 1,8,-1
 1160 681 l 1,9,-1
 372 681 l 1,10,-1
 259 0 l 1,11,-1
 74 0 l 1,0,-1
EndSplineSet
Substitution2: "'c2sc' Capitals to Small Capitals in Latin lookup 67 subtable" h.sc
Substitution2: "'ss06' Style Set 6 in Latin lookup 52 subtable" H.squared
Substitution2: "'ss05' Style Set 5 in Latin lookup 51 subtable" uni24BD
Substitution2: "'aalt' Access All Alternates in Latin lookup 0 subtable" h.sc
Position2: "'cpsp' Capital Spacing in Latin lookup 0 subtable" dx=0 dy=0 dh=0 dv=0
EndChar

StartChar: Hbar
Encoding: 294 294 169
Width: 1544
GlyphClass: 2
Flags: W
AnchorPoint: "Anchor-3" 200 0 basechar 0
AnchorPoint: "Anchor-1" 931 1490 basechar 0
AnchorPoint: "Anchor-0" 684 0 basechar 0
LayerCount: 2
Fore
SplineSet
1574 1176 m 1,0,-1
 1549 1024 l 1,1,-1
 156 1024 l 1,2,-1
 180 1176 l 1,3,-1
 1574 1176 l 1,0,-1
105 0 m 1,4,-1
 352 1490 l 1,5,-1
 537 1490 l 1,6,-1
 430 845 l 1,7,-1
 1218 845 l 1,8,-1
 1325 1490 l 1,9,-1
 1510 1490 l 1,10,-1
 1263 0 l 1,11,-1
 1078 0 l 1,12,-1
 1191 681 l 1,13,-1
 403 681 l 1,14,-1
 290 0 l 1,15,-1
 105 0 l 1,4,-1
EndSplineSet
Position2: "'cpsp' Capital Spacing in Latin lookup 0 subtable" dx=0 dy=0 dh=0 dv=0
EndChar

StartChar: uni04C7
Encoding: 1223 1223 170
Width: 1487
GlyphClass: 2
Flags: W
AnchorPoint: "Anchor-3" 169 0 basechar 0
AnchorPoint: "Anchor-1" 900 1490 basechar 0
AnchorPoint: "Anchor-0" 653 0 basechar 0
LayerCount: 2
Fore
SplineSet
769 -418 m 1,0,-1
 795 -260 l 1,1,2
 811 -262 811 -262 836 -262.5 c 128,-1,3
 861 -263 861 -263 874 -263 c 0,4,5
 949 -263 949 -263 980.5 -238.5 c 128,-1,6
 1012 -214 1012 -214 1020 -162 c 2,7,-1
 1068 128 l 1,8,-1
 1253 128 l 1,9,-1
 1204 -170 l 2,10,11
 1183 -293 1183 -293 1099 -357.5 c 128,-1,12
 1015 -422 1015 -422 875 -422 c 0,13,14
 841 -422 841 -422 813.5 -421 c 128,-1,15
 786 -420 786 -420 769 -418 c 1,0,-1
74 0 m 1,16,-1
 321 1490 l 1,17,-1
 506 1490 l 1,18,-1
 399 845 l 1,19,-1
 1187 845 l 1,20,-1
 1294 1490 l 1,21,-1
 1479 1490 l 1,22,-1
 1232 0 l 1,23,-1
 1047 0 l 1,24,-1
 1160 681 l 1,25,-1
 372 681 l 1,26,-1
 259 0 l 1,27,-1
 74 0 l 1,16,-1
EndSplineSet
Position2: "'cpsp' Capital Spacing in Latin lookup 0 subtable" dx=0 dy=0 dh=0 dv=0
EndChar

StartChar: uni04A4
Encoding: 1188 1188 173
Width: 1978
GlyphClass: 2
Flags: W
AnchorPoint: "Anchor-3" 169 0 basechar 0
AnchorPoint: "Anchor-1" 900 1490 basechar 0
AnchorPoint: "Anchor-0" 653 0 basechar 0
LayerCount: 2
Fore
SplineSet
2061 1490 m 1,0,-1
 2035 1330 l 1,1,-1
 1401 1330 l 1,2,-1
 1299 1490 l 1,3,-1
 2061 1490 l 1,0,-1
74 0 m 1,4,-1
 321 1490 l 1,5,-1
 506 1490 l 1,6,-1
 399 845 l 1,7,-1
 1187 845 l 1,8,-1
 1294 1490 l 1,9,-1
 1479 1490 l 1,10,-1
 1232 0 l 1,11,-1
 1047 0 l 1,12,-1
 1160 681 l 1,13,-1
 372 681 l 1,14,-1
 259 0 l 1,15,-1
 74 0 l 1,4,-1
EndSplineSet
Position2: "'cpsp' Capital Spacing in Latin lookup 0 subtable" dx=0 dy=0 dh=0 dv=0
EndChar

StartChar: uni01F6
Encoding: 502 502 174
Width: 2206
Flags: W
LayerCount: 2
Fore
SplineSet
1521 -20 m 0,0,1
 1378 -20 1378 -20 1279.5 35.5 c 128,-1,2
 1181 91 1181 91 1139 194.5 c 128,-1,3
 1097 298 1097 298 1121 443 c 2,4,-1
 1159 673 l 1,5,-1
 371 673 l 1,6,-1
 259 0 l 1,7,-1
 74 0 l 1,8,-1
 321 1490 l 1,9,-1
 506 1490 l 1,10,-1
 398 837 l 1,11,-1
 1186 837 l 1,12,-1
 1294 1490 l 1,13,-1
 1480 1490 l 1,14,-1
 1305 435 l 2,15,16
 1280 287 1280 287 1338 216 c 128,-1,17
 1396 145 1396 145 1527 145 c 0,18,19
 1620 145 1620 145 1690.5 179 c 128,-1,20
 1761 213 1761 213 1806.5 281 c 128,-1,21
 1852 349 1852 349 1868 447 c 2,22,-1
 1974 1086 l 1,23,-1
 2154 1086 l 1,24,-1
 2046 431 l 2,25,26
 2022 285 2022 285 1949 184.5 c 128,-1,27
 1876 84 1876 84 1766 32 c 128,-1,28
 1656 -20 1656 -20 1521 -20 c 0,0,1
EndSplineSet
Position2: "'cpsp' Capital Spacing in Latin lookup 0 subtable" dx=0 dy=0 dh=0 dv=0
EndChar

StartChar: I
Encoding: 73 73 197
Width: 514
GlyphClass: 2
Flags: W
AnchorPoint: "Anchor-4" 259 0 basechar 0
AnchorPoint: "Anchor-1" 414 1490 basechar 0
AnchorPoint: "Anchor-0" 167 0 basechar 0
LayerCount: 2
Fore
SplineSet
506 1490 m 1,0,-1
 259 0 l 1,1,-1
 74 0 l 1,2,-1
 321 1490 l 1,3,-1
 506 1490 l 1,0,-1
EndSplineSet
Substitution2: "'c2sc' Capitals to Small Capitals in Latin lookup 67 subtable" i.sc
Substitution2: "'cv08' Character Variants 08 in Latin lookup 62 subtable" I.1
Substitution2: "'ss06' Style Set 6 in Latin lookup 52 subtable" I.squared
Substitution2: "'ss05' Style Set 5 in Latin lookup 51 subtable" uni24BE
Substitution2: "'ss04' Style Set 4 in Latin lookup 50 subtable" I.1
Substitution2: "'ss02' Style Set 2 in Latin lookup 48 subtable" I.1
Substitution2: "'salt' Stylistic Alternatives in Latin lookup 46 subtable" I.1
Substitution2: "'aalt' Access All Alternates in Latin lookup 0 subtable" i.sc
Position2: "'cpsp' Capital Spacing in Latin lookup 0 subtable" dx=0 dy=0 dh=0 dv=0
EndChar

StartChar: I.1
Encoding: 57356 57356 235
Width: 799
GlyphClass: 2
Flags: W
AnchorPoint: "Anchor-4" 623 0 basechar 0
AnchorPoint: "Anchor-1" 557 1490 basechar 0
AnchorPoint: "Anchor-0" 310 0 basechar 0
LayerCount: 2
Fore
SplineSet
-4 0 m 1,0,-1
 23 164 l 1,1,-1
 244 164 l 1,2,-1
 437 1326 l 1,3,-1
 216 1326 l 1,4,-1
 243 1490 l 1,5,-1
 870 1490 l 1,6,-1
 842 1326 l 1,7,-1
 622 1326 l 1,8,-1
 429 164 l 1,9,-1
 650 164 l 1,10,-1
 623 0 l 1,11,-1
 -4 0 l 1,0,-1
EndSplineSet
EndChar

StartChar: J
Encoding: 74 74 267
Width: 1133
GlyphClass: 2
Flags: W
AnchorPoint: "Anchor-1" 1037 1490 basechar 0
LayerCount: 2
Fore
SplineSet
450 -20 m 0,0,1
 276 -20 276 -20 168 71.5 c 128,-1,2
 60 163 60 163 60 334 c 0,3,4
 60 348 60 348 61.5 366.5 c 128,-1,5
 63 385 63 385 67.5 417.5 c 128,-1,6
 72 450 72 450 81 505 c 1,7,-1
 266 505 l 1,8,9
 258 453 258 453 253.5 424 c 128,-1,10
 249 395 249 395 248 380.5 c 128,-1,11
 247 366 247 366 247 355 c 0,12,13
 247 252 247 252 304 198 c 128,-1,14
 361 144 361 144 462 144 c 0,15,16
 576 144 576 144 660.5 215 c 128,-1,17
 745 286 745 286 768 425 c 2,18,-1
 945 1490 l 1,19,-1
 1130 1490 l 1,20,-1
 953 425 l 2,21,22
 918 212 918 212 782 96 c 128,-1,23
 646 -20 646 -20 450 -20 c 0,0,1
EndSplineSet
Substitution2: "'ss06' Style Set 6 in Latin lookup 52 subtable" J.squared
Substitution2: "'ss05' Style Set 5 in Latin lookup 51 subtable" uni24BF
Position2: "'cpsp' Capital Spacing in Latin lookup 0 subtable" dx=0 dy=0 dh=0 dv=0
EndChar

StartChar: K
Encoding: 75 75 272
Width: 1338
GlyphClass: 2
Flags: W
AnchorPoint: "Anchor-1" 841 1490 basechar 0
AnchorPoint: "Anchor-0" 594 0 basechar 0
LayerCount: 2
Fore
SplineSet
271 426 m 1,0,-1
 301 646 l 1,1,2
 363 710 363 710 424.5 770 c 128,-1,3
 486 830 486 830 548 889 c 128,-1,4
 610 948 610 948 674 1007 c 2,5,-1
 1203 1490 l 1,6,-1
 1453 1490 l 1,7,-1
 704 810 l 1,8,-1
 694 811 l 1,9,-1
 271 426 l 1,0,-1
74 0 m 1,10,-1
 321 1490 l 1,11,-1
 507 1490 l 1,12,-1
 421 976 l 1,13,-1
 366 657 l 1,14,-1
 353 567 l 1,15,-1
 260 0 l 1,16,-1
 74 0 l 1,10,-1
1002 0 m 1,17,-1
 586 762 l 1,18,-1
 709 907 l 1,19,-1
 1207 0 l 1,20,-1
 1002 0 l 1,17,-1
EndSplineSet
Substitution2: "'ss06' Style Set 6 in Latin lookup 52 subtable" K.squared
Substitution2: "'ss05' Style Set 5 in Latin lookup 51 subtable" uni24C0
Position2: "'cpsp' Capital Spacing in Latin lookup 0 subtable" dx=0 dy=0 dh=0 dv=0
EndChar

StartChar: uni04A0
Encoding: 1184 1184 278
Width: 1678
GlyphClass: 2
Flags: W
AnchorPoint: "Anchor-1" 1164 1490 basechar 0
LayerCount: 2
Fore
SplineSet
751 1490 m 1,0,-1
 724 1330 l 1,1,-1
 206 1330 l 1,2,-1
 233 1490 l 1,3,-1
 751 1490 l 1,0,-1
414 0 m 1,4,-1
 661 1490 l 1,5,-1
 846 1490 l 1,6,-1
 739 841 l 1,7,-1
 945 841 l 1,8,-1
 1544 1490 l 1,9,-1
 1770 1490 l 1,10,-1
 1094 768 l 1,11,-1
 1547 0 l 1,12,-1
 1332 0 l 1,13,-1
 936 676 l 1,14,-1
 711 676 l 1,15,-1
 599 0 l 1,16,-1
 414 0 l 1,4,-1
EndSplineSet
Position2: "'cpsp' Capital Spacing in Latin lookup 0 subtable" dx=0 dy=0 dh=0 dv=0
EndChar

StartChar: uni0198
Encoding: 408 408 280
Width: 1351
Flags: W
LayerCount: 2
Fore
SplineSet
75 0 m 1,0,-1
 321 1490 l 1,1,-1
 506 1490 l 1,2,-1
 384 754 l 1,3,-1
 402 754 l 1,4,-1
 1096 1401 l 2,5,6
 1164 1464 1164 1464 1236.5 1489.5 c 128,-1,7
 1309 1515 1309 1515 1376.5 1505.5 c 128,-1,8
 1444 1496 1444 1496 1499 1452 c 1,9,-1
 1403 1315 l 1,10,11
 1361 1345 1361 1345 1310 1337.5 c 128,-1,12
 1259 1330 1259 1330 1193 1270 c 2,13,-1
 696 818 l 1,14,-1
 1185 0 l 1,15,-1
 961 0 l 1,16,-1
 560 688 l 1,17,-1
 340 479 l 1,18,-1
 260 0 l 1,19,-1
 75 0 l 1,0,-1
EndSplineSet
Position2: "'cpsp' Capital Spacing in Latin lookup 0 subtable" dx=0 dy=0 dh=0 dv=0
EndChar

StartChar: L
Encoding: 76 76 282
Width: 1127
GlyphClass: 2
Flags: W
AnchorPoint: "Anchor-1" 414 1490 basechar 0
AnchorPoint: "Anchor-0" 512 0 basechar 0
LayerCount: 2
Fore
SplineSet
74 0 m 1,0,-1
 321 1490 l 1,1,-1
 506 1490 l 1,2,-1
 286 164 l 1,3,-1
 990 164 l 1,4,-1
 963 0 l 1,5,-1
 74 0 l 1,0,-1
EndSplineSet
Substitution2: "'c2sc' Capitals to Small Capitals in Latin lookup 67 subtable" l.sc
Substitution2: "'ss06' Style Set 6 in Latin lookup 52 subtable" L.squared
Substitution2: "'ss05' Style Set 5 in Latin lookup 51 subtable" uni24C1
Substitution2: "'aalt' Access All Alternates in Latin lookup 0 subtable" l.sc
Position2: "'cpsp' Capital Spacing in Latin lookup 0 subtable" dx=0 dy=0 dh=0 dv=0
EndChar

StartChar: M
Encoding: 77 77 293
Width: 1803
GlyphClass: 2
Flags: W
AnchorPoint: "Anchor-1" 1056 1490 basechar 0
AnchorPoint: "Anchor-0" 810 0 basechar 0
LayerCount: 2
Fore
SplineSet
74 0 m 1,0,-1
 321 1490 l 1,1,-1
 578 1490 l 1,2,-1
 792 537 l 2,3,4
 800 504 800 504 809 455 c 128,-1,5
 818 406 818 406 828 351.5 c 128,-1,6
 838 297 838 297 846 245.5 c 128,-1,7
 854 194 854 194 860 156 c 1,8,-1
 819 162 l 1,9,10
 838 202 838 202 863.5 253.5 c 128,-1,11
 889 305 889 305 916.5 359.5 c 128,-1,12
 944 414 944 414 968.5 462 c 128,-1,13
 993 510 993 510 1011 542 c 2,14,-1
 1537 1490 l 1,15,-1
 1796 1490 l 1,16,-1
 1549 0 l 1,17,-1
 1367 0 l 1,18,-1
 1509 861 l 2,19,20
 1517 910 1517 910 1527.5 968.5 c 128,-1,21
 1538 1027 1538 1027 1549.5 1089 c 128,-1,22
 1561 1151 1561 1151 1573 1212.5 c 128,-1,23
 1585 1274 1585 1274 1595 1330 c 1,24,-1
 1616 1324 l 1,25,26
 1581 1254 1581 1254 1545.5 1185 c 128,-1,27
 1510 1116 1510 1116 1478 1054 c 128,-1,28
 1446 992 1446 992 1419 941 c 128,-1,29
 1392 890 1392 890 1372 855 c 2,30,-1
 890 0 l 1,31,-1
 734 0 l 1,32,-1
 533 860 l 2,33,34
 523 906 523 906 508 979.5 c 128,-1,35
 493 1053 493 1053 475.5 1143.5 c 128,-1,36
 458 1234 458 1234 439 1330 c 1,37,-1
 464 1324 l 1,38,39
 456 1266 456 1266 447 1203.5 c 128,-1,40
 438 1141 438 1141 429 1079.5 c 128,-1,41
 420 1018 420 1018 411.5 960.5 c 128,-1,42
 403 903 403 903 395 855 c 2,43,-1
 254 0 l 1,44,-1
 74 0 l 1,0,-1
EndSplineSet
Substitution2: "'c2sc' Capitals to Small Capitals in Latin lookup 67 subtable" m.sc
Substitution2: "'ss06' Style Set 6 in Latin lookup 52 subtable" M.squared
Substitution2: "'ss05' Style Set 5 in Latin lookup 51 subtable" uni24C2
Substitution2: "'aalt' Access All Alternates in Latin lookup 0 subtable" m.sc
Position2: "'cpsp' Capital Spacing in Latin lookup 0 subtable" dx=0 dy=0 dh=0 dv=0
EndChar

StartChar: N
Encoding: 78 78 301
Width: 1499
GlyphClass: 2
Flags: W
AnchorPoint: "Anchor-1" 907 1490 basechar 0
AnchorPoint: "Anchor-0" 660 0 basechar 0
LayerCount: 2
Fore
SplineSet
74 0 m 1,0,-1
 321 1490 l 1,1,-1
 528 1490 l 1,2,-1
 981 529 l 2,3,4
 996 498 996 498 1019.5 444.5 c 128,-1,5
 1043 391 1043 391 1070 323.5 c 128,-1,6
 1097 256 1097 256 1121 183 c 1,7,-1
 1101 165 l 1,8,9
 1107 234 1107 234 1116 308.5 c 128,-1,10
 1125 383 1125 383 1135 448 c 128,-1,11
 1145 513 1145 513 1151 552 c 2,12,-1
 1307 1490 l 1,13,-1
 1492 1490 l 1,14,-1
 1245 0 l 1,15,-1
 1039 0 l 1,16,-1
 634 855 l 2,17,18
 614 900 614 900 586.5 961 c 128,-1,19
 559 1022 559 1022 523.5 1107 c 128,-1,20
 488 1192 488 1192 441 1307 c 1,21,-1
 465 1331 l 1,22,23
 450 1212 450 1212 438 1120 c 128,-1,24
 426 1028 426 1028 417 962 c 128,-1,25
 408 896 408 896 401 857 c 2,26,-1
 260 0 l 1,27,-1
 74 0 l 1,0,-1
EndSplineSet
Substitution2: "'c2sc' Capitals to Small Capitals in Latin lookup 67 subtable" n.sc
Substitution2: "'ss06' Style Set 6 in Latin lookup 52 subtable" N.squared
Substitution2: "'ss05' Style Set 5 in Latin lookup 51 subtable" uni24C3
Substitution2: "'aalt' Access All Alternates in Latin lookup 0 subtable" n.sc
Position2: "'cpsp' Capital Spacing in Latin lookup 0 subtable" dx=0 dy=0 dh=0 dv=0
EndChar

StartChar: Nhook
Encoding: 413 413 311
Width: 1499
GlyphClass: 2
Flags: W
AnchorPoint: "Anchor-1" 907 1490 basechar 0
AnchorPoint: "Anchor-0" 660 0 basechar 0
LayerCount: 2
Fore
SplineSet
-204 -418 m 1,0,-1
 -178 -260 l 1,1,2
 -162 -262 -162 -262 -137 -262.5 c 128,-1,3
 -112 -263 -112 -263 -99 -263 c 0,4,5
 -24 -263 -24 -263 7.5 -238.5 c 128,-1,6
 39 -214 39 -214 47 -162 c 2,7,-1
 95 128 l 1,8,-1
 280 128 l 1,9,-1
 231 -170 l 2,10,11
 210 -293 210 -293 126 -357.5 c 128,-1,12
 42 -422 42 -422 -98 -422 c 0,13,14
 -132 -422 -132 -422 -159.5 -421 c 128,-1,15
 -187 -420 -187 -420 -204 -418 c 1,0,-1
74 0 m 1,16,-1
 321 1490 l 1,17,-1
 528 1490 l 1,18,-1
 981 529 l 2,19,20
 996 498 996 498 1019.5 444.5 c 128,-1,21
 1043 391 1043 391 1070 323.5 c 128,-1,22
 1097 256 1097 256 1121 183 c 1,23,-1
 1101 165 l 1,24,25
 1107 234 1107 234 1116 308.5 c 128,-1,26
 1125 383 1125 383 1135 448 c 128,-1,27
 1145 513 1145 513 1151 552 c 2,28,-1
 1307 1490 l 1,29,-1
 1492 1490 l 1,30,-1
 1245 0 l 1,31,-1
 1039 0 l 1,32,-1
 634 855 l 2,33,34
 614 900 614 900 586.5 961 c 128,-1,35
 559 1022 559 1022 523.5 1107 c 128,-1,36
 488 1192 488 1192 441 1307 c 1,37,-1
 465 1331 l 1,38,39
 450 1212 450 1212 438 1120 c 128,-1,40
 426 1028 426 1028 417 962 c 128,-1,41
 408 896 408 896 401 857 c 2,42,-1
 260 0 l 1,43,-1
 74 0 l 1,16,-1
EndSplineSet
Position2: "'cpsp' Capital Spacing in Latin lookup 0 subtable" dx=0 dy=0 dh=0 dv=0
EndChar

StartChar: Eng
Encoding: 330 330 312
Width: 1499
GlyphClass: 2
Flags: W
AnchorPoint: "Anchor-1" 907 1490 basechar 0
AnchorPoint: "Anchor-0" 660 0 basechar 0
LayerCount: 2
Fore
SplineSet
787 -418 m 1,0,-1
 813 -260 l 1,1,2
 829 -262 829 -262 854 -262.5 c 128,-1,3
 879 -263 879 -263 892 -263 c 0,4,5
 967 -263 967 -263 998.5 -238.5 c 128,-1,6
 1030 -214 1030 -214 1038 -162 c 2,7,-1
 1086 128 l 1,8,-1
 1271 128 l 1,9,-1
 1222 -170 l 2,10,11
 1201 -293 1201 -293 1117 -357.5 c 128,-1,12
 1033 -422 1033 -422 893 -422 c 0,13,14
 859 -422 859 -422 831.5 -421 c 128,-1,15
 804 -420 804 -420 787 -418 c 1,0,-1
74 0 m 1,16,-1
 321 1490 l 1,17,-1
 528 1490 l 1,18,-1
 981 529 l 2,19,20
 996 498 996 498 1019.5 444.5 c 128,-1,21
 1043 391 1043 391 1070 323.5 c 128,-1,22
 1097 256 1097 256 1121 183 c 1,23,-1
 1101 165 l 1,24,25
 1107 234 1107 234 1116 308.5 c 128,-1,26
 1125 383 1125 383 1135 448 c 128,-1,27
 1145 513 1145 513 1151 552 c 2,28,-1
 1307 1490 l 1,29,-1
 1492 1490 l 1,30,-1
 1245 0 l 1,31,-1
 1039 0 l 1,32,-1
 634 855 l 2,33,34
 614 900 614 900 586.5 961 c 128,-1,35
 559 1022 559 1022 523.5 1107 c 128,-1,36
 488 1192 488 1192 441 1307 c 1,37,-1
 465 1331 l 1,38,39
 450 1212 450 1212 438 1120 c 128,-1,40
 426 1028 426 1028 417 962 c 128,-1,41
 408 896 408 896 401 857 c 2,42,-1
 260 0 l 1,43,-1
 74 0 l 1,16,-1
EndSplineSet
Position2: "'cpsp' Capital Spacing in Latin lookup 0 subtable" dx=0 dy=0 dh=0 dv=0
EndChar

StartChar: uni0418
Encoding: 1048 1048 313
Width: 1499
GlyphClass: 2
Flags: W
AnchorPoint: "Anchor-1" 912 1490 basechar 0
AnchorPoint: "Anchor-0" 660 0 basechar 0
LayerCount: 2
Fore
SplineSet
1245 0 m 1,0,-1
 1060 0 l 1,1,-1
 1202 857 l 2,2,3
 1209 896 1209 896 1221.5 963 c 128,-1,4
 1234 1030 1234 1030 1252.5 1122.5 c 128,-1,5
 1271 1215 1271 1215 1295 1331 c 1,6,-1
 1319 1299 l 1,7,8
 1235 1185 1235 1185 1171.5 1100 c 128,-1,9
 1108 1015 1108 1015 1060.5 953.5 c 128,-1,10
 1013 892 1013 892 977 847 c 2,11,-1
 292 0 l 1,12,-1
 74 0 l 1,13,-1
 321 1490 l 1,14,-1
 507 1490 l 1,15,-1
 351 552 l 2,16,17
 344 511 344 511 332.5 446 c 128,-1,18
 321 381 321 381 305.5 307.5 c 128,-1,19
 290 234 290 234 273 165 c 1,20,-1
 254 195 l 1,21,22
 301 265 301 265 349 331 c 128,-1,23
 397 397 397 397 438.5 450.5 c 128,-1,24
 480 504 480 504 507 537 c 2,25,-1
 1276 1490 l 1,26,-1
 1492 1490 l 1,27,-1
 1245 0 l 1,0,-1
EndSplineSet
Position2: "'cpsp' Capital Spacing in Latin lookup 0 subtable" dx=0 dy=0 dh=0 dv=0
EndChar

StartChar: O
Encoding: 79 79 322
Width: 1551
GlyphClass: 2
Flags: W
AnchorPoint: "Anchor-4" 1490 904 basechar 0
AnchorPoint: "Anchor-1" 932 1490 basechar 0
AnchorPoint: "Anchor-0" 686 0 basechar 0
LayerCount: 2
Fore
SplineSet
693 -22 m 0,0,1
 521 -22 521 -22 393.5 53 c 128,-1,2
 266 128 266 128 196.5 264.5 c 128,-1,3
 127 401 127 401 127 586 c 0,4,5
 127 762 127 762 183.5 928 c 128,-1,6
 240 1094 240 1094 346 1225.5 c 128,-1,7
 452 1357 452 1357 599 1434.5 c 128,-1,8
 746 1512 746 1512 925 1512 c 0,9,10
 1097 1512 1097 1512 1224 1437 c 128,-1,11
 1351 1362 1351 1362 1420.5 1226 c 128,-1,12
 1490 1090 1490 1090 1490 904 c 0,13,14
 1490 727 1490 727 1433 561.5 c 128,-1,15
 1376 396 1376 396 1270.5 264 c 128,-1,16
 1165 132 1165 132 1018.5 55 c 128,-1,17
 872 -22 872 -22 693 -22 c 0,0,1
700 150 m 0,18,19
 840 150 840 150 952.5 214 c 128,-1,20
 1065 278 1065 278 1145 385.5 c 128,-1,21
 1225 493 1225 493 1267 627 c 128,-1,22
 1309 761 1309 761 1309 902 c 0,23,24
 1309 1045 1309 1045 1258.5 1142.5 c 128,-1,25
 1208 1240 1208 1240 1120 1290 c 128,-1,26
 1032 1340 1032 1340 918 1340 c 0,27,28
 778 1340 778 1340 665 1276 c 128,-1,29
 552 1212 552 1212 472.5 1104 c 128,-1,30
 393 996 393 996 350.5 862 c 128,-1,31
 308 728 308 728 308 588 c 0,32,33
 308 446 308 446 358.5 348.5 c 128,-1,34
 409 251 409 251 497.5 200.5 c 128,-1,35
 586 150 586 150 700 150 c 0,18,19
EndSplineSet
Substitution2: "'ss06' Style Set 6 in Latin lookup 52 subtable" O.squared
Substitution2: "'ss05' Style Set 5 in Latin lookup 51 subtable" uni24C4
Substitution2: "Single Substitution lookup 44 subtable" ordmasculine
Substitution2: "'aalt' Access All Alternates in Latin lookup 0 subtable" ordmasculine
Position2: "'cpsp' Capital Spacing in Latin lookup 0 subtable" dx=0 dy=0 dh=0 dv=0
EndChar

StartChar: Ohorn
Encoding: 416 416 326
Width: 1547
GlyphClass: 2
Flags: W
AnchorPoint: "Anchor-4" 1490 904 basechar 0
AnchorPoint: "Anchor-1" 932 1490 basechar 0
AnchorPoint: "Anchor-0" 686 0 basechar 0
LayerCount: 2
Fore
SplineSet
911 1376 m 1,0,-1
 934 1512 l 1,1,2
 982 1512 982 1512 1015 1510 c 128,-1,3
 1048 1508 1048 1508 1078.5 1504.5 c 128,-1,4
 1109 1501 1109 1501 1149.5 1498 c 128,-1,5
 1190 1495 1190 1495 1252 1492.5 c 128,-1,6
 1314 1490 1314 1490 1410 1490 c 0,7,8
 1428 1490 1428 1490 1431 1508 c 2,9,-1
 1464 1714 l 1,10,-1
 1634 1714 l 1,11,-1
 1602 1518 l 2,12,13
 1588 1433 1588 1433 1539 1390.5 c 128,-1,14
 1490 1348 1490 1348 1404 1348 c 0,15,16
 1363 1348 1363 1348 1329.5 1352.5 c 128,-1,17
 1296 1357 1296 1357 1248.5 1362.5 c 128,-1,18
 1201 1368 1201 1368 1122 1372 c 128,-1,19
 1043 1376 1043 1376 911 1376 c 1,0,-1
693 -22 m 0,20,21
 521 -22 521 -22 393.5 53 c 128,-1,22
 266 128 266 128 196.5 264.5 c 128,-1,23
 127 401 127 401 127 586 c 0,24,25
 127 762 127 762 183.5 928 c 128,-1,26
 240 1094 240 1094 346 1225.5 c 128,-1,27
 452 1357 452 1357 599 1434.5 c 128,-1,28
 746 1512 746 1512 925 1512 c 0,29,30
 1097 1512 1097 1512 1224 1437 c 128,-1,31
 1351 1362 1351 1362 1420.5 1226 c 128,-1,32
 1490 1090 1490 1090 1490 904 c 0,33,34
 1490 727 1490 727 1433 561.5 c 128,-1,35
 1376 396 1376 396 1270.5 264 c 128,-1,36
 1165 132 1165 132 1018.5 55 c 128,-1,37
 872 -22 872 -22 693 -22 c 0,20,21
700 150 m 0,38,39
 840 150 840 150 952.5 214 c 128,-1,40
 1065 278 1065 278 1145 385.5 c 128,-1,41
 1225 493 1225 493 1267 627 c 128,-1,42
 1309 761 1309 761 1309 902 c 0,43,44
 1309 1045 1309 1045 1258.5 1142.5 c 128,-1,45
 1208 1240 1208 1240 1120 1290 c 128,-1,46
 1032 1340 1032 1340 918 1340 c 0,47,48
 778 1340 778 1340 665 1276 c 128,-1,49
 552 1212 552 1212 472.5 1104 c 128,-1,50
 393 996 393 996 350.5 862 c 128,-1,51
 308 728 308 728 308 588 c 0,52,53
 308 446 308 446 358.5 348.5 c 128,-1,54
 409 251 409 251 497.5 200.5 c 128,-1,55
 586 150 586 150 700 150 c 0,38,39
EndSplineSet
Position2: "'cpsp' Capital Spacing in Latin lookup 0 subtable" dx=0 dy=0 dh=0 dv=0
EndChar

StartChar: uni03F4
Encoding: 1012 1012 368
Width: 1551
GlyphClass: 2
Flags: W
AnchorPoint: "Anchor-4" 1490 904 basechar 0
AnchorPoint: "Anchor-1" 932 1490 basechar 0
AnchorPoint: "Anchor-0" 686 0 basechar 0
LayerCount: 2
Fore
SplineSet
1315 824 m 1,0,-1
 1302 664 l 1,1,-1
 278 664 l 1,2,-1
 291 824 l 1,3,-1
 1315 824 l 1,0,-1
693 -22 m 0,4,5
 521 -22 521 -22 393.5 53 c 128,-1,6
 266 128 266 128 196.5 264.5 c 128,-1,7
 127 401 127 401 127 586 c 0,8,9
 127 762 127 762 183.5 928 c 128,-1,10
 240 1094 240 1094 346 1225.5 c 128,-1,11
 452 1357 452 1357 599 1434.5 c 128,-1,12
 746 1512 746 1512 925 1512 c 0,13,14
 1097 1512 1097 1512 1224 1437 c 128,-1,15
 1351 1362 1351 1362 1420.5 1226 c 128,-1,16
 1490 1090 1490 1090 1490 904 c 0,17,18
 1490 727 1490 727 1433 561.5 c 128,-1,19
 1376 396 1376 396 1270.5 264 c 128,-1,20
 1165 132 1165 132 1018.5 55 c 128,-1,21
 872 -22 872 -22 693 -22 c 0,4,5
700 150 m 0,22,23
 840 150 840 150 952.5 214 c 128,-1,24
 1065 278 1065 278 1145 385.5 c 128,-1,25
 1225 493 1225 493 1267 627 c 128,-1,26
 1309 761 1309 761 1309 902 c 0,27,28
 1309 1045 1309 1045 1258.5 1142.5 c 128,-1,29
 1208 1240 1208 1240 1120 1290 c 128,-1,30
 1032 1340 1032 1340 918 1340 c 0,31,32
 778 1340 778 1340 665 1276 c 128,-1,33
 552 1212 552 1212 472.5 1104 c 128,-1,34
 393 996 393 996 350.5 862 c 128,-1,35
 308 728 308 728 308 588 c 0,36,37
 308 446 308 446 358.5 348.5 c 128,-1,38
 409 251 409 251 497.5 200.5 c 128,-1,39
 586 150 586 150 700 150 c 0,22,23
EndSplineSet
Position2: "'cpsp' Capital Spacing in Latin lookup 0 subtable" dx=0 dy=0 dh=0 dv=0
EndChar

StartChar: OE
Encoding: 338 338 375
Width: 1988
GlyphClass: 2
Flags: W
AnchorPoint: "Anchor-4" 1797 0 basechar 0
AnchorPoint: "Anchor-3" 1331 0 basechar 0
AnchorPoint: "Anchor-1" 1573 1490 basechar 0
AnchorPoint: "Anchor-0" 1326 0 basechar 0
LayerCount: 2
Fore
SplineSet
699 0 m 2,0,1
 487 0 487 0 349 92 c 128,-1,2
 211 184 211 184 156.5 351.5 c 128,-1,3
 102 519 102 519 139 746 c 0,4,5
 177 974 177 974 287 1141 c 128,-1,6
 397 1308 397 1308 563 1399 c 128,-1,7
 729 1490 729 1490 935 1490 c 2,8,-1
 1181 1490 l 1,9,-1
 1155 1330 l 1,10,-1
 915 1330 l 2,11,12
 756 1330 756 1330 631 1258.5 c 128,-1,13
 506 1187 506 1187 424.5 1056 c 128,-1,14
 343 925 343 925 313 746 c 0,15,16
 284 568 284 568 322.5 436.5 c 128,-1,17
 361 305 361 305 464 232.5 c 128,-1,18
 567 160 567 160 732 160 c 2,19,-1
 958 160 l 1,20,-1
 930 0 l 1,21,-1
 699 0 l 2,0,1
854 0 m 1,22,-1
 1101 1490 l 1,23,-1
 2040 1490 l 1,24,-1
 2012 1327 l 1,25,-1
 1259 1327 l 1,26,-1
 1179 840 l 1,27,-1
 1879 840 l 1,28,-1
 1851 676 l 1,29,-1
 1151 676 l 1,30,-1
 1066 164 l 1,31,-1
 1824 164 l 1,32,-1
 1797 0 l 1,33,-1
 854 0 l 1,22,-1
EndSplineSet
Substitution2: "'c2sc' Capitals to Small Capitals in Latin lookup 67 subtable" oe.sc
Substitution2: "'aalt' Access All Alternates in Latin lookup 0 subtable" oe.sc
Position2: "'cpsp' Capital Spacing in Latin lookup 0 subtable" dx=0 dy=0 dh=0 dv=0
EndChar

StartChar: P
Encoding: 80 80 376
Width: 1281
GlyphClass: 2
Flags: W
AnchorPoint: "Anchor-1" 791 1490 basechar 0
LayerCount: 2
Fore
SplineSet
74 0 m 1,0,-1
 321 1490 l 1,1,-1
 839 1490 l 2,2,3
 1004 1490 1004 1490 1108 1430.5 c 128,-1,4
 1212 1371 1212 1371 1254 1265.5 c 128,-1,5
 1296 1160 1296 1160 1274 1024 c 256,6,7
 1252 888 1252 888 1175.5 784 c 128,-1,8
 1099 680 1099 680 975 621 c 128,-1,9
 851 562 851 562 686 562 c 2,10,-1
 288 562 l 1,11,-1
 315 726 l 1,12,-1
 709 726 l 2,13,14
 822 726 822 726 901.5 764.5 c 128,-1,15
 981 803 981 803 1028.5 871.5 c 128,-1,16
 1076 940 1076 940 1090 1028 c 0,17,18
 1105 1117 1105 1117 1079.5 1184 c 128,-1,19
 1054 1251 1054 1251 987 1289 c 128,-1,20
 920 1327 920 1327 808 1327 c 2,21,-1
 479 1327 l 1,22,-1
 259 0 l 1,23,-1
 74 0 l 1,0,-1
EndSplineSet
Substitution2: "'ss06' Style Set 6 in Latin lookup 52 subtable" P.squared
Substitution2: "'ss05' Style Set 5 in Latin lookup 51 subtable" uni24C5
Position2: "'cpsp' Capital Spacing in Latin lookup 0 subtable" dx=0 dy=0 dh=0 dv=0
EndChar

StartChar: uni048E
Encoding: 1166 1166 379
Width: 1267
GlyphClass: 2
Flags: W
AnchorPoint: "Anchor-1" 791 1490 basechar 0
LayerCount: 2
Fore
SplineSet
868 958 m 1,0,-1
 1111 494 l 1,1,-1
 967 408 l 1,2,-1
 724 872 l 1,3,-1
 868 958 l 1,0,-1
74 0 m 1,4,-1
 321 1490 l 1,5,-1
 839 1490 l 2,6,7
 1004 1490 1004 1490 1108 1430.5 c 128,-1,8
 1212 1371 1212 1371 1254 1265.5 c 128,-1,9
 1296 1160 1296 1160 1274 1024 c 256,10,11
 1252 888 1252 888 1175.5 784 c 128,-1,12
 1099 680 1099 680 975 621 c 128,-1,13
 851 562 851 562 686 562 c 2,14,-1
 288 562 l 1,15,-1
 315 726 l 1,16,-1
 709 726 l 2,17,18
 822 726 822 726 901.5 764.5 c 128,-1,19
 981 803 981 803 1028.5 871.5 c 128,-1,20
 1076 940 1076 940 1090 1028 c 0,21,22
 1105 1117 1105 1117 1079.5 1184 c 128,-1,23
 1054 1251 1054 1251 987 1289 c 128,-1,24
 920 1327 920 1327 808 1327 c 2,25,-1
 479 1327 l 1,26,-1
 259 0 l 1,27,-1
 74 0 l 1,4,-1
EndSplineSet
Position2: "'cpsp' Capital Spacing in Latin lookup 0 subtable" dx=0 dy=0 dh=0 dv=0
EndChar

StartChar: uni01A4
Encoding: 420 420 380
Width: 1561
GlyphClass: 2
Flags: W
AnchorPoint: "Anchor-1" 1071 1490 basechar 0
LayerCount: 2
Fore
SplineSet
141 1082 m 1,0,-1
 162 1211 l 2,1,2
 185 1350 185 1350 269.5 1420 c 128,-1,3
 354 1490 354 1490 505 1490 c 2,4,-1
 601 1490 l 1,5,-1
 574 1327 l 1,6,-1
 478 1327 l 2,7,8
 412 1327 412 1327 378 1299 c 128,-1,9
 344 1271 344 1271 334 1208 c 2,10,-1
 313 1082 l 1,11,-1
 141 1082 l 1,0,-1
354 0 m 1,12,-1
 601 1490 l 1,13,-1
 1119 1490 l 2,14,15
 1284 1490 1284 1490 1388 1430.5 c 128,-1,16
 1492 1371 1492 1371 1534 1265.5 c 128,-1,17
 1576 1160 1576 1160 1554 1024 c 256,18,19
 1532 888 1532 888 1455.5 784 c 128,-1,20
 1379 680 1379 680 1255 621 c 128,-1,21
 1131 562 1131 562 966 562 c 2,22,-1
 568 562 l 1,23,-1
 595 726 l 1,24,-1
 989 726 l 2,25,26
 1102 726 1102 726 1181.5 764.5 c 128,-1,27
 1261 803 1261 803 1308.5 871.5 c 128,-1,28
 1356 940 1356 940 1370 1028 c 0,29,30
 1385 1117 1385 1117 1359.5 1184 c 128,-1,31
 1334 1251 1334 1251 1267 1289 c 128,-1,32
 1200 1327 1200 1327 1088 1327 c 2,33,-1
 759 1327 l 1,34,-1
 539 0 l 1,35,-1
 354 0 l 1,12,-1
EndSplineSet
Position2: "'cpsp' Capital Spacing in Latin lookup 0 subtable" dx=0 dy=0 dh=0 dv=0
EndChar

StartChar: Q
Encoding: 81 81 383
Width: 1551
GlyphClass: 2
Flags: W
AnchorPoint: "Anchor-4" 1490 904 basechar 0
AnchorPoint: "Anchor-1" 932 1490 basechar 0
AnchorPoint: "Anchor-0" 686 0 basechar 0
LayerCount: 2
Fore
SplineSet
734 466 m 1,0,-1
 916 466 l 1,1,-1
 1046 248 l 1,2,-1
 1078 190 l 1,3,-1
 1272 -140 l 1,4,-1
 1090 -140 l 1,5,-1
 964 78 l 1,6,-1
 931 134 l 1,7,-1
 734 466 l 1,0,-1
693 -22 m 0,8,9
 521 -22 521 -22 393.5 53 c 128,-1,10
 266 128 266 128 196.5 264.5 c 128,-1,11
 127 401 127 401 127 586 c 0,12,13
 127 762 127 762 183.5 928 c 128,-1,14
 240 1094 240 1094 346 1225.5 c 128,-1,15
 452 1357 452 1357 599 1434.5 c 128,-1,16
 746 1512 746 1512 925 1512 c 0,17,18
 1097 1512 1097 1512 1224 1437 c 128,-1,19
 1351 1362 1351 1362 1420.5 1226 c 128,-1,20
 1490 1090 1490 1090 1490 904 c 0,21,22
 1490 727 1490 727 1433 561.5 c 128,-1,23
 1376 396 1376 396 1270.5 264 c 128,-1,24
 1165 132 1165 132 1018.5 55 c 128,-1,25
 872 -22 872 -22 693 -22 c 0,8,9
700 150 m 0,26,27
 840 150 840 150 952.5 214 c 128,-1,28
 1065 278 1065 278 1145 385.5 c 128,-1,29
 1225 493 1225 493 1267 627 c 128,-1,30
 1309 761 1309 761 1309 902 c 0,31,32
 1309 1045 1309 1045 1258.5 1142.5 c 128,-1,33
 1208 1240 1208 1240 1120 1290 c 128,-1,34
 1032 1340 1032 1340 918 1340 c 0,35,36
 778 1340 778 1340 665 1276 c 128,-1,37
 552 1212 552 1212 472.5 1104 c 128,-1,38
 393 996 393 996 350.5 862 c 128,-1,39
 308 728 308 728 308 588 c 0,40,41
 308 446 308 446 358.5 348.5 c 128,-1,42
 409 251 409 251 497.5 200.5 c 128,-1,43
 586 150 586 150 700 150 c 0,26,27
EndSplineSet
Substitution2: "'ss06' Style Set 6 in Latin lookup 52 subtable" Q.squared
Substitution2: "'ss05' Style Set 5 in Latin lookup 51 subtable" uni24C6
Position2: "'cpsp' Capital Spacing in Latin lookup 0 subtable" dx=0 dy=0 dh=0 dv=0
EndChar

StartChar: Q_rthook
Encoding: 586 586 384
Width: 1551
GlyphClass: 2
Flags: W
LayerCount: 2
Fore
SplineSet
1543 1490 m 1,0,-1
 1296 0 l 1,1,-1
 1121 0 l 1,2,-1
 1160 236 l 1,3,-1
 1154 236 l 1,4,5
 1078 114 1078 114 944.5 45 c 128,-1,6
 811 -24 811 -24 657 -24 c 0,7,8
 517 -24 517 -24 409 32.5 c 128,-1,9
 301 89 301 89 231.5 191.5 c 128,-1,10
 162 294 162 294 137 434 c 128,-1,11
 112 574 112 574 139 741 c 256,12,13
 166 908 166 908 236 1049 c 128,-1,14
 306 1190 306 1190 409.5 1294 c 128,-1,15
 513 1398 513 1398 641 1455 c 128,-1,16
 769 1512 769 1512 912 1512 c 0,17,18
 1067 1512 1067 1512 1177.5 1444 c 128,-1,19
 1288 1376 1288 1376 1323 1261 c 1,20,-1
 1330 1261 l 1,21,-1
 1368 1490 l 1,22,-1
 1543 1490 l 1,0,-1
688 150 m 0,23,24
 839 150 839 150 953.5 226.5 c 128,-1,25
 1068 303 1068 303 1142.5 437.5 c 128,-1,26
 1217 572 1217 572 1246 746 c 0,27,28
 1275 918 1275 918 1244.5 1053 c 128,-1,29
 1214 1188 1214 1188 1125 1265 c 128,-1,30
 1036 1342 1036 1342 888 1342 c 0,31,32
 750 1342 750 1342 632 1265.5 c 128,-1,33
 514 1189 514 1189 432.5 1054.5 c 128,-1,34
 351 920 351 920 323 745 c 0,35,36
 294 566 294 566 330.5 432 c 128,-1,37
 367 298 367 298 459.5 224 c 128,-1,38
 552 150 552 150 688 150 c 0,23,24
1338 -422 m 0,39,40
 1200 -422 1200 -422 1136 -358.5 c 128,-1,41
 1072 -295 1072 -295 1093 -170 c 2,42,-1
 1121 0 l 1,43,-1
 1296 0 l 1,44,-1
 1268 -170 l 2,45,46
 1259 -223 1259 -223 1286 -247 c 128,-1,47
 1313 -271 1313 -271 1386 -271 c 0,48,49
 1400 -271 1400 -271 1425 -270.5 c 128,-1,50
 1450 -270 1450 -270 1466 -269 c 1,51,-1
 1441 -418 l 1,52,53
 1423 -420 1423 -420 1397 -421 c 128,-1,54
 1371 -422 1371 -422 1338 -422 c 0,39,40
EndSplineSet
Position2: "'cpsp' Capital Spacing in Latin lookup 0 subtable" dx=0 dy=0 dh=0 dv=0
EndChar

StartChar: R
Encoding: 82 82 385
Width: 1307
GlyphClass: 2
Flags: W
AnchorPoint: "Anchor-1" 800 1490 basechar 0
AnchorPoint: "Anchor-0" 574 0 basechar 0
LayerCount: 2
Fore
SplineSet
74 0 m 1,0,-1
 321 1490 l 1,1,-1
 849 1490 l 2,2,3
 1015 1490 1015 1490 1119 1432.5 c 128,-1,4
 1223 1375 1223 1375 1265 1272.5 c 128,-1,5
 1307 1170 1307 1170 1284 1034 c 0,6,7
 1262 899 1262 899 1185.5 797 c 128,-1,8
 1109 695 1109 695 984.5 638.5 c 128,-1,9
 860 582 860 582 696 582 c 2,10,-1
 274 582 l 1,11,-1
 301 746 l 1,12,-1
 723 746 l 2,13,14
 834 746 834 746 913 782 c 128,-1,15
 992 818 992 818 1039 884 c 128,-1,16
 1086 950 1086 950 1101 1038 c 0,17,18
 1124 1176 1124 1176 1052.5 1251.5 c 128,-1,19
 981 1327 981 1327 817 1327 c 2,20,-1
 479 1327 l 1,21,-1
 259 0 l 1,22,-1
 74 0 l 1,0,-1
946 0 m 1,23,-1
 697 671 l 1,24,-1
 896 671 l 1,25,-1
 1151 0 l 1,26,-1
 946 0 l 1,23,-1
EndSplineSet
Substitution2: "'c2sc' Capitals to Small Capitals in Latin lookup 67 subtable" r.sc
Substitution2: "'ss06' Style Set 6 in Latin lookup 52 subtable" R.squared
Substitution2: "'ss05' Style Set 5 in Latin lookup 51 subtable" uni24C7
Substitution2: "'aalt' Access All Alternates in Latin lookup 0 subtable" r.sc
Position2: "'cpsp' Capital Spacing in Latin lookup 0 subtable" dx=0 dy=0 dh=0 dv=0
EndChar

StartChar: uni211F
Encoding: 8479 8479 395
Width: 1264
GlyphClass: 2
Flags: W
AnchorPoint: "Anchor-1" 800 1490 basechar 0
AnchorPoint: "Anchor-0" 574 0 basechar 0
LayerCount: 2
Fore
SplineSet
1166 1684 m 1,0,-1
 252 -352 l 1,1,-1
 143 -328 l 1,2,-1
 1016 1614 l 1,3,-1
 717 1708 l 1,4,-1
 775 1816 l 1,5,-1
 1166 1684 l 1,0,-1
74 0 m 1,6,-1
 321 1490 l 1,7,-1
 849 1490 l 2,8,9
 1015 1490 1015 1490 1119 1432.5 c 128,-1,10
 1223 1375 1223 1375 1265 1272.5 c 128,-1,11
 1307 1170 1307 1170 1284 1034 c 0,12,13
 1262 899 1262 899 1185.5 797 c 128,-1,14
 1109 695 1109 695 984.5 638.5 c 128,-1,15
 860 582 860 582 696 582 c 2,16,-1
 274 582 l 1,17,-1
 301 746 l 1,18,-1
 723 746 l 2,19,20
 834 746 834 746 913 782 c 128,-1,21
 992 818 992 818 1039 884 c 128,-1,22
 1086 950 1086 950 1101 1038 c 0,23,24
 1124 1176 1124 1176 1052.5 1251.5 c 128,-1,25
 981 1327 981 1327 817 1327 c 2,26,-1
 479 1327 l 1,27,-1
 259 0 l 1,28,-1
 74 0 l 1,6,-1
946 0 m 1,29,-1
 697 671 l 1,30,-1
 896 671 l 1,31,-1
 1151 0 l 1,32,-1
 946 0 l 1,29,-1
EndSplineSet
EndChar

StartChar: Rx
Encoding: 8478 8478 396
Width: 1375
Flags: W
LayerCount: 2
Fore
SplineSet
321 1490 m 1,0,-1
 822 1490 l 2,1,2
 999 1490 999 1490 1099 1427.5 c 128,-1,3
 1199 1365 1199 1365 1233.5 1261 c 128,-1,4
 1268 1157 1268 1157 1247 1031 c 0,5,6
 1228 916 1228 916 1173 828 c 128,-1,7
 1118 740 1118 740 1031.5 681.5 c 128,-1,8
 945 623 945 623 830 594 c 2,9,-1
 771 577 l 1,10,-1
 312 577 l 1,11,-1
 341 747 l 1,12,-1
 680 747 l 2,13,14
 808 747 808 747 888 784 c 128,-1,15
 968 821 968 821 1010 885.5 c 128,-1,16
 1052 950 1052 950 1065 1032 c 0,17,18
 1074 1080 1074 1080 1070 1131 c 128,-1,19
 1066 1182 1066 1182 1040 1226 c 128,-1,20
 1014 1270 1014 1270 955.5 1298 c 128,-1,21
 897 1326 897 1326 795 1326 c 2,22,-1
 479 1327 l 1,23,-1
 260 0 l 1,24,-1
 75 0 l 1,25,-1
 321 1490 l 1,0,-1
1014 0 m 1,26,-1
 647 655 l 1,27,-1
 853 655 l 1,28,-1
 1225 0 l 1,29,-1
 1014 0 l 1,26,-1
750 0 m 1,30,-1
 539 0 l 1,31,-1
 1128 655 l 1,32,-1
 1332 655 l 1,33,-1
 750 0 l 1,30,-1
EndSplineSet
EndChar

StartChar: uni024C
Encoding: 588 588 397
Width: 1281
GlyphClass: 2
Flags: W
AnchorPoint: "Anchor-1" 818 1490 basechar 0
AnchorPoint: "Anchor-0" 592 0 basechar 0
LayerCount: 2
Fore
SplineSet
292 582 m 1,0,-1
 16 582 l 1,1,-1
 42 744 l 1,2,-1
 318 744 l 1,3,-1
 292 582 l 1,0,-1
92 0 m 1,4,-1
 339 1490 l 1,5,-1
 867 1490 l 2,6,7
 1033 1490 1033 1490 1137 1432.5 c 128,-1,8
 1241 1375 1241 1375 1283 1272.5 c 128,-1,9
 1325 1170 1325 1170 1302 1034 c 0,10,11
 1280 899 1280 899 1203.5 797 c 128,-1,12
 1127 695 1127 695 1002.5 638.5 c 128,-1,13
 878 582 878 582 714 582 c 2,14,-1
 292 582 l 1,15,-1
 319 746 l 1,16,-1
 741 746 l 2,17,18
 852 746 852 746 931 782 c 128,-1,19
 1010 818 1010 818 1057 884 c 128,-1,20
 1104 950 1104 950 1119 1038 c 0,21,22
 1142 1176 1142 1176 1070.5 1251.5 c 128,-1,23
 999 1327 999 1327 835 1327 c 2,24,-1
 497 1327 l 1,25,-1
 277 0 l 1,26,-1
 92 0 l 1,4,-1
964 0 m 1,27,-1
 715 671 l 1,28,-1
 914 671 l 1,29,-1
 1169 0 l 1,30,-1
 964 0 l 1,27,-1
EndSplineSet
Position2: "'cpsp' Capital Spacing in Latin lookup 0 subtable" dx=0 dy=0 dh=0 dv=0
EndChar

StartChar: S
Encoding: 83 83 398
Width: 1286
GlyphClass: 2
Flags: W
AnchorPoint: "Anchor-3" 555 0 basechar 0
AnchorPoint: "Anchor-1" 797 1490 basechar 0
AnchorPoint: "Anchor-0" 555 0 basechar 0
LayerCount: 2
Fore
SplineSet
567 -25 m 256,0,1
 400 -25 400 -25 284 31.5 c 128,-1,2
 168 88 168 88 114.5 191.5 c 128,-1,3
 61 295 61 295 79 435 c 1,4,-1
 268 435 l 1,5,6
 256 340 256 340 291.5 274.5 c 128,-1,7
 327 209 327 209 400.5 175.5 c 128,-1,8
 474 142 474 142 576 142 c 0,9,10
 683 142 683 142 770.5 175.5 c 128,-1,11
 858 209 858 209 914.5 269.5 c 128,-1,12
 971 330 971 330 984 411 c 0,13,14
 995 477 995 477 968.5 521.5 c 128,-1,15
 942 566 942 566 882 597 c 128,-1,16
 822 628 822 628 732 653 c 2,17,-1
 565 700 l 2,18,19
 376 752 376 752 287 845 c 128,-1,20
 198 938 198 938 224 1094 c 0,21,22
 244 1220 244 1220 322.5 1314.5 c 128,-1,23
 401 1409 401 1409 522.5 1460.5 c 128,-1,24
 644 1512 644 1512 793 1512 c 0,25,26
 944 1512 944 1512 1052 1458 c 128,-1,27
 1160 1404 1160 1404 1212 1307.5 c 128,-1,28
 1264 1211 1264 1211 1246 1082 c 1,29,-1
 1066 1082 l 1,30,31
 1075 1206 1075 1206 996.5 1276 c 128,-1,32
 918 1346 918 1346 777 1346 c 0,33,34
 679 1346 679 1346 599.5 1313.5 c 128,-1,35
 520 1281 520 1281 468.5 1224 c 128,-1,36
 417 1167 417 1167 405 1094 c 0,37,38
 394 1028 394 1028 424.5 983.5 c 128,-1,39
 455 939 455 939 516 910 c 128,-1,40
 577 881 577 881 655 859 c 2,41,-1
 807 817 l 2,42,43
 887 796 887 796 958 762.5 c 128,-1,44
 1029 729 1029 729 1081 680.5 c 128,-1,45
 1133 632 1133 632 1156.5 563.5 c 128,-1,46
 1180 495 1180 495 1165 403 c 0,47,48
 1145 278 1145 278 1066 181.5 c 128,-1,49
 987 85 987 85 860.5 30 c 128,-1,50
 734 -25 734 -25 567 -25 c 256,0,1
EndSplineSet
Substitution2: "'ss06' Style Set 6 in Latin lookup 52 subtable" S.squared
Substitution2: "'ss05' Style Set 5 in Latin lookup 51 subtable" uni24C8
Position2: "'cpsp' Capital Spacing in Latin lookup 0 subtable" dx=0 dy=0 dh=0 dv=0
EndChar

StartChar: uni01A7
Encoding: 423 423 410
Width: 1287
GlyphClass: 2
Flags: W
AnchorPoint: "Anchor-3" 550 0 basechar 0
AnchorPoint: "Anchor-1" 803 1490 basechar 0
AnchorPoint: "Anchor-0" 550 0 basechar 0
LayerCount: 2
Fore
SplineSet
548 -25 m 0,0,1
 380 -25 380 -25 267 31.5 c 128,-1,2
 154 88 154 88 104 186 c 128,-1,3
 54 284 54 284 75 408 c 0,4,5
 90 499 90 499 135 566.5 c 128,-1,6
 180 634 180 634 247 682 c 128,-1,7
 314 730 314 730 396 763 c 128,-1,8
 478 796 478 796 566 818 c 2,9,-1
 732 860 l 2,10,11
 818 881 818 881 889 911 c 128,-1,12
 960 941 960 941 1006.5 986.5 c 128,-1,13
 1053 1032 1053 1032 1064 1100 c 0,14,15
 1075 1173 1075 1173 1045.5 1228.5 c 128,-1,16
 1016 1284 1016 1284 950.5 1315 c 128,-1,17
 885 1346 885 1346 790 1346 c 256,18,19
 695 1346 695 1346 613.5 1314 c 128,-1,20
 532 1282 532 1282 476 1223 c 128,-1,21
 420 1164 420 1164 399 1082 c 1,22,-1
 217 1082 l 1,23,24
 243 1210 243 1210 322.5 1307 c 128,-1,25
 402 1404 402 1404 524 1458 c 128,-1,26
 646 1512 646 1512 796 1512 c 0,27,28
 947 1512 947 1512 1055 1459.5 c 128,-1,29
 1163 1407 1163 1407 1214 1312 c 128,-1,30
 1265 1217 1265 1217 1243 1089 c 0,31,32
 1218 937 1218 937 1100.5 843.5 c 128,-1,33
 983 750 983 750 774 697 c 2,34,-1
 592 651 l 2,35,36
 495 627 495 627 423.5 595.5 c 128,-1,37
 352 564 352 564 310 518.5 c 128,-1,38
 268 473 268 473 257 405 c 0,39,40
 237 285 237 285 320.5 213.5 c 128,-1,41
 404 142 404 142 560 142 c 0,42,43
 664 142 664 142 752.5 175.5 c 128,-1,44
 841 209 841 209 902 274.5 c 128,-1,45
 963 340 963 340 982 435 c 1,46,-1
 1171 435 l 1,47,48
 1144 296 1144 296 1060 192.5 c 128,-1,49
 976 89 976 89 845.5 32 c 128,-1,50
 715 -25 715 -25 548 -25 c 0,0,1
EndSplineSet
Position2: "'cpsp' Capital Spacing in Latin lookup 0 subtable" dx=0 dy=0 dh=0 dv=0
EndChar

StartChar: uni1E9E
Encoding: 7838 7838 411
Width: 1367
Flags: W
LayerCount: 2
Fore
SplineSet
74 0 m 1,0,-1
 238 990 l 2,1,2
 267 1162 267 1162 337.5 1277.5 c 128,-1,3
 408 1393 408 1393 520 1451.5 c 128,-1,4
 632 1510 632 1510 784 1510 c 0,5,6
 893 1510 893 1510 979.5 1479 c 128,-1,7
 1066 1448 1066 1448 1134.5 1397 c 128,-1,8
 1203 1346 1203 1346 1260 1285 c 1,9,-1
 857 851 l 1,10,11
 1004 842 1004 842 1098.5 788 c 128,-1,12
 1193 734 1193 734 1231.5 640.5 c 128,-1,13
 1270 547 1270 547 1249 419 c 0,14,15
 1225 277 1225 277 1144.5 179.5 c 128,-1,16
 1064 82 1064 82 942.5 31 c 128,-1,17
 821 -20 821 -20 675 -20 c 0,18,19
 605 -20 605 -20 537 -8 c 128,-1,20
 469 4 469 4 403 31 c 1,21,-1
 488 193 l 1,22,23
 527 176 527 176 579.5 160 c 128,-1,24
 632 144 632 144 703 144 c 0,25,26
 844 144 844 144 933.5 218 c 128,-1,27
 1023 292 1023 292 1045 422 c 0,28,29
 1059 503 1059 503 1041 555 c 128,-1,30
 1023 607 1023 607 986.5 635.5 c 128,-1,31
 950 664 950 664 907.5 677 c 128,-1,32
 865 690 865 690 827.5 692.5 c 128,-1,33
 790 695 790 695 772 695 c 2,34,-1
 627 695 l 1,35,-1
 653 853 l 1,36,-1
 1014 1253 l 1,37,38
 972 1287 972 1287 914 1317 c 128,-1,39
 856 1347 856 1347 765 1347 c 0,40,41
 653 1347 653 1347 583 1295.5 c 128,-1,42
 513 1244 513 1244 476 1162.5 c 128,-1,43
 439 1081 439 1081 424 990 c 2,44,-1
 259 0 l 1,45,-1
 74 0 l 1,0,-1
EndSplineSet
Position2: "'cpsp' Capital Spacing in Latin lookup 0 subtable" dx=0 dy=0 dh=0 dv=0
EndChar

StartChar: T
Encoding: 84 84 412
Width: 1288
GlyphClass: 2
Flags: W
AnchorPoint: "Anchor-3" 556 0 basechar 0
AnchorPoint: "Anchor-1" 802 1490 basechar 0
AnchorPoint: "Anchor-0" 555 0 basechar 0
LayerCount: 2
Fore
SplineSet
205 1327 m 1,0,-1
 232 1490 l 1,1,-1
 1370 1490 l 1,2,-1
 1343 1327 l 1,3,-1
 867 1327 l 1,4,-1
 648 0 l 1,5,-1
 463 0 l 1,6,-1
 682 1327 l 1,7,-1
 205 1327 l 1,0,-1
EndSplineSet
Substitution2: "'c2sc' Capitals to Small Capitals in Latin lookup 67 subtable" t.sc
Substitution2: "'ss06' Style Set 6 in Latin lookup 52 subtable" T.squared
Substitution2: "'ss05' Style Set 5 in Latin lookup 51 subtable" uni24C9
Substitution2: "'aalt' Access All Alternates in Latin lookup 0 subtable" t.sc
Position2: "'cpsp' Capital Spacing in Latin lookup 0 subtable" dx=0 dy=0 dh=0 dv=0
EndChar

StartChar: uni01AC
Encoding: 428 428 420
Width: 1278
GlyphClass: 2
Flags: W
LayerCount: 2
Fore
SplineSet
142 1082 m 1,0,-1
 163 1211 l 2,1,2
 186 1350 186 1350 270.5 1420 c 128,-1,3
 355 1490 355 1490 505 1490 c 2,4,-1
 602 1490 l 1,5,-1
 574 1327 l 1,6,-1
 478 1327 l 2,7,8
 413 1327 413 1327 379 1299 c 128,-1,9
 345 1271 345 1271 335 1208 c 2,10,-1
 314 1082 l 1,11,-1
 142 1082 l 1,0,-1
574 1327 m 1,12,-1
 602 1490 l 1,13,-1
 1360 1490 l 1,14,-1
 1333 1327 l 1,15,-1
 865 1327 l 1,16,-1
 646 0 l 1,17,-1
 461 0 l 1,18,-1
 680 1327 l 1,19,-1
 574 1327 l 1,12,-1
EndSplineSet
Position2: "'cpsp' Capital Spacing in Latin lookup 0 subtable" dx=0 dy=0 dh=0 dv=0
EndChar

StartChar: uni01AC.base
Encoding: 60940 60940 421
Width: 1280
GlyphClass: 2
Flags: W
LayerCount: 2
Fore
SplineSet
576 1327 m 1,0,-1
 604 1490 l 1,1,-1
 1362 1490 l 1,2,-1
 1335 1327 l 1,3,-1
 867 1327 l 1,4,-1
 648 0 l 1,5,-1
 463 0 l 1,6,-1
 682 1327 l 1,7,-1
 576 1327 l 1,0,-1
EndSplineSet
EndChar

StartChar: Trthook
Encoding: 430 430 422
Width: 1288
GlyphClass: 2
Flags: W
AnchorPoint: "Anchor-3" 556 0 basechar 0
AnchorPoint: "Anchor-1" 802 1490 basechar 0
AnchorPoint: "Anchor-0" 555 0 basechar 0
LayerCount: 2
Fore
SplineSet
642 0 m 1,0,-1
 622 -120 l 2,1,2
 607 -207 607 -207 655 -233 c 128,-1,3
 703 -259 703 -259 773 -258 c 2,4,-1
 828 -258 l 1,5,-1
 802 -418 l 1,6,-1
 703 -418 l 2,7,8
 642 -418 642 -418 589 -399 c 128,-1,9
 536 -380 536 -380 498.5 -342.5 c 128,-1,10
 461 -305 461 -305 445 -249.5 c 128,-1,11
 429 -194 429 -194 441 -122 c 2,12,-1
 462 0 l 1,13,-1
 642 0 l 1,0,-1
205 1327 m 1,14,-1
 232 1490 l 1,15,-1
 1370 1490 l 1,16,-1
 1343 1327 l 1,17,-1
 867 1327 l 1,18,-1
 648 0 l 1,19,-1
 463 0 l 1,20,-1
 682 1327 l 1,21,-1
 205 1327 l 1,14,-1
EndSplineSet
Position2: "'cpsp' Capital Spacing in Latin lookup 0 subtable" dx=0 dy=0 dh=0 dv=0
EndChar

StartChar: uni023E
Encoding: 574 574 423
Width: 1288
GlyphClass: 2
Flags: W
AnchorPoint: "Anchor-3" 556 0 basechar 0
AnchorPoint: "Anchor-1" 802 1490 basechar 0
AnchorPoint: "Anchor-0" 555 0 basechar 0
LayerCount: 2
Fore
SplineSet
124 -190 m 1,0,-1
 1098 1678 l 1,1,-1
 1263 1678 l 1,2,-1
 290 -190 l 1,3,-1
 124 -190 l 1,0,-1
205 1327 m 1,4,-1
 232 1490 l 1,5,-1
 1370 1490 l 1,6,-1
 1343 1327 l 1,7,-1
 867 1327 l 1,8,-1
 648 0 l 1,9,-1
 463 0 l 1,10,-1
 682 1327 l 1,11,-1
 205 1327 l 1,4,-1
EndSplineSet
Position2: "'cpsp' Capital Spacing in Latin lookup 0 subtable" dx=0 dy=0 dh=0 dv=0
EndChar

StartChar: U
Encoding: 85 85 425
Width: 1482
GlyphClass: 2
Flags: W
AnchorPoint: "Anchor-4" 1315 501 basechar 0
AnchorPoint: "Anchor-1" 898 1490 basechar 0
AnchorPoint: "Anchor-0" 651 0 basechar 0
LayerCount: 2
Fore
SplineSet
658 -24 m 0,0,1
 480 -24 480 -24 358 46.5 c 128,-1,2
 236 117 236 117 183 238.5 c 128,-1,3
 130 360 130 360 155 513 c 2,4,-1
 317 1490 l 1,5,-1
 502 1490 l 1,6,-1
 341 515 l 2,7,8
 323 406 323 406 355.5 323.5 c 128,-1,9
 388 241 388 241 467 194.5 c 128,-1,10
 546 148 546 148 665 148 c 0,11,12
 790 148 790 148 889.5 197.5 c 128,-1,13
 989 247 989 247 1052.5 333 c 128,-1,14
 1116 419 1116 419 1134 528 c 2,15,-1
 1293 1490 l 1,16,-1
 1478 1490 l 1,17,-1
 1315 501 l 2,18,19
 1290 347 1290 347 1199.5 228.5 c 128,-1,20
 1109 110 1109 110 970 43 c 128,-1,21
 831 -24 831 -24 658 -24 c 0,0,1
EndSplineSet
Substitution2: "'ss06' Style Set 6 in Latin lookup 52 subtable" U.squared
Substitution2: "'ss05' Style Set 5 in Latin lookup 51 subtable" uni24CA
Position2: "'cpsp' Capital Spacing in Latin lookup 0 subtable" dx=0 dy=0 dh=0 dv=0
EndChar

StartChar: Uhorn
Encoding: 431 431 426
Width: 1479
GlyphClass: 2
Flags: W
AnchorPoint: "Anchor-4" 1315 501 basechar 0
AnchorPoint: "Anchor-1" 898 1490 basechar 0
AnchorPoint: "Anchor-0" 651 0 basechar 0
LayerCount: 2
Fore
SplineSet
1272 1348 m 1,0,-1
 1296 1490 l 1,1,-1
 1473 1490 l 2,2,3
 1491 1490 1491 1490 1494 1508 c 2,4,-1
 1527 1714 l 1,5,-1
 1697 1714 l 1,6,-1
 1665 1518 l 2,7,8
 1651 1433 1651 1433 1602 1390.5 c 128,-1,9
 1553 1348 1553 1348 1467 1348 c 2,10,-1
 1272 1348 l 1,0,-1
658 -24 m 0,11,12
 480 -24 480 -24 358 46.5 c 128,-1,13
 236 117 236 117 183 238.5 c 128,-1,14
 130 360 130 360 155 513 c 2,15,-1
 317 1490 l 1,16,-1
 502 1490 l 1,17,-1
 341 515 l 2,18,19
 323 406 323 406 355.5 323.5 c 128,-1,20
 388 241 388 241 467 194.5 c 128,-1,21
 546 148 546 148 665 148 c 0,22,23
 790 148 790 148 889.5 197.5 c 128,-1,24
 989 247 989 247 1052.5 333 c 128,-1,25
 1116 419 1116 419 1134 528 c 2,26,-1
 1293 1490 l 1,27,-1
 1478 1490 l 1,28,-1
 1315 501 l 2,29,30
 1290 347 1290 347 1199.5 228.5 c 128,-1,31
 1109 110 1109 110 970 43 c 128,-1,32
 831 -24 831 -24 658 -24 c 0,11,12
EndSplineSet
Position2: "'cpsp' Capital Spacing in Latin lookup 0 subtable" dx=0 dy=0 dh=0 dv=0
EndChar

StartChar: uni0244
Encoding: 580 580 456
Width: 1486
GlyphClass: 2
Flags: W
AnchorPoint: "Anchor-4" 1315 501 basechar 0
AnchorPoint: "Anchor-1" 898 1490 basechar 0
AnchorPoint: "Anchor-0" 651 0 basechar 0
LayerCount: 2
Fore
SplineSet
1561 864 m 1,0,-1
 1542 744 l 1,1,-1
 12 744 l 1,2,-1
 31 864 l 1,3,-1
 1561 864 l 1,0,-1
658 -24 m 0,4,5
 480 -24 480 -24 358 46.5 c 128,-1,6
 236 117 236 117 183 238.5 c 128,-1,7
 130 360 130 360 155 513 c 2,8,-1
 317 1490 l 1,9,-1
 502 1490 l 1,10,-1
 341 515 l 2,11,12
 323 406 323 406 355.5 323.5 c 128,-1,13
 388 241 388 241 467 194.5 c 128,-1,14
 546 148 546 148 665 148 c 0,15,16
 790 148 790 148 889.5 197.5 c 128,-1,17
 989 247 989 247 1052.5 333 c 128,-1,18
 1116 419 1116 419 1134 528 c 2,19,-1
 1293 1490 l 1,20,-1
 1478 1490 l 1,21,-1
 1315 501 l 2,22,23
 1290 347 1290 347 1199.5 228.5 c 128,-1,24
 1109 110 1109 110 970 43 c 128,-1,25
 831 -24 831 -24 658 -24 c 0,4,5
EndSplineSet
Position2: "'cpsp' Capital Spacing in Latin lookup 0 subtable" dx=0 dy=0 dh=0 dv=0
EndChar

StartChar: V
Encoding: 86 86 457
Width: 1376
GlyphClass: 2
Flags: W
AnchorPoint: "Anchor-1" 844 1490 basechar 0
AnchorPoint: "Anchor-0" 597 0 basechar 0
LayerCount: 2
Fore
SplineSet
495 0 m 1,0,-1
 193 1490 l 1,1,-1
 383 1490 l 1,2,-1
 554 599 l 2,3,4
 569 518 569 518 588.5 396.5 c 128,-1,5
 608 275 608 275 634 89 c 1,6,-1
 591 89 l 1,7,8
 677 273 677 273 737.5 397.5 c 128,-1,9
 798 522 798 522 838 599 c 2,10,-1
 1296 1490 l 1,11,-1
 1496 1490 l 1,12,-1
 706 0 l 1,13,-1
 495 0 l 1,0,-1
EndSplineSet
Substitution2: "'ss06' Style Set 6 in Latin lookup 52 subtable" V.squared
Substitution2: "'ss05' Style Set 5 in Latin lookup 51 subtable" uni24CB
Position2: "'cpsp' Capital Spacing in Latin lookup 0 subtable" dx=0 dy=0 dh=0 dv=0
EndChar

StartChar: W
Encoding: 87 87 460
Width: 1981
GlyphClass: 2
Flags: W
AnchorPoint: "Anchor-1" 1147 1490 basechar 0
AnchorPoint: "Anchor-0" 900 0 basechar 0
LayerCount: 2
Fore
SplineSet
352 0 m 1,0,-1
 193 1490 l 1,1,-1
 377 1490 l 1,2,-1
 462 568 l 2,3,4
 469 496 469 496 474 422 c 128,-1,5
 479 348 479 348 482.5 273.5 c 128,-1,6
 486 199 486 199 488 122 c 1,7,-1
 465 122 l 1,8,9
 493 199 493 199 521.5 273.5 c 128,-1,10
 550 348 550 348 580 422 c 128,-1,11
 610 496 610 496 641 568 c 2,12,-1
 1037 1490 l 1,13,-1
 1249 1490 l 1,14,-1
 1338 568 l 2,15,16
 1345 496 1345 496 1351 422 c 128,-1,17
 1357 348 1357 348 1361 273.5 c 128,-1,18
 1365 199 1365 199 1368 122 c 1,19,-1
 1342 122 l 1,20,21
 1370 199 1370 199 1398.5 273.5 c 128,-1,22
 1427 348 1427 348 1457 422 c 128,-1,23
 1487 496 1487 496 1518 568 c 2,24,-1
 1908 1490 l 1,25,-1
 2102 1490 l 1,26,-1
 1447 0 l 1,27,-1
 1231 0 l 1,28,-1
 1131 952 l 2,29,30
 1121 1049 1121 1049 1115.5 1152 c 128,-1,31
 1110 1255 1110 1255 1108 1378 c 1,32,-1
 1147 1378 l 1,33,34
 1106 1259 1106 1259 1067 1156 c 128,-1,35
 1028 1053 1028 1053 984 952 c 2,36,-1
 569 0 l 1,37,-1
 352 0 l 1,0,-1
EndSplineSet
Substitution2: "'ss06' Style Set 6 in Latin lookup 52 subtable" W.squared
Substitution2: "'ss05' Style Set 5 in Latin lookup 51 subtable" uni24CC
Position2: "'cpsp' Capital Spacing in Latin lookup 0 subtable" dx=0 dy=0 dh=0 dv=0
EndChar

StartChar: X
Encoding: 88 88 467
Width: 1360
GlyphClass: 2
Flags: W
AnchorPoint: "Anchor-1" 837 1490 basechar 0
AnchorPoint: "Anchor-0" 590 0 basechar 0
LayerCount: 2
Fore
SplineSet
-49 0 m 1,0,-1
 670 831 l 1,1,-1
 647 694 l 1,2,-1
 231 1490 l 1,3,-1
 440 1490 l 1,4,-1
 601 1171 l 2,5,6
 631 1113 631 1113 654.5 1065 c 128,-1,7
 678 1017 678 1017 699 970 c 128,-1,8
 720 923 720 923 742 866 c 1,9,-1
 711 866 l 1,10,11
 753 922 753 922 790 969.5 c 128,-1,12
 827 1017 827 1017 866.5 1065.5 c 128,-1,13
 906 1114 906 1114 957 1171 c 2,14,-1
 1235 1490 l 1,15,-1
 1448 1490 l 1,16,-1
 768 702 l 1,17,-1
 791 838 l 1,18,-1
 1229 0 l 1,19,-1
 1023 0 l 1,20,-1
 824 381 l 2,21,22
 796 435 796 435 773.5 480 c 128,-1,23
 751 525 751 525 731 570 c 128,-1,24
 711 615 711 615 689 668 c 1,25,-1
 729 668 l 1,26,27
 690 615 690 615 654.5 570 c 128,-1,28
 619 525 619 525 581 480 c 128,-1,29
 543 435 543 435 497 381 c 2,30,-1
 169 0 l 1,31,-1
 -49 0 l 1,0,-1
EndSplineSet
Substitution2: "'ss06' Style Set 6 in Latin lookup 52 subtable" X.squared
Substitution2: "'ss05' Style Set 5 in Latin lookup 51 subtable" uni24CD
Position2: "'cpsp' Capital Spacing in Latin lookup 0 subtable" dx=0 dy=0 dh=0 dv=0
EndChar

StartChar: Y
Encoding: 89 89 473
Width: 1353
GlyphClass: 2
Flags: W
AnchorPoint: "Anchor-4" 679 0 basechar 0
AnchorPoint: "Anchor-1" 833 1490 basechar 0
AnchorPoint: "Anchor-0" 586 0 basechar 0
LayerCount: 2
Fore
SplineSet
494 0 m 1,0,-1
 595 612 l 1,1,-1
 193 1490 l 1,2,-1
 393 1490 l 1,3,-1
 610 1009 l 2,4,5
 645 932 645 932 673 859.5 c 128,-1,6
 701 787 701 787 728 695 c 1,7,-1
 651 695 l 1,8,9
 708 788 708 788 760.5 861 c 128,-1,10
 813 934 813 934 871 1009 c 2,11,-1
 1247 1490 l 1,12,-1
 1474 1490 l 1,13,-1
 780 612 l 1,14,-1
 679 0 l 1,15,-1
 494 0 l 1,0,-1
EndSplineSet
Substitution2: "'c2sc' Capitals to Small Capitals in Latin lookup 67 subtable" y.sc
Substitution2: "'ss06' Style Set 6 in Latin lookup 52 subtable" Y.squared
Substitution2: "'ss05' Style Set 5 in Latin lookup 51 subtable" uni24CE
Substitution2: "'aalt' Access All Alternates in Latin lookup 0 subtable" y.sc
Position2: "'cpsp' Capital Spacing in Latin lookup 0 subtable" dx=0 dy=0 dh=0 dv=0
EndChar

StartChar: uni01B3
Encoding: 435 435 474
Width: 1421
Flags: W
LayerCount: 2
Fore
SplineSet
690 762 m 1,0,-1
 696 796 l 1,1,-1
 731 796 l 1,2,-1
 726 762 l 1,3,-1
 690 762 l 1,0,-1
197 1490 m 1,4,-1
 408 1490 l 1,5,-1
 713 782 l 1,6,-1
 1137 1341 l 2,7,8
 1200 1423 1200 1423 1270.5 1464 c 128,-1,9
 1341 1505 1341 1505 1413 1508.5 c 128,-1,10
 1485 1512 1485 1512 1551 1478 c 1,11,-1
 1478 1329 l 1,12,13
 1430 1351 1430 1351 1380 1338.5 c 128,-1,14
 1330 1326 1330 1326 1280 1262 c 2,15,-1
 775 613 l 1,16,-1
 674 0 l 1,17,-1
 489 0 l 1,18,-1
 591 613 l 1,19,-1
 197 1490 l 1,4,-1
EndSplineSet
Position2: "'cpsp' Capital Spacing in Latin lookup 0 subtable" dx=0 dy=0 dh=0 dv=0
EndChar

StartChar: uni024E
Encoding: 590 590 484
Width: 1336
GlyphClass: 2
Flags: W
AnchorPoint: "Anchor-4" 679 0 basechar 0
AnchorPoint: "Anchor-1" 833 1490 basechar 0
AnchorPoint: "Anchor-0" 586 0 basechar 0
LayerCount: 2
Fore
SplineSet
1453 1184 m 1,0,-1
 1433 1064 l 1,1,-1
 77 1064 l 1,2,-1
 97 1184 l 1,3,-1
 1453 1184 l 1,0,-1
494 0 m 1,4,-1
 595 612 l 1,5,-1
 193 1490 l 1,6,-1
 393 1490 l 1,7,-1
 610 1009 l 2,8,9
 645 932 645 932 673 859.5 c 128,-1,10
 701 787 701 787 728 695 c 1,11,-1
 651 695 l 1,12,13
 708 788 708 788 760.5 861 c 128,-1,14
 813 934 813 934 871 1009 c 2,15,-1
 1247 1490 l 1,16,-1
 1474 1490 l 1,17,-1
 780 612 l 1,18,-1
 679 0 l 1,19,-1
 494 0 l 1,4,-1
EndSplineSet
Position2: "'cpsp' Capital Spacing in Latin lookup 0 subtable" dx=0 dy=0 dh=0 dv=0
EndChar

StartChar: Z
Encoding: 90 90 497
Width: 1253
GlyphClass: 2
Flags: W
AnchorPoint: "Anchor-1" 784 1490 basechar 0
AnchorPoint: "Anchor-0" 534 0 basechar 0
LayerCount: 2
Fore
SplineSet
25 0 m 1,0,-1
 47 132 l 1,1,-1
 1042 1327 l 1,2,-1
 236 1327 l 1,3,-1
 264 1490 l 1,4,-1
 1296 1490 l 1,5,-1
 1274 1356 l 1,6,-1
 278 164 l 1,7,-1
 1084 164 l 1,8,-1
 1057 0 l 1,9,-1
 25 0 l 1,0,-1
EndSplineSet
Substitution2: "'ss06' Style Set 6 in Latin lookup 52 subtable" Z.squared
Substitution2: "'ss05' Style Set 5 in Latin lookup 51 subtable" uni24CF
Position2: "'cpsp' Capital Spacing in Latin lookup 0 subtable" dx=0 dy=0 dh=0 dv=0
EndChar

StartChar: uni0224
Encoding: 548 548 504
Width: 1253
GlyphClass: 2
Flags: W
AnchorPoint: "Anchor-1" 784 1490 basechar 0
AnchorPoint: "Anchor-0" 534 0 basechar 0
LayerCount: 2
Fore
SplineSet
593 -418 m 1,0,-1
 619 -260 l 1,1,2
 635 -262 635 -262 660 -262.5 c 128,-1,3
 685 -263 685 -263 698 -263 c 0,4,5
 770 -263 770 -263 803 -239.5 c 128,-1,6
 836 -216 836 -216 845 -162 c 2,7,-1
 872 0 l 1,8,-1
 1057 0 l 1,9,-1
 1028 -170 l 2,10,11
 1007 -295 1007 -295 922 -358.5 c 128,-1,12
 837 -422 837 -422 699 -422 c 0,13,14
 666 -422 666 -422 638.5 -421 c 128,-1,15
 611 -420 611 -420 593 -418 c 1,0,-1
25 0 m 1,16,-1
 47 132 l 1,17,-1
 1042 1327 l 1,18,-1
 236 1327 l 1,19,-1
 264 1490 l 1,20,-1
 1296 1490 l 1,21,-1
 1274 1356 l 1,22,-1
 278 164 l 1,23,-1
 1084 164 l 1,24,-1
 1057 0 l 1,25,-1
 25 0 l 1,16,-1
EndSplineSet
Position2: "'cpsp' Capital Spacing in Latin lookup 0 subtable" dx=0 dy=0 dh=0 dv=0
EndChar

StartChar: uni2C7F
Encoding: 11391 11391 507
Width: 1272
Flags: W
LayerCount: 2
Fore
SplineSet
836 -432 m 0,0,1
 760 -432 760 -432 702 -400.5 c 128,-1,2
 644 -369 644 -369 596 -320 c 128,-1,3
 548 -271 548 -271 501 -215.5 c 128,-1,4
 454 -160 454 -160 400.5 -111 c 128,-1,5
 347 -62 347 -62 278 -31 c 128,-1,6
 209 0 209 0 117 0 c 2,7,-1
 25 0 l 1,8,-1
 47 132 l 1,9,-1
 1046 1327 l 1,10,-1
 236 1327 l 1,11,-1
 264 1490 l 1,12,-1
 1296 1490 l 1,13,-1
 1274 1357 l 1,14,-1
 266 151 l 1,15,16
 374 131 374 131 447.5 83 c 128,-1,17
 521 35 521 35 574.5 -24.5 c 128,-1,18
 628 -84 628 -84 674.5 -138.5 c 128,-1,19
 721 -193 721 -193 773 -228.5 c 128,-1,20
 825 -264 825 -264 897 -264 c 0,21,22
 938 -264 938 -264 970 -258.5 c 128,-1,23
 1002 -253 1002 -253 1034 -246 c 1,24,-1
 1007 -410 l 1,25,26
 981 -420 981 -420 934.5 -426 c 128,-1,27
 888 -432 888 -432 836 -432 c 0,0,1
EndSplineSet
Position2: "'cpsp' Capital Spacing in Latin lookup 0 subtable" dx=0 dy=0 dh=0 dv=0
EndChar

StartChar: a
Encoding: 97 97 508
Width: 1208
GlyphClass: 2
Flags: W
AnchorPoint: "Anchor-4" 975 0 basechar 0
AnchorPoint: "Anchor-1" 686 1087 basechar 0
AnchorPoint: "Anchor-0" 500 0 basechar 0
LayerCount: 2
Fore
SplineSet
460 -22 m 0,0,1
 322 -22 322 -22 228.5 48.5 c 128,-1,2
 135 119 135 119 97.5 246 c 128,-1,3
 60 373 60 373 88 543 c 256,4,5
 116 713 116 713 196 839 c 128,-1,6
 276 965 276 965 393 1034.5 c 128,-1,7
 510 1104 510 1104 648 1104 c 0,8,9
 736 1104 736 1104 795.5 1076.5 c 128,-1,10
 855 1049 855 1049 891 1007 c 128,-1,11
 927 965 927 965 946 920 c 1,12,-1
 954 920 l 1,13,-1
 982 1087 l 1,14,-1
 1155 1087 l 1,15,-1
 975 0 l 1,16,-1
 805 0 l 1,17,-1
 832 167 l 1,18,-1
 820 167 l 1,19,20
 784 120 784 120 733.5 76.5 c 128,-1,21
 683 33 683 33 615.5 5.5 c 128,-1,22
 548 -22 548 -22 460 -22 c 0,0,1
514 135 m 0,23,24
 614 135 614 135 693 186.5 c 128,-1,25
 772 238 772 238 825 330 c 128,-1,26
 878 422 878 422 898 544 c 256,27,28
 918 666 918 666 895.5 756.5 c 128,-1,29
 873 847 873 847 810.5 897.5 c 128,-1,30
 748 948 748 948 648 948 c 0,31,32
 549 948 549 948 470 897.5 c 128,-1,33
 391 847 391 847 338.5 756.5 c 128,-1,34
 286 666 286 666 265 544 c 0,35,36
 245 421 245 421 268 329 c 128,-1,37
 291 237 291 237 353.5 186 c 128,-1,38
 416 135 416 135 514 135 c 0,23,24
EndSplineSet
Substitution2: "'smcp' Lowercase to Small Capitals in Latin lookup 68 subtable" a.sc
Substitution2: "'c2sc' Capitals to Small Capitals in Latin lookup 67 subtable" a.sc
Substitution2: "Single Substitution lookup 44 subtable" ordfeminine
Substitution2: "'sups' Superscript in Latin lookup 39 subtable" a.sups
Substitution2: "'subs' Subscript in Latin lookup 38 subtable" a.subs
Substitution2: "'sinf' Scientific Inferiors in Latin lookup 18 subtable" a.subs
AlternateSubs2: "'aalt' Access All Alternates in Latin lookup 1 subtable" ordfeminine a.sups a.subs a.sc
EndChar

StartChar: aturn
Encoding: 592 592 540
Width: 1208
GlyphClass: 2
Flags: W
AnchorPoint: "Anchor-4" 233 1087 basechar 0
AnchorPoint: "Anchor-1" 716 1087 basechar 0
AnchorPoint: "Anchor-0" 536 0 basechar 0
LayerCount: 2
Fore
SplineSet
748 1109 m 0,0,1
 887 1109 887 1109 980 1038.5 c 128,-1,2
 1073 968 1073 968 1111 841.5 c 128,-1,3
 1149 715 1149 715 1120 545 c 0,4,5
 1092 375 1092 375 1012 248.5 c 128,-1,6
 932 122 932 122 815.5 52.5 c 128,-1,7
 699 -17 699 -17 560 -17 c 0,8,9
 472 -17 472 -17 412.5 10.5 c 128,-1,10
 353 38 353 38 317 80.5 c 128,-1,11
 281 123 281 123 262 168 c 1,12,-1
 254 168 l 1,13,-1
 226 0 l 1,14,-1
 53 0 l 1,15,-1
 233 1087 l 1,16,-1
 403 1087 l 1,17,-1
 376 921 l 1,18,-1
 388 921 l 1,19,20
 424 968 424 968 474.5 1011 c 128,-1,21
 525 1054 525 1054 593 1081.5 c 128,-1,22
 661 1109 661 1109 748 1109 c 0,0,1
694 952 m 0,23,24
 594 952 594 952 515 900.5 c 128,-1,25
 436 849 436 849 383.5 757.5 c 128,-1,26
 331 666 331 666 310 544 c 0,27,28
 290 422 290 422 312.5 331 c 128,-1,29
 335 240 335 240 397.5 190 c 128,-1,30
 460 140 460 140 560 140 c 256,31,32
 660 140 660 140 738.5 190 c 128,-1,33
 817 240 817 240 870 331 c 128,-1,34
 923 422 923 422 943 544 c 0,35,36
 963 668 963 668 940 759.5 c 128,-1,37
 917 851 917 851 855 901.5 c 128,-1,38
 793 952 793 952 694 952 c 0,23,24
EndSplineSet
EndChar

StartChar: ae
Encoding: 230 230 544
Width: 1811
GlyphClass: 2
Flags: W
AnchorPoint: "Anchor-1" 967 1087 basechar 0
LayerCount: 2
Fore
SplineSet
375 -16 m 0,0,1
 202 -16 202 -16 113.5 75 c 128,-1,2
 25 166 25 166 51 320 c 0,3,4
 65 406 65 406 115 472 c 128,-1,5
 165 538 165 538 258.5 575.5 c 128,-1,6
 352 613 352 613 494 613 c 0,7,8
 549 613 549 613 597 611.5 c 128,-1,9
 645 610 645 610 701.5 608 c 128,-1,10
 758 606 758 606 836 606 c 1,11,-1
 824 470 l 1,12,13
 746 470 746 470 662.5 471.5 c 128,-1,14
 579 473 579 473 505 473 c 0,15,16
 395 473 395 473 316.5 437.5 c 128,-1,17
 238 402 238 402 224 315 c 0,18,19
 210 227 210 227 255.5 182.5 c 128,-1,20
 301 138 301 138 405 138 c 0,21,22
 511 138 511 138 583.5 176.5 c 128,-1,23
 656 215 656 215 697.5 276.5 c 128,-1,24
 739 338 739 338 750 406 c 2,25,-1
 811 750 l 2,26,27
 830 852 830 852 779 904 c 128,-1,28
 728 956 728 956 605 956 c 0,29,30
 533 956 533 956 475.5 933 c 128,-1,31
 418 910 418 910 379.5 868.5 c 128,-1,32
 341 827 341 827 326 770 c 1,33,-1
 148 771 l 1,34,35
 169 872 169 872 235.5 948 c 128,-1,36
 302 1024 302 1024 402.5 1066.5 c 128,-1,37
 503 1109 503 1109 626 1109 c 0,38,39
 751 1109 751 1109 836.5 1064 c 128,-1,40
 922 1019 922 1019 960 939.5 c 128,-1,41
 998 860 998 860 980 754 c 2,42,-1
 896 250 l 1,43,-1
 879 250 l 1,44,45
 839 172 839 172 770 112.5 c 128,-1,46
 701 53 701 53 603 18.5 c 128,-1,47
 505 -16 505 -16 375 -16 c 0,0,1
1192 -24 m 0,48,49
 1061 -24 1061 -24 968 27.5 c 128,-1,50
 875 79 875 79 826 180.5 c 128,-1,51
 777 282 777 282 777 432 c 0,52,53
 777 579 777 579 819.5 703 c 128,-1,54
 862 827 862 827 940 918.5 c 128,-1,55
 1018 1010 1018 1010 1122.5 1060.5 c 128,-1,56
 1227 1111 1227 1111 1352 1111 c 0,57,58
 1461 1111 1461 1111 1542.5 1074 c 128,-1,59
 1624 1037 1624 1037 1669.5 967.5 c 128,-1,60
 1715 898 1715 898 1715 802 c 0,61,62
 1715 711 1715 711 1665.5 647 c 128,-1,63
 1616 583 1616 583 1514 543.5 c 128,-1,64
 1412 504 1412 504 1256 486 c 128,-1,65
 1100 468 1100 468 886 468 c 1,66,-1
 906 602 l 1,67,68
 1089 602 1089 602 1211 613.5 c 128,-1,69
 1333 625 1333 625 1405 651 c 128,-1,70
 1477 677 1477 677 1508 719 c 128,-1,71
 1539 761 1539 761 1539 822 c 0,72,73
 1539 887 1539 887 1487.5 920.5 c 128,-1,74
 1436 954 1436 954 1349 954 c 0,75,76
 1246 954 1246 954 1163.5 908 c 128,-1,77
 1081 862 1081 862 1027 780.5 c 128,-1,78
 973 699 973 699 956 593 c 0,79,80
 949 550 949 550 943.5 517.5 c 128,-1,81
 938 485 938 485 935 460 c 128,-1,82
 932 435 932 435 932 416 c 0,83,84
 932 278 932 278 996 205 c 128,-1,85
 1060 132 1060 132 1192 132 c 0,86,87
 1304 132 1304 132 1389 183 c 128,-1,88
 1474 234 1474 234 1514 314 c 1,89,-1
 1686 292 l 1,90,91
 1625 142 1625 142 1494.5 59 c 128,-1,92
 1364 -24 1364 -24 1192 -24 c 0,48,49
EndSplineSet
EndChar

StartChar: b
Encoding: 98 98 548
Width: 1206
GlyphClass: 2
Flags: W
AnchorPoint: "Anchor-1" 766 1283 basechar 0
AnchorPoint: "Anchor-0" 553 0 basechar 0
LayerCount: 2
Fore
SplineSet
570 -22 m 0,0,1
 481 -22 481 -22 420.5 6 c 128,-1,2
 360 34 360 34 322 78.5 c 128,-1,3
 284 123 284 123 261 172 c 1,4,-1
 251 172 l 1,5,-1
 222 0 l 1,6,-1
 52 0 l 1,7,-1
 299 1490 l 1,8,-1
 474 1490 l 1,9,-1
 380 921 l 1,10,-1
 388 921 l 1,11,12
 422 968 422 968 470 1009.5 c 128,-1,13
 518 1051 518 1051 583 1077.5 c 128,-1,14
 648 1104 648 1104 734 1104 c 0,15,16
 856 1104 856 1104 944 1050.5 c 128,-1,17
 1032 997 1032 997 1080 899 c 128,-1,18
 1128 801 1128 801 1128 666 c 0,19,20
 1128 540 1128 540 1090 417 c 128,-1,21
 1052 294 1052 294 980 195 c 128,-1,22
 908 96 908 96 804.5 37 c 128,-1,23
 701 -22 701 -22 570 -22 c 0,0,1
547 135 m 0,24,25
 645 135 645 135 720.5 181.5 c 128,-1,26
 796 228 796 228 848 305 c 128,-1,27
 900 382 900 382 926 475.5 c 128,-1,28
 952 569 952 569 952 663 c 0,29,30
 952 796 952 796 888.5 872 c 128,-1,31
 825 948 825 948 704 948 c 0,32,33
 605 948 605 948 529 902 c 128,-1,34
 453 856 453 856 401.5 779.5 c 128,-1,35
 350 703 350 703 324 610 c 128,-1,36
 298 517 298 517 298 424 c 0,37,38
 298 291 298 291 362 213 c 128,-1,39
 426 135 426 135 547 135 c 0,24,25
EndSplineSet
Substitution2: "'sups' Superscript in Latin lookup 39 subtable" b.sups
Substitution2: "'subs' Subscript in Latin lookup 38 subtable" b.subs
Substitution2: "'sinf' Scientific Inferiors in Latin lookup 18 subtable" b.subs
AlternateSubs2: "'aalt' Access All Alternates in Latin lookup 1 subtable" b.sups b.subs
EndChar

StartChar: uni0183
Encoding: 387 387 550
Width: 1206
GlyphClass: 2
Flags: W
AnchorPoint: "Anchor-1" 766 1283 basechar 0
AnchorPoint: "Anchor-0" 553 0 basechar 0
LayerCount: 2
Fore
SplineSet
364 1338 m 1,0,-1
 299 1490 l 1,1,-1
 1126 1490 l 1,2,-1
 1101 1338 l 1,3,-1
 364 1338 l 1,0,-1
570 -22 m 0,4,5
 481 -22 481 -22 420.5 6 c 128,-1,6
 360 34 360 34 322 78.5 c 128,-1,7
 284 123 284 123 261 172 c 1,8,-1
 251 172 l 1,9,-1
 222 0 l 1,10,-1
 52 0 l 1,11,-1
 299 1490 l 1,12,-1
 474 1490 l 1,13,-1
 380 921 l 1,14,-1
 388 921 l 1,15,16
 422 968 422 968 470 1009.5 c 128,-1,17
 518 1051 518 1051 583 1077.5 c 128,-1,18
 648 1104 648 1104 734 1104 c 0,19,20
 856 1104 856 1104 944 1050.5 c 128,-1,21
 1032 997 1032 997 1080 899 c 128,-1,22
 1128 801 1128 801 1128 666 c 0,23,24
 1128 540 1128 540 1090 417 c 128,-1,25
 1052 294 1052 294 980 195 c 128,-1,26
 908 96 908 96 804.5 37 c 128,-1,27
 701 -22 701 -22 570 -22 c 0,4,5
547 135 m 0,28,29
 645 135 645 135 720.5 181.5 c 128,-1,30
 796 228 796 228 848 305 c 128,-1,31
 900 382 900 382 926 475.5 c 128,-1,32
 952 569 952 569 952 663 c 0,33,34
 952 796 952 796 888.5 872 c 128,-1,35
 825 948 825 948 704 948 c 0,36,37
 605 948 605 948 529 902 c 128,-1,38
 453 856 453 856 401.5 779.5 c 128,-1,39
 350 703 350 703 324 610 c 128,-1,40
 298 517 298 517 298 424 c 0,41,42
 298 291 298 291 362 213 c 128,-1,43
 426 135 426 135 547 135 c 0,28,29
EndSplineSet
EndChar

StartChar: uni0253
Encoding: 595 595 551
Width: 1202
GlyphClass: 2
Flags: W
AnchorPoint: "Anchor-1" 552 1490 basechar 0
AnchorPoint: "Anchor-0" 556 0 basechar 0
LayerCount: 2
Fore
SplineSet
559 -22 m 0,0,1
 472 -22 472 -22 412 6 c 128,-1,2
 352 34 352 34 314.5 77.5 c 128,-1,3
 277 121 277 121 256 166 c 1,4,-1
 245 166 l 1,5,-1
 218 0 l 1,6,-1
 53 0 l 1,7,-1
 200 888 l 1,8,-1
 370 888 l 1,9,-1
 375 920 l 1,10,-1
 383 920 l 1,11,12
 417 964 417 964 465.5 1006.5 c 128,-1,13
 514 1049 514 1049 581 1076.5 c 128,-1,14
 648 1104 648 1104 736 1104 c 0,15,16
 876 1104 876 1104 970.5 1034.5 c 128,-1,17
 1065 965 1065 965 1103.5 838.5 c 128,-1,18
 1142 712 1142 712 1114 542 c 0,19,20
 1087 373 1087 373 1008 246 c 128,-1,21
 929 119 929 119 813.5 48.5 c 128,-1,22
 698 -22 698 -22 559 -22 c 0,0,1
557 132 m 0,23,24
 656 132 656 132 735.5 183 c 128,-1,25
 815 234 815 234 868.5 326.5 c 128,-1,26
 922 419 922 419 942 543 c 0,27,28
 963 667 963 667 940.5 758.5 c 128,-1,29
 918 850 918 850 855.5 900.5 c 128,-1,30
 793 951 793 951 692 951 c 256,31,32
 591 951 591 951 511 900.5 c 128,-1,33
 431 850 431 850 378 758 c 128,-1,34
 325 666 325 666 304 543 c 0,35,36
 284 421 284 421 307 328 c 128,-1,37
 330 235 330 235 393 183.5 c 128,-1,38
 456 132 456 132 557 132 c 0,23,24
200 888 m 1,39,-1
 233 1087 l 1,40,-1
 260 1246 l 2,41,42
 280 1367 280 1367 365.5 1432 c 128,-1,43
 451 1497 451 1497 593 1497 c 0,44,45
 627 1497 627 1497 652 1496 c 128,-1,46
 677 1495 677 1495 695 1493 c 1,47,-1
 670 1344 l 1,48,49
 654 1345 654 1345 629.5 1345.5 c 128,-1,50
 605 1346 605 1346 591 1346 c 0,51,52
 518 1346 518 1346 481 1322.5 c 128,-1,53
 444 1299 444 1299 435 1246 c 2,54,-1
 409 1087 l 1,55,-1
 375 888 l 1,56,-1
 200 888 l 1,39,-1
EndSplineSet
EndChar

StartChar: thorn
Encoding: 254 254 555
Width: 1206
Flags: W
LayerCount: 2
Fore
SplineSet
559 -22 m 0,0,1
 472 -22 472 -22 414 5.5 c 128,-1,2
 356 33 356 33 320 76.5 c 128,-1,3
 284 120 284 120 263 167 c 1,4,-1
 255 167 l 1,5,-1
 158 -418 l 1,6,-1
 -17 -418 l 1,7,-1
 299 1490 l 1,8,-1
 474 1490 l 1,9,-1
 380 920 l 1,10,-1
 388 920 l 1,11,12
 422 965 422 965 471.5 1007 c 128,-1,13
 521 1049 521 1049 589 1076.5 c 128,-1,14
 657 1104 657 1104 745 1104 c 0,15,16
 884 1104 884 1104 977 1035 c 128,-1,17
 1070 966 1070 966 1108 840 c 128,-1,18
 1146 714 1146 714 1118 543 c 256,19,20
 1090 372 1090 372 1010 245 c 128,-1,21
 930 118 930 118 813.5 48 c 128,-1,22
 697 -22 697 -22 559 -22 c 0,0,1
559 135 m 0,23,24
 657 135 657 135 735.5 186 c 128,-1,25
 814 237 814 237 867.5 328.5 c 128,-1,26
 921 420 921 420 941 544 c 0,27,28
 961 666 961 666 938.5 757 c 128,-1,29
 916 848 916 848 854.5 898 c 128,-1,30
 793 948 793 948 693 948 c 256,31,32
 593 948 593 948 514 897.5 c 128,-1,33
 435 847 435 847 382.5 756.5 c 128,-1,34
 330 666 330 666 309 544 c 0,35,36
 289 423 289 423 311.5 330.5 c 128,-1,37
 334 238 334 238 396.5 186.5 c 128,-1,38
 459 135 459 135 559 135 c 0,23,24
EndSplineSet
EndChar

StartChar: c
Encoding: 99 99 556
Width: 1121
GlyphClass: 2
Flags: W
AnchorPoint: "Anchor-3" 497 0 basechar 0
AnchorPoint: "Anchor-1" 674 1087 basechar 0
AnchorPoint: "Anchor-0" 498 0 basechar 0
LayerCount: 2
Fore
SplineSet
505 -24 m 0,0,1
 373 -24 373 -24 277.5 31.5 c 128,-1,2
 182 87 182 87 130 187.5 c 128,-1,3
 78 288 78 288 78 422 c 0,4,5
 78 551 78 551 119 673 c 128,-1,6
 160 795 160 795 237.5 893 c 128,-1,7
 315 991 315 991 424 1048.5 c 128,-1,8
 533 1106 533 1106 670 1106 c 0,9,10
 757 1106 757 1106 829 1081.5 c 128,-1,11
 901 1057 901 1057 954 1012 c 128,-1,12
 1007 967 1007 967 1037.5 904.5 c 128,-1,13
 1068 842 1068 842 1072 765 c 1,14,-1
 898 746 l 1,15,16
 895 791 895 791 879 828 c 128,-1,17
 863 865 863 865 834.5 892 c 128,-1,18
 806 919 806 919 764 934 c 128,-1,19
 722 949 722 949 666 949 c 0,20,21
 567 949 567 949 490.5 903.5 c 128,-1,22
 414 858 414 858 361 781.5 c 128,-1,23
 308 705 308 705 281 612.5 c 128,-1,24
 254 520 254 520 254 425 c 0,25,26
 254 340 254 340 281.5 274 c 128,-1,27
 309 208 309 208 365.5 171 c 128,-1,28
 422 134 422 134 509 134 c 0,29,30
 568 134 568 134 618 149.5 c 128,-1,31
 668 165 668 165 709 193.5 c 128,-1,32
 750 222 750 222 781 261 c 128,-1,33
 812 300 812 300 832 346 c 1,34,-1
 1002 317 l 1,35,36
 973 241 973 241 923.5 178.5 c 128,-1,37
 874 116 874 116 809 71 c 128,-1,38
 744 26 744 26 667 1 c 128,-1,39
 590 -24 590 -24 505 -24 c 0,0,1
EndSplineSet
Substitution2: "'sups' Superscript in Latin lookup 39 subtable" c.sups
Substitution2: "'subs' Subscript in Latin lookup 38 subtable" c.subs
Substitution2: "'sinf' Scientific Inferiors in Latin lookup 18 subtable" c.subs
AlternateSubs2: "'aalt' Access All Alternates in Latin lookup 1 subtable" c.sups c.subs
EndChar

StartChar: uni023C
Encoding: 572 572 557
Width: 1121
GlyphClass: 2
Flags: W
AnchorPoint: "Anchor-3" 497 0 basechar 0
AnchorPoint: "Anchor-1" 674 1087 basechar 0
AnchorPoint: "Anchor-0" 498 0 basechar 0
LayerCount: 2
Fore
SplineSet
-25 -418 m 1,0,-1
 1030 1490 l 1,1,-1
 1168 1490 l 1,2,-1
 114 -418 l 1,3,-1
 -25 -418 l 1,0,-1
505 -24 m 0,4,5
 373 -24 373 -24 277.5 31.5 c 128,-1,6
 182 87 182 87 130 187.5 c 128,-1,7
 78 288 78 288 78 422 c 0,8,9
 78 551 78 551 119 673 c 128,-1,10
 160 795 160 795 237.5 893 c 128,-1,11
 315 991 315 991 424 1048.5 c 128,-1,12
 533 1106 533 1106 670 1106 c 0,13,14
 757 1106 757 1106 829 1081.5 c 128,-1,15
 901 1057 901 1057 954 1012 c 128,-1,16
 1007 967 1007 967 1037.5 904.5 c 128,-1,17
 1068 842 1068 842 1072 765 c 1,18,-1
 898 746 l 1,19,20
 895 791 895 791 879 828 c 128,-1,21
 863 865 863 865 834.5 892 c 128,-1,22
 806 919 806 919 764 934 c 128,-1,23
 722 949 722 949 666 949 c 0,24,25
 567 949 567 949 490.5 903.5 c 128,-1,26
 414 858 414 858 361 781.5 c 128,-1,27
 308 705 308 705 281 612.5 c 128,-1,28
 254 520 254 520 254 425 c 0,29,30
 254 340 254 340 281.5 274 c 128,-1,31
 309 208 309 208 365.5 171 c 128,-1,32
 422 134 422 134 509 134 c 0,33,34
 568 134 568 134 618 149.5 c 128,-1,35
 668 165 668 165 709 193.5 c 128,-1,36
 750 222 750 222 781 261 c 128,-1,37
 812 300 812 300 832 346 c 1,38,-1
 1002 317 l 1,39,40
 973 241 973 241 923.5 178.5 c 128,-1,41
 874 116 874 116 809 71 c 128,-1,42
 744 26 744 26 667 1 c 128,-1,43
 590 -24 590 -24 505 -24 c 0,4,5
EndSplineSet
Ligature2: "'ccmp' Glyph Composition/Decomposition in Latin lookup 6 subtable" c uni0338
EndChar

StartChar: uni0188
Encoding: 392 392 558
Width: 1121
GlyphClass: 2
Flags: W
AnchorPoint: "Anchor-3" 497 0 basechar 0
AnchorPoint: "Anchor-1" 674 1087 basechar 0
AnchorPoint: "Anchor-0" 498 0 basechar 0
LayerCount: 2
Fore
SplineSet
920 752 m 1,0,-1
 918 997 l 1,1,2
 908 1144 908 1144 986.5 1214.5 c 128,-1,3
 1065 1285 1065 1285 1209 1285 c 0,4,5
 1243 1285 1243 1285 1266 1283.5 c 128,-1,6
 1289 1282 1289 1282 1306 1281 c 1,7,-1
 1281 1133 l 1,8,9
 1263 1134 1263 1134 1234 1135 c 128,-1,10
 1205 1136 1205 1136 1190 1136 c 0,11,12
 1131 1136 1131 1136 1103.5 1108 c 128,-1,13
 1076 1080 1076 1080 1078 1019 c 2,14,-1
 1072 765 l 1,15,-1
 920 752 l 1,0,-1
505 -24 m 0,16,17
 373 -24 373 -24 277.5 31.5 c 128,-1,18
 182 87 182 87 130 187.5 c 128,-1,19
 78 288 78 288 78 422 c 0,20,21
 78 551 78 551 119 673 c 128,-1,22
 160 795 160 795 237.5 893 c 128,-1,23
 315 991 315 991 424 1048.5 c 128,-1,24
 533 1106 533 1106 670 1106 c 0,25,26
 757 1106 757 1106 829 1081.5 c 128,-1,27
 901 1057 901 1057 954 1012 c 128,-1,28
 1007 967 1007 967 1037.5 904.5 c 128,-1,29
 1068 842 1068 842 1072 765 c 1,30,-1
 898 746 l 1,31,32
 895 791 895 791 879 828 c 128,-1,33
 863 865 863 865 834.5 892 c 128,-1,34
 806 919 806 919 764 934 c 128,-1,35
 722 949 722 949 666 949 c 0,36,37
 567 949 567 949 490.5 903.5 c 128,-1,38
 414 858 414 858 361 781.5 c 128,-1,39
 308 705 308 705 281 612.5 c 128,-1,40
 254 520 254 520 254 425 c 0,41,42
 254 340 254 340 281.5 274 c 128,-1,43
 309 208 309 208 365.5 171 c 128,-1,44
 422 134 422 134 509 134 c 0,45,46
 568 134 568 134 618 149.5 c 128,-1,47
 668 165 668 165 709 193.5 c 128,-1,48
 750 222 750 222 781 261 c 128,-1,49
 812 300 812 300 832 346 c 1,50,-1
 1002 317 l 1,51,52
 973 241 973 241 923.5 178.5 c 128,-1,53
 874 116 874 116 809 71 c 128,-1,54
 744 26 744 26 667 1 c 128,-1,55
 590 -24 590 -24 505 -24 c 0,16,17
EndSplineSet
EndChar

StartChar: d
Encoding: 100 100 567
Width: 1206
GlyphClass: 2
Flags: W
AnchorPoint: "Anchor-1" 670 1283 basechar 0
AnchorPoint: "Anchor-0" 470 0 basechar 0
LayerCount: 2
Fore
SplineSet
471 -22 m 0,0,1
 289 -22 289 -22 183.5 97.5 c 128,-1,2
 78 217 78 217 78 417 c 0,3,4
 78 545 78 545 116 667.5 c 128,-1,5
 154 790 154 790 226.5 888.5 c 128,-1,6
 299 987 299 987 402.5 1045.5 c 128,-1,7
 506 1104 506 1104 636 1104 c 0,8,9
 727 1104 727 1104 788.5 1075.5 c 128,-1,10
 850 1047 850 1047 887.5 1003.5 c 128,-1,11
 925 960 925 960 944 915 c 1,12,-1
 950 915 l 1,13,-1
 1045 1490 l 1,14,-1
 1221 1490 l 1,15,-1
 974 0 l 1,16,-1
 804 0 l 1,17,-1
 831 165 l 1,18,-1
 821 165 l 1,19,20
 785 116 785 116 736 73.5 c 128,-1,21
 687 31 687 31 621.5 4.5 c 128,-1,22
 556 -22 556 -22 471 -22 c 0,0,1
502 135 m 0,23,24
 600 135 600 135 675.5 181 c 128,-1,25
 751 227 751 227 803 304 c 128,-1,26
 855 381 855 381 882 474.5 c 128,-1,27
 909 568 909 568 909 662 c 0,28,29
 909 794 909 794 845 871 c 128,-1,30
 781 948 781 948 658 948 c 0,31,32
 560 948 560 948 485 902 c 128,-1,33
 410 856 410 856 358.5 780 c 128,-1,34
 307 704 307 704 280.5 611 c 128,-1,35
 254 518 254 518 254 423 c 0,36,37
 254 289 254 289 318 212 c 128,-1,38
 382 135 382 135 502 135 c 0,23,24
EndSplineSet
Substitution2: "'sups' Superscript in Latin lookup 39 subtable" d.sups
Substitution2: "'subs' Subscript in Latin lookup 38 subtable" d.subs
Substitution2: "'sinf' Scientific Inferiors in Latin lookup 18 subtable" d.subs
AlternateSubs2: "'aalt' Access All Alternates in Latin lookup 1 subtable" d.sups d.subs
EndChar

StartChar: drthook
Encoding: 598 598 569
Width: 1206
GlyphClass: 2
Flags: W
AnchorPoint: "Anchor-1" 670 1283 basechar 0
AnchorPoint: "Anchor-0" 470 0 basechar 0
LayerCount: 2
Fore
SplineSet
1016 -422 m 0,0,1
 877 -422 877 -422 815 -358 c 128,-1,2
 753 -294 753 -294 773 -170 c 2,3,-1
 832 185 l 1,4,-1
 1005 185 l 1,5,-1
 946 -170 l 2,6,7
 937 -224 937 -224 964.5 -247.5 c 128,-1,8
 992 -271 992 -271 1064 -271 c 0,9,10
 1078 -271 1078 -271 1103 -270.5 c 128,-1,11
 1128 -270 1128 -270 1144 -269 c 1,12,-1
 1120 -418 l 1,13,14
 1101 -420 1101 -420 1075.5 -421 c 128,-1,15
 1050 -422 1050 -422 1016 -422 c 0,0,1
471 -22 m 0,16,17
 289 -22 289 -22 183.5 97.5 c 128,-1,18
 78 217 78 217 78 417 c 0,19,20
 78 545 78 545 116 667.5 c 128,-1,21
 154 790 154 790 226.5 888.5 c 128,-1,22
 299 987 299 987 402.5 1045.5 c 128,-1,23
 506 1104 506 1104 636 1104 c 0,24,25
 727 1104 727 1104 788.5 1075.5 c 128,-1,26
 850 1047 850 1047 887.5 1003.5 c 128,-1,27
 925 960 925 960 944 915 c 1,28,-1
 950 915 l 1,29,-1
 1045 1490 l 1,30,-1
 1221 1490 l 1,31,-1
 974 0 l 1,32,-1
 804 0 l 1,33,-1
 831 165 l 1,34,-1
 821 165 l 1,35,36
 785 116 785 116 736 73.5 c 128,-1,37
 687 31 687 31 621.5 4.5 c 128,-1,38
 556 -22 556 -22 471 -22 c 0,16,17
502 135 m 0,39,40
 600 135 600 135 675.5 181 c 128,-1,41
 751 227 751 227 803 304 c 128,-1,42
 855 381 855 381 882 474.5 c 128,-1,43
 909 568 909 568 909 662 c 0,44,45
 909 794 909 794 845 871 c 128,-1,46
 781 948 781 948 658 948 c 0,47,48
 560 948 560 948 485 902 c 128,-1,49
 410 856 410 856 358.5 780 c 128,-1,50
 307 704 307 704 280.5 611 c 128,-1,51
 254 518 254 518 254 423 c 0,52,53
 254 289 254 289 318 212 c 128,-1,54
 382 135 382 135 502 135 c 0,39,40
EndSplineSet
EndChar

StartChar: uni0257
Encoding: 599 599 570
Width: 1208
GlyphClass: 2
Flags: W
AnchorPoint: "Anchor-4" 975 0 basechar 0
AnchorPoint: "Anchor-1" 686 1087 basechar 0
AnchorPoint: "Anchor-0" 500 0 basechar 0
LayerCount: 2
Fore
SplineSet
947 888 m 1,0,-1
 980 1087 l 1,1,-1
 1006 1246 l 2,2,3
 1026 1367 1026 1367 1112 1432 c 128,-1,4
 1198 1497 1198 1497 1340 1497 c 0,5,6
 1374 1497 1374 1497 1399 1496 c 128,-1,7
 1424 1495 1424 1495 1442 1493 c 1,8,-1
 1417 1344 l 1,9,10
 1401 1345 1401 1345 1376 1345.5 c 128,-1,11
 1351 1346 1351 1346 1337 1346 c 0,12,13
 1265 1346 1265 1346 1227.5 1322.5 c 128,-1,14
 1190 1299 1190 1299 1182 1246 c 2,15,-1
 1155 1087 l 1,16,-1
 1122 888 l 1,17,-1
 947 888 l 1,0,-1
460 -22 m 0,18,19
 322 -22 322 -22 228.5 48.5 c 128,-1,20
 135 119 135 119 97.5 246 c 128,-1,21
 60 373 60 373 88 543 c 256,22,23
 116 713 116 713 196 839 c 128,-1,24
 276 965 276 965 393 1034.5 c 128,-1,25
 510 1104 510 1104 648 1104 c 0,26,27
 736 1104 736 1104 795.5 1076.5 c 128,-1,28
 855 1049 855 1049 891 1007 c 128,-1,29
 927 965 927 965 946 920 c 1,30,-1
 954 920 l 1,31,-1
 982 1087 l 1,32,-1
 1155 1087 l 1,33,-1
 975 0 l 1,34,-1
 805 0 l 1,35,-1
 832 167 l 1,36,-1
 820 167 l 1,37,38
 784 120 784 120 733.5 76.5 c 128,-1,39
 683 33 683 33 615.5 5.5 c 128,-1,40
 548 -22 548 -22 460 -22 c 0,18,19
514 135 m 0,41,42
 614 135 614 135 693 186.5 c 128,-1,43
 772 238 772 238 825 330 c 128,-1,44
 878 422 878 422 898 544 c 256,45,46
 918 666 918 666 895.5 756.5 c 128,-1,47
 873 847 873 847 810.5 897.5 c 128,-1,48
 748 948 748 948 648 948 c 0,49,50
 549 948 549 948 470 897.5 c 128,-1,51
 391 847 391 847 338.5 756.5 c 128,-1,52
 286 666 286 666 265 544 c 0,53,54
 245 421 245 421 268 329 c 128,-1,55
 291 237 291 237 353.5 186 c 128,-1,56
 416 135 416 135 514 135 c 0,41,42
EndSplineSet
EndChar

StartChar: uni018C
Encoding: 396 396 571
Width: 1206
GlyphClass: 2
Flags: W
AnchorPoint: "Anchor-1" 670 1283 basechar 0
AnchorPoint: "Anchor-0" 470 0 basechar 0
LayerCount: 2
Fore
SplineSet
1105 1338 m 1,0,-1
 368 1338 l 1,1,-1
 393 1490 l 1,2,-1
 1221 1490 l 1,3,-1
 1105 1338 l 1,0,-1
471 -22 m 0,4,5
 289 -22 289 -22 183.5 97.5 c 128,-1,6
 78 217 78 217 78 417 c 0,7,8
 78 545 78 545 116 667.5 c 128,-1,9
 154 790 154 790 226.5 888.5 c 128,-1,10
 299 987 299 987 402.5 1045.5 c 128,-1,11
 506 1104 506 1104 636 1104 c 0,12,13
 727 1104 727 1104 788.5 1075.5 c 128,-1,14
 850 1047 850 1047 887.5 1003.5 c 128,-1,15
 925 960 925 960 944 915 c 1,16,-1
 950 915 l 1,17,-1
 1045 1490 l 1,18,-1
 1221 1490 l 1,19,-1
 974 0 l 1,20,-1
 804 0 l 1,21,-1
 831 165 l 1,22,-1
 821 165 l 1,23,24
 785 116 785 116 736 73.5 c 128,-1,25
 687 31 687 31 621.5 4.5 c 128,-1,26
 556 -22 556 -22 471 -22 c 0,4,5
502 135 m 0,27,28
 600 135 600 135 675.5 181 c 128,-1,29
 751 227 751 227 803 304 c 128,-1,30
 855 381 855 381 882 474.5 c 128,-1,31
 909 568 909 568 909 662 c 0,32,33
 909 794 909 794 845 871 c 128,-1,34
 781 948 781 948 658 948 c 0,35,36
 560 948 560 948 485 902 c 128,-1,37
 410 856 410 856 358.5 780 c 128,-1,38
 307 704 307 704 280.5 611 c 128,-1,39
 254 518 254 518 254 423 c 0,40,41
 254 289 254 289 318 212 c 128,-1,42
 382 135 382 135 502 135 c 0,27,28
EndSplineSet
EndChar

StartChar: uni0221
Encoding: 545 545 572
Width: 1526
GlyphClass: 2
Flags: W
AnchorPoint: "Anchor-1" 670 1283 basechar 0
AnchorPoint: "Anchor-0" 470 0 basechar 0
LayerCount: 2
Fore
SplineSet
1042 -418 m 0,0,1
 928 -418 928 -418 867.5 -370.5 c 128,-1,2
 807 -323 807 -323 788.5 -250 c 128,-1,3
 770 -177 770 -177 782 -102 c 2,4,-1
 839 243 l 1,5,-1
 1014 243 l 1,6,-1
 954 -120 l 2,7,8
 942 -193 942 -193 977 -230.5 c 128,-1,9
 1012 -268 1012 -268 1066 -268 c 0,10,11
 1117 -268 1117 -268 1154.5 -235.5 c 128,-1,12
 1192 -203 1192 -203 1201 -154 c 0,13,14
 1208 -110 1208 -110 1188 -79 c 128,-1,15
 1168 -48 1168 -48 1122 -41 c 0,16,17
 1089 -35 1089 -35 1057 -42 c 128,-1,18
 1025 -49 1025 -49 995.5 -65.5 c 128,-1,19
 966 -82 966 -82 938 -106 c 2,20,-1
 618 -383 l 1,21,-1
 525 -266 l 1,22,-1
 794 -32 l 2,23,24
 875 38 875 38 968 74.5 c 128,-1,25
 1061 111 1061 111 1142 111 c 0,26,27
 1266 111 1266 111 1333.5 38 c 128,-1,28
 1401 -35 1401 -35 1382 -153 c 256,29,30
 1363 -271 1363 -271 1271 -344.5 c 128,-1,31
 1179 -418 1179 -418 1042 -418 c 0,0,1
471 -22 m 0,32,33
 289 -22 289 -22 183.5 97.5 c 128,-1,34
 78 217 78 217 78 417 c 0,35,36
 78 545 78 545 116 667.5 c 128,-1,37
 154 790 154 790 226.5 888.5 c 128,-1,38
 299 987 299 987 402.5 1045.5 c 128,-1,39
 506 1104 506 1104 636 1104 c 0,40,41
 727 1104 727 1104 788.5 1075.5 c 128,-1,42
 850 1047 850 1047 887.5 1003.5 c 128,-1,43
 925 960 925 960 944 915 c 1,44,-1
 950 915 l 1,45,-1
 1045 1490 l 1,46,-1
 1221 1490 l 1,47,-1
 974 0 l 1,48,-1
 804 0 l 1,49,-1
 831 165 l 1,50,-1
 821 165 l 1,51,52
 785 116 785 116 736 73.5 c 128,-1,53
 687 31 687 31 621.5 4.5 c 128,-1,54
 556 -22 556 -22 471 -22 c 0,32,33
502 135 m 0,55,56
 600 135 600 135 675.5 181 c 128,-1,57
 751 227 751 227 803 304 c 128,-1,58
 855 381 855 381 882 474.5 c 128,-1,59
 909 568 909 568 909 662 c 0,60,61
 909 794 909 794 845 871 c 128,-1,62
 781 948 781 948 658 948 c 0,63,64
 560 948 560 948 485 902 c 128,-1,65
 410 856 410 856 358.5 780 c 128,-1,66
 307 704 307 704 280.5 611 c 128,-1,67
 254 518 254 518 254 423 c 0,68,69
 254 289 254 289 318 212 c 128,-1,70
 382 135 382 135 502 135 c 0,55,56
EndSplineSet
EndChar

StartChar: uni02A3
Encoding: 675 675 580
Width: 2154
GlyphClass: 2
Flags: W
AnchorPoint: "Anchor-1" 670 1283 basechar 0
AnchorPoint: "Anchor-0" 470 0 basechar 0
LayerCount: 2
Fore
SplineSet
1078 0 m 1,0,-1
 1100 130 l 1,1,-1
 1869 946 l 1,2,-1
 1872 958 l 1,3,-1
 1076 958 l 1,4,-1
 1102 1118 l 1,5,-1
 2119 1118 l 1,6,-1
 2097 980 l 1,7,-1
 1345 172 l 1,8,-1
 1343 160 l 1,9,-1
 1980 160 l 1,10,-1
 1954 0 l 1,11,-1
 1078 0 l 1,0,-1
471 -22 m 0,12,13
 289 -22 289 -22 183.5 97.5 c 128,-1,14
 78 217 78 217 78 417 c 0,15,16
 78 545 78 545 116 667.5 c 128,-1,17
 154 790 154 790 226.5 888.5 c 128,-1,18
 299 987 299 987 402.5 1045.5 c 128,-1,19
 506 1104 506 1104 636 1104 c 0,20,21
 727 1104 727 1104 788.5 1075.5 c 128,-1,22
 850 1047 850 1047 887.5 1003.5 c 128,-1,23
 925 960 925 960 944 915 c 1,24,-1
 950 915 l 1,25,-1
 1045 1490 l 1,26,-1
 1221 1490 l 1,27,-1
 974 0 l 1,28,-1
 804 0 l 1,29,-1
 831 165 l 1,30,-1
 821 165 l 1,31,32
 785 116 785 116 736 73.5 c 128,-1,33
 687 31 687 31 621.5 4.5 c 128,-1,34
 556 -22 556 -22 471 -22 c 0,12,13
502 135 m 0,35,36
 600 135 600 135 675.5 181 c 128,-1,37
 751 227 751 227 803 304 c 128,-1,38
 855 381 855 381 882 474.5 c 128,-1,39
 909 568 909 568 909 662 c 0,40,41
 909 794 909 794 845 871 c 128,-1,42
 781 948 781 948 658 948 c 0,43,44
 560 948 560 948 485 902 c 128,-1,45
 410 856 410 856 358.5 780 c 128,-1,46
 307 704 307 704 280.5 611 c 128,-1,47
 254 518 254 518 254 423 c 0,48,49
 254 289 254 289 318 212 c 128,-1,50
 382 135 382 135 502 135 c 0,35,36
EndSplineSet
EndChar

StartChar: dyogh
Encoding: 676 676 582
Width: 2015
GlyphClass: 2
Flags: W
AnchorPoint: "Anchor-1" 670 1283 basechar 0
AnchorPoint: "Anchor-0" 470 0 basechar 0
LayerCount: 2
Fore
SplineSet
970 -88 m 1,0,1
 975 -148 975 -148 1015 -189.5 c 128,-1,2
 1055 -231 1055 -231 1119.5 -253 c 128,-1,3
 1184 -275 1184 -275 1261 -275 c 0,4,5
 1360 -275 1360 -275 1441 -241 c 128,-1,6
 1522 -207 1522 -207 1576 -143 c 128,-1,7
 1630 -79 1630 -79 1645 11 c 0,8,9
 1659 99 1659 99 1629.5 167 c 128,-1,10
 1600 235 1600 235 1522.5 273.5 c 128,-1,11
 1445 312 1445 312 1315 312 c 2,12,-1
 1197 312 l 1,13,-1
 1221 458 l 1,14,-1
 1678 921 l 1,15,-1
 1680 928 l 1,16,-1
 1034 928 l 1,17,-1
 1060 1088 l 1,18,-1
 1942 1088 l 1,19,-1
 1920 956 l 1,20,-1
 1427 459 l 1,21,-1
 1426 452 l 1,22,23
 1526 447 1526 447 1606 413 c 128,-1,24
 1686 379 1686 379 1739.5 320.5 c 128,-1,25
 1793 262 1793 262 1815 183.5 c 128,-1,26
 1837 105 1837 105 1822 11 c 0,27,28
 1801 -118 1801 -118 1718.5 -218.5 c 128,-1,29
 1636 -319 1636 -319 1510.5 -376.5 c 128,-1,30
 1385 -434 1385 -434 1235 -434 c 0,31,32
 1109 -434 1109 -434 1009 -392.5 c 128,-1,33
 909 -351 909 -351 850.5 -273 c 128,-1,34
 792 -195 792 -195 790 -88 c 1,35,-1
 970 -88 l 1,0,1
471 -22 m 0,36,37
 289 -22 289 -22 183.5 97.5 c 128,-1,38
 78 217 78 217 78 417 c 0,39,40
 78 545 78 545 116 667.5 c 128,-1,41
 154 790 154 790 226.5 888.5 c 128,-1,42
 299 987 299 987 402.5 1045.5 c 128,-1,43
 506 1104 506 1104 636 1104 c 0,44,45
 727 1104 727 1104 788.5 1075.5 c 128,-1,46
 850 1047 850 1047 887.5 1003.5 c 128,-1,47
 925 960 925 960 944 915 c 1,48,-1
 950 915 l 1,49,-1
 1045 1490 l 1,50,-1
 1221 1490 l 1,51,-1
 974 0 l 1,52,-1
 804 0 l 1,53,-1
 831 165 l 1,54,-1
 821 165 l 1,55,56
 785 116 785 116 736 73.5 c 128,-1,57
 687 31 687 31 621.5 4.5 c 128,-1,58
 556 -22 556 -22 471 -22 c 0,36,37
502 135 m 0,59,60
 600 135 600 135 675.5 181 c 128,-1,61
 751 227 751 227 803 304 c 128,-1,62
 855 381 855 381 882 474.5 c 128,-1,63
 909 568 909 568 909 662 c 0,64,65
 909 794 909 794 845 871 c 128,-1,66
 781 948 781 948 658 948 c 0,67,68
 560 948 560 948 485 902 c 128,-1,69
 410 856 410 856 358.5 780 c 128,-1,70
 307 704 307 704 280.5 611 c 128,-1,71
 254 518 254 518 254 423 c 0,72,73
 254 289 254 289 318 212 c 128,-1,74
 382 135 382 135 502 135 c 0,59,60
EndSplineSet
EndChar

StartChar: e
Encoding: 101 101 584
Width: 1130
GlyphClass: 2
Flags: W
AnchorPoint: "Anchor-4" 1004 288 basechar 0
AnchorPoint: "Anchor-3" 503 0 basechar 0
AnchorPoint: "Anchor-1" 675 1087 basechar 0
AnchorPoint: "Anchor-0" 501 0 basechar 0
LayerCount: 2
Fore
SplineSet
508 -24 m 0,0,1
 378 -24 378 -24 282 26.5 c 128,-1,2
 186 77 186 77 133 177.5 c 128,-1,3
 80 278 80 278 80 427 c 0,4,5
 80 574 80 574 125.5 699 c 128,-1,6
 171 824 171 824 253 916.5 c 128,-1,7
 335 1009 335 1009 443.5 1060 c 128,-1,8
 552 1111 552 1111 678 1111 c 0,9,10
 786 1111 786 1111 866.5 1075 c 128,-1,11
 947 1039 947 1039 991.5 972 c 128,-1,12
 1036 905 1036 905 1036 811 c 0,13,14
 1036 716 1036 716 986.5 649.5 c 128,-1,15
 937 583 937 583 835 542 c 128,-1,16
 733 501 733 501 576.5 482 c 128,-1,17
 420 463 420 463 205 463 c 1,18,-1
 229 603 l 1,19,20
 412 603 412 603 534 614.5 c 128,-1,21
 656 626 656 626 727.5 650.5 c 128,-1,22
 799 675 799 675 829.5 715 c 128,-1,23
 860 755 860 755 860 812 c 0,24,25
 860 878 860 878 807.5 916 c 128,-1,26
 755 954 755 954 661 954 c 0,27,28
 551 954 551 954 473.5 905.5 c 128,-1,29
 396 857 396 857 346.5 778.5 c 128,-1,30
 297 700 297 700 274 606.5 c 128,-1,31
 251 513 251 513 251 423 c 0,32,33
 251 345 251 345 275 278.5 c 128,-1,34
 299 212 299 212 358 172 c 128,-1,35
 417 132 417 132 518 132 c 0,36,37
 630 132 630 132 713 181.5 c 128,-1,38
 796 231 796 231 836 312 c 1,39,-1
 1004 288 l 1,40,41
 946 147 946 147 814.5 61.5 c 128,-1,42
 683 -24 683 -24 508 -24 c 0,0,1
EndSplineSet
Substitution2: "'sups' Superscript in Latin lookup 39 subtable" e.sups
Substitution2: "'subs' Subscript in Latin lookup 38 subtable" e.subs
Substitution2: "'sinf' Scientific Inferiors in Latin lookup 18 subtable" e.subs
AlternateSubs2: "'aalt' Access All Alternates in Latin lookup 1 subtable" e.sups e.subs
EndChar

StartChar: uni0247
Encoding: 583 583 586
Width: 1130
GlyphClass: 2
Flags: W
AnchorPoint: "Anchor-4" 1004 288 basechar 0
AnchorPoint: "Anchor-3" 503 0 basechar 0
AnchorPoint: "Anchor-1" 675 1087 basechar 0
AnchorPoint: "Anchor-0" 501 0 basechar 0
LayerCount: 2
Fore
SplineSet
-42 -418 m 1,0,-1
 1040 1490 l 1,1,-1
 1177 1490 l 1,2,-1
 98 -418 l 1,3,-1
 -42 -418 l 1,0,-1
508 -24 m 0,4,5
 378 -24 378 -24 282 26.5 c 128,-1,6
 186 77 186 77 133 177.5 c 128,-1,7
 80 278 80 278 80 427 c 0,8,9
 80 574 80 574 125.5 699 c 128,-1,10
 171 824 171 824 253 916.5 c 128,-1,11
 335 1009 335 1009 443.5 1060 c 128,-1,12
 552 1111 552 1111 678 1111 c 0,13,14
 786 1111 786 1111 866.5 1075 c 128,-1,15
 947 1039 947 1039 991.5 972 c 128,-1,16
 1036 905 1036 905 1036 811 c 0,17,18
 1036 716 1036 716 986.5 649.5 c 128,-1,19
 937 583 937 583 835 542 c 128,-1,20
 733 501 733 501 576.5 482 c 128,-1,21
 420 463 420 463 205 463 c 1,22,-1
 229 603 l 1,23,24
 412 603 412 603 534 614.5 c 128,-1,25
 656 626 656 626 727.5 650.5 c 128,-1,26
 799 675 799 675 829.5 715 c 128,-1,27
 860 755 860 755 860 812 c 0,28,29
 860 878 860 878 807.5 916 c 128,-1,30
 755 954 755 954 661 954 c 0,31,32
 551 954 551 954 473.5 905.5 c 128,-1,33
 396 857 396 857 346.5 778.5 c 128,-1,34
 297 700 297 700 274 606.5 c 128,-1,35
 251 513 251 513 251 423 c 0,36,37
 251 345 251 345 275 278.5 c 128,-1,38
 299 212 299 212 358 172 c 128,-1,39
 417 132 417 132 518 132 c 0,40,41
 630 132 630 132 713 181.5 c 128,-1,42
 796 231 796 231 836 312 c 1,43,-1
 1004 288 l 1,44,45
 946 147 946 147 814.5 61.5 c 128,-1,46
 683 -24 683 -24 508 -24 c 0,4,5
EndSplineSet
EndChar

StartChar: eturn
Encoding: 477 477 615
Width: 1130
GlyphClass: 2
Flags: W
AnchorPoint: "Anchor-4" 126 799 basechar 0
AnchorPoint: "Anchor-3" 627 1087 basechar 0
AnchorPoint: "Anchor-1" 645 1087 basechar 0
AnchorPoint: "Anchor-0" 465 0 basechar 0
LayerCount: 2
Fore
SplineSet
622 1111 m 0,0,1
 752 1111 752 1111 848.5 1060.5 c 128,-1,2
 945 1010 945 1010 997.5 910 c 128,-1,3
 1050 810 1050 810 1050 660 c 0,4,5
 1050 513 1050 513 1004.5 388 c 128,-1,6
 959 263 959 263 877 171 c 128,-1,7
 795 79 795 79 686.5 27.5 c 128,-1,8
 578 -24 578 -24 452 -24 c 0,9,10
 344 -24 344 -24 263.5 12 c 128,-1,11
 183 48 183 48 138.5 115.5 c 128,-1,12
 94 183 94 183 94 276 c 0,13,14
 94 371 94 371 143.5 437.5 c 128,-1,15
 193 504 193 504 295 545 c 128,-1,16
 397 586 397 586 553.5 605 c 128,-1,17
 710 624 710 624 925 624 c 1,18,-1
 901 484 l 1,19,20
 718 484 718 484 596 473 c 128,-1,21
 474 462 474 462 402.5 437 c 128,-1,22
 331 412 331 412 300.5 372 c 128,-1,23
 270 332 270 332 270 275 c 0,24,25
 270 210 270 210 322.5 171.5 c 128,-1,26
 375 133 375 133 469 133 c 0,27,28
 579 133 579 133 656.5 181.5 c 128,-1,29
 734 230 734 230 783.5 309 c 128,-1,30
 833 388 833 388 856 481.5 c 128,-1,31
 879 575 879 575 879 665 c 0,32,33
 879 743 879 743 855 809 c 128,-1,34
 831 875 831 875 772.5 915 c 128,-1,35
 714 955 714 955 612 955 c 0,36,37
 501 955 501 955 418 906 c 128,-1,38
 335 857 335 857 294 776 c 1,39,-1
 126 799 l 1,40,41
 184 941 184 941 315.5 1026 c 128,-1,42
 447 1111 447 1111 622 1111 c 0,0,1
EndSplineSet
EndChar

StartChar: _part.f_base
Encoding: 1114123 -1 616
Width: 714
GlyphClass: 2
Flags: W
AnchorPoint: "Anchor-1" 584 1520 basechar 0
LayerCount: 2
Fore
SplineSet
-66 -433 m 0,0,1
 -85 -433 -85 -433 -99 -432 c 128,-1,2
 -113 -431 -113 -431 -127.5 -429 c 128,-1,3
 -142 -427 -142 -427 -166 -424 c 1,4,-1
 -130 -264 l 1,5,6
 -110 -266 -110 -266 -91.5 -268 c 128,-1,7
 -73 -270 -73 -270 -53 -270 c 0,8,9
 20 -270 20 -270 56 -235.5 c 128,-1,10
 92 -201 92 -201 105 -121 c 2,11,-1
 328 1220 l 2,12,13
 344 1317 344 1317 391.5 1385 c 128,-1,14
 439 1453 439 1453 514 1489 c 128,-1,15
 589 1525 589 1525 685 1525 c 0,16,17
 718 1525 718 1525 748.5 1522 c 128,-1,18
 779 1519 779 1519 811 1515 c 1,19,-1
 773 1365 l 1,20,21
 754 1367 754 1367 724 1368 c 128,-1,22
 694 1369 694 1369 668 1369 c 0,23,24
 594 1369 594 1369 554.5 1330.5 c 128,-1,25
 515 1292 515 1292 501 1208 c 2,26,-1
 281 -120 l 2,27,28
 264 -222 264 -222 221.5 -291.5 c 128,-1,29
 179 -361 179 -361 107.5 -397 c 128,-1,30
 36 -433 36 -433 -66 -433 c 0,0,1
EndSplineSet
EndChar

StartChar: f
Encoding: 102 102 617
Width: 696
GlyphClass: 2
Flags: W
AnchorPoint: "Anchor-1" 593 1520 basechar 0
AnchorPoint: "Anchor-0" 223 0 basechar 0
LayerCount: 2
Fore
SplineSet
727 1087 m 1,0,-1
 703 941 l 1,1,-1
 84 941 l 1,2,-1
 108 1087 l 1,3,-1
 727 1087 l 1,0,-1
-56 -433 m 0,4,5
 -76 -433 -76 -433 -89.5 -432 c 128,-1,6
 -103 -431 -103 -431 -118 -429 c 128,-1,7
 -133 -427 -133 -427 -157 -424 c 1,8,-1
 -121 -264 l 1,9,10
 -100 -266 -100 -266 -81.5 -268 c 128,-1,11
 -63 -270 -63 -270 -43 -270 c 0,12,13
 30 -270 30 -270 66 -235.5 c 128,-1,14
 102 -201 102 -201 115 -121 c 2,15,-1
 337 1220 l 2,16,17
 354 1317 354 1317 401.5 1385 c 128,-1,18
 449 1453 449 1453 523.5 1489 c 128,-1,19
 598 1525 598 1525 695 1525 c 0,20,21
 727 1525 727 1525 758 1522 c 128,-1,22
 789 1519 789 1519 820 1515 c 1,23,-1
 783 1365 l 1,24,25
 763 1367 763 1367 733.5 1368 c 128,-1,26
 704 1369 704 1369 677 1369 c 0,27,28
 604 1369 604 1369 564.5 1330.5 c 128,-1,29
 525 1292 525 1292 511 1208 c 2,30,-1
 290 -120 l 2,31,32
 274 -222 274 -222 231 -291.5 c 128,-1,33
 188 -361 188 -361 117 -397 c 128,-1,34
 46 -433 46 -433 -56 -433 c 0,4,5
EndSplineSet
Substitution2: "'cv12' Character Variants 12 in Latin lookup 65 subtable" f.1
Substitution2: "'salt' Stylistic Alternatives in Latin lookup 46 subtable" f.1
Substitution2: "'sups' Superscript in Latin lookup 39 subtable" f.sups
Substitution2: "'subs' Subscript in Latin lookup 38 subtable" f.subs
Substitution2: "Single Substitution lookup 36 subtable" f.1
Substitution2: "Single Substitution lookup 35 subtable" f.i.1
Substitution2: "Single Substitution lookup 34 subtable" f.i
Substitution2: "'sinf' Scientific Inferiors in Latin lookup 18 subtable" f.subs
AlternateSubs2: "'aalt' Access All Alternates in Latin lookup 1 subtable" f.sups f.subs
EndChar

StartChar: f.1
Encoding: 60941 60941 618
Width: 614
GlyphClass: 2
Flags: W
AnchorPoint: "Anchor-1" 511 1520 basechar 0
AnchorPoint: "Anchor-0" 141 0 basechar 0
LayerCount: 2
Fore
SplineSet
645 1087 m 1,0,-1
 621 941 l 1,1,-1
 293 941 l 1,2,-1
 317 1087 l 1,3,-1
 645 1087 l 1,0,-1
-138 -433 m 0,4,5
 -158 -433 -158 -433 -171.5 -432 c 128,-1,6
 -185 -431 -185 -431 -200 -429 c 128,-1,7
 -215 -427 -215 -427 -239 -424 c 1,8,-1
 -203 -264 l 1,9,10
 -182 -266 -182 -266 -163.5 -268 c 128,-1,11
 -145 -270 -145 -270 -125 -270 c 0,12,13
 -52 -270 -52 -270 -16 -235.5 c 128,-1,14
 20 -201 20 -201 33 -121 c 2,15,-1
 255 1220 l 2,16,17
 272 1317 272 1317 319.5 1385 c 128,-1,18
 367 1453 367 1453 441.5 1489 c 128,-1,19
 516 1525 516 1525 613 1525 c 0,20,21
 645 1525 645 1525 676 1522 c 128,-1,22
 707 1519 707 1519 738 1515 c 1,23,-1
 701 1365 l 1,24,25
 681 1367 681 1367 651.5 1368 c 128,-1,26
 622 1369 622 1369 595 1369 c 0,27,28
 522 1369 522 1369 482.5 1330.5 c 128,-1,29
 443 1292 443 1292 429 1208 c 2,30,-1
 208 -120 l 2,31,32
 192 -222 192 -222 149 -291.5 c 128,-1,33
 106 -361 106 -361 35 -397 c 128,-1,34
 -36 -433 -36 -433 -138 -433 c 0,4,5
EndSplineSet
EndChar

StartChar: f.i
Encoding: 60942 60942 619
Width: 616
GlyphClass: 2
Flags: W
AnchorPoint: "Anchor-1" 565 1520 basechar 0
AnchorPoint: "Anchor-0" 197 0 basechar 0
LayerCount: 2
Fore
SplineSet
-85 -433 m 0,0,1
 -104 -433 -104 -433 -118 -432 c 128,-1,2
 -132 -431 -132 -431 -146.5 -429 c 128,-1,3
 -161 -427 -161 -427 -185 -424 c 1,4,-1
 -149 -264 l 1,5,6
 -129 -266 -129 -266 -110.5 -268 c 128,-1,7
 -92 -270 -92 -270 -72 -270 c 0,8,9
 1 -270 1 -270 37 -235.5 c 128,-1,10
 73 -201 73 -201 86 -121 c 2,11,-1
 309 1220 l 2,12,13
 325 1317 325 1317 372.5 1385 c 128,-1,14
 420 1453 420 1453 495 1489 c 128,-1,15
 570 1525 570 1525 666 1525 c 0,16,17
 682 1525 682 1525 696.5 1525 c 128,-1,18
 711 1525 711 1525 725 1524 c 1,19,-1
 703 1368 l 1,20,21
 689 1369 689 1369 675 1369 c 128,-1,22
 661 1369 661 1369 649 1369 c 0,23,24
 575 1369 575 1369 535.5 1330.5 c 128,-1,25
 496 1292 496 1292 482 1208 c 2,26,-1
 262 -120 l 2,27,28
 245 -222 245 -222 202.5 -291.5 c 128,-1,29
 160 -361 160 -361 88.5 -397 c 128,-1,30
 17 -433 17 -433 -85 -433 c 0,0,1
97 938 m 1,31,-1
 121 1087 l 1,32,-1
 901 1087 l 1,33,-1
 877 938 l 1,34,-1
 97 938 l 1,31,-1
EndSplineSet
Substitution2: "Single Substitution lookup 35 subtable" f.i.1
EndChar

StartChar: f.i.1
Encoding: 60943 60943 620
Width: 563
GlyphClass: 2
Flags: W
AnchorPoint: "Anchor-1" 511 1520 basechar 0
AnchorPoint: "Anchor-0" 143 0 basechar 0
LayerCount: 2
Fore
SplineSet
-138 -433 m 0,0,1
 -158 -433 -158 -433 -171.5 -432 c 128,-1,2
 -185 -431 -185 -431 -200 -429 c 128,-1,3
 -215 -427 -215 -427 -239 -424 c 1,4,-1
 -203 -264 l 1,5,6
 -182 -266 -182 -266 -163.5 -268 c 128,-1,7
 -145 -270 -145 -270 -125 -270 c 0,8,9
 -52 -270 -52 -270 -16 -235.5 c 128,-1,10
 20 -201 20 -201 33 -121 c 2,11,-1
 255 1220 l 2,12,13
 272 1317 272 1317 319.5 1385 c 128,-1,14
 367 1453 367 1453 441.5 1489 c 128,-1,15
 516 1525 516 1525 613 1525 c 0,16,17
 628 1525 628 1525 642.5 1525 c 128,-1,18
 657 1525 657 1525 671 1524 c 1,19,-1
 649 1368 l 1,20,21
 635 1369 635 1369 621 1369 c 128,-1,22
 607 1369 607 1369 595 1369 c 0,23,24
 522 1369 522 1369 482.5 1330.5 c 128,-1,25
 443 1292 443 1292 429 1208 c 2,26,-1
 208 -120 l 2,27,28
 192 -222 192 -222 149 -291.5 c 128,-1,29
 106 -361 106 -361 34.5 -397 c 128,-1,30
 -37 -433 -37 -433 -138 -433 c 0,0,1
291 938 m 1,31,-1
 316 1087 l 1,32,-1
 848 1087 l 1,33,-1
 823 938 l 1,34,-1
 291 938 l 1,31,-1
EndSplineSet
EndChar

StartChar: g
Encoding: 103 103 628
Width: 1207
GlyphClass: 2
Flags: W
AnchorPoint: "Anchor-1" 669 1087 basechar 0
AnchorPoint: "Anchor-0" 432 -436 basechar 0
LayerCount: 2
Fore
SplineSet
438 -437 m 0,0,1
 314 -437 314 -437 224.5 -402 c 128,-1,2
 135 -367 135 -367 83.5 -304.5 c 128,-1,3
 32 -242 32 -242 22 -160 c 1,4,-1
 185 -118 l 1,5,6
 196 -162 196 -162 224.5 -199.5 c 128,-1,7
 253 -237 253 -237 306 -260 c 128,-1,8
 359 -283 359 -283 441 -283 c 0,9,10
 582 -283 582 -283 680.5 -211 c 128,-1,11
 779 -139 779 -139 800 -3 c 2,12,-1
 830 183 l 1,13,-1
 822 181 l 1,14,15
 785 134 785 134 736.5 92.5 c 128,-1,16
 688 51 688 51 624 25 c 128,-1,17
 560 -1 560 -1 474 -1 c 0,18,19
 354 -1 354 -1 265.5 50.5 c 128,-1,20
 177 102 177 102 128 198 c 128,-1,21
 79 294 79 294 79 426 c 0,22,23
 79 552 79 552 117.5 672.5 c 128,-1,24
 156 793 156 793 228.5 890.5 c 128,-1,25
 301 988 301 988 404 1046 c 128,-1,26
 507 1104 507 1104 637 1104 c 0,27,28
 705 1104 705 1104 756 1088 c 128,-1,29
 807 1072 807 1072 844 1044 c 128,-1,30
 881 1016 881 1016 905.5 982 c 128,-1,31
 930 948 930 948 945 913 c 1,32,-1
 956 915 l 1,33,-1
 984 1087 l 1,34,-1
 1155 1087 l 1,35,-1
 971 -20 l 2,36,37
 947 -170 947 -170 868.5 -261.5 c 128,-1,38
 790 -353 790 -353 677.5 -395 c 128,-1,39
 565 -437 565 -437 438 -437 c 0,0,1
505 156 m 0,40,41
 604 156 604 156 679.5 200 c 128,-1,42
 755 244 755 244 806 317.5 c 128,-1,43
 857 391 857 391 883 481 c 128,-1,44
 909 571 909 571 909 664 c 0,45,46
 909 795 909 795 845.5 871.5 c 128,-1,47
 782 948 782 948 658 948 c 0,48,49
 562 948 562 948 487 903.5 c 128,-1,50
 412 859 412 859 360 784.5 c 128,-1,51
 308 710 308 710 281.5 618 c 128,-1,52
 255 526 255 526 255 432 c 0,53,54
 255 301 255 301 320 228.5 c 128,-1,55
 385 156 385 156 505 156 c 0,40,41
EndSplineSet
Substitution2: "'smcp' Lowercase to Small Capitals in Latin lookup 68 subtable" g.sc
Substitution2: "'sups' Superscript in Latin lookup 39 subtable" g.sups
Substitution2: "'subs' Subscript in Latin lookup 38 subtable" g.subs
Substitution2: "'sinf' Scientific Inferiors in Latin lookup 18 subtable" g.subs
AlternateSubs2: "'aalt' Access All Alternates in Latin lookup 1 subtable" g.sc g.sups g.subs
EndChar

StartChar: uni0260
Encoding: 608 608 629
Width: 1207
GlyphClass: 2
Flags: W
AnchorPoint: "Anchor-1" 669 1087 basechar 0
AnchorPoint: "Anchor-0" 432 -436 basechar 0
LayerCount: 2
Fore
SplineSet
946 888 m 1,0,-1
 979 1087 l 1,1,-1
 1006 1246 l 2,2,3
 1026 1367 1026 1367 1111.5 1432 c 128,-1,4
 1197 1497 1197 1497 1339 1497 c 0,5,6
 1373 1497 1373 1497 1398 1496 c 128,-1,7
 1423 1495 1423 1495 1441 1493 c 1,8,-1
 1416 1344 l 1,9,10
 1400 1345 1400 1345 1375.5 1345.5 c 128,-1,11
 1351 1346 1351 1346 1337 1346 c 0,12,13
 1264 1346 1264 1346 1227 1322.5 c 128,-1,14
 1190 1299 1190 1299 1181 1246 c 2,15,-1
 1155 1087 l 1,16,-1
 1121 888 l 1,17,-1
 946 888 l 1,0,-1
438 -437 m 0,18,19
 314 -437 314 -437 224.5 -402 c 128,-1,20
 135 -367 135 -367 83.5 -304.5 c 128,-1,21
 32 -242 32 -242 22 -160 c 1,22,-1
 185 -118 l 1,23,24
 196 -162 196 -162 224.5 -199.5 c 128,-1,25
 253 -237 253 -237 306 -260 c 128,-1,26
 359 -283 359 -283 441 -283 c 0,27,28
 582 -283 582 -283 680.5 -211 c 128,-1,29
 779 -139 779 -139 800 -3 c 2,30,-1
 830 183 l 1,31,-1
 822 181 l 1,32,33
 785 134 785 134 736.5 92.5 c 128,-1,34
 688 51 688 51 624 25 c 128,-1,35
 560 -1 560 -1 474 -1 c 0,36,37
 354 -1 354 -1 265.5 50.5 c 128,-1,38
 177 102 177 102 128 198 c 128,-1,39
 79 294 79 294 79 426 c 0,40,41
 79 552 79 552 117.5 672.5 c 128,-1,42
 156 793 156 793 228.5 890.5 c 128,-1,43
 301 988 301 988 404 1046 c 128,-1,44
 507 1104 507 1104 637 1104 c 0,45,46
 705 1104 705 1104 756 1088 c 128,-1,47
 807 1072 807 1072 844 1044 c 128,-1,48
 881 1016 881 1016 905.5 982 c 128,-1,49
 930 948 930 948 945 913 c 1,50,-1
 956 915 l 1,51,-1
 984 1087 l 1,52,-1
 1155 1087 l 1,53,-1
 971 -20 l 2,54,55
 947 -170 947 -170 868.5 -261.5 c 128,-1,56
 790 -353 790 -353 677.5 -395 c 128,-1,57
 565 -437 565 -437 438 -437 c 0,18,19
505 156 m 0,58,59
 604 156 604 156 679.5 200 c 128,-1,60
 755 244 755 244 806 317.5 c 128,-1,61
 857 391 857 391 883 481 c 128,-1,62
 909 571 909 571 909 664 c 0,63,64
 909 795 909 795 845.5 871.5 c 128,-1,65
 782 948 782 948 658 948 c 0,66,67
 562 948 562 948 487 903.5 c 128,-1,68
 412 859 412 859 360 784.5 c 128,-1,69
 308 710 308 710 281.5 618 c 128,-1,70
 255 526 255 526 255 432 c 0,71,72
 255 301 255 301 320 228.5 c 128,-1,73
 385 156 385 156 505 156 c 0,58,59
EndSplineSet
Substitution2: "'smcp' Lowercase to Small Capitals in Latin lookup 68 subtable" uni0260.sc
Substitution2: "'c2sc' Capitals to Small Capitals in Latin lookup 67 subtable" uni0260.sc
Substitution2: "'aalt' Access All Alternates in Latin lookup 0 subtable" uni0260.sc
EndChar

StartChar: g.sc
Encoding: 610 610 638
Width: 1129
GlyphClass: 2
Flags: W
AnchorPoint: "Anchor-1" 672 1087 basechar 0
AnchorPoint: "Anchor-0" 491 0 basechar 0
LayerCount: 2
Fore
SplineSet
508 -16 m 0,0,1
 376 -16 376 -16 280 38.5 c 128,-1,2
 184 93 184 93 131.5 193 c 128,-1,3
 79 293 79 293 79 429 c 0,4,5
 79 559 79 559 121 680 c 128,-1,6
 163 801 163 801 241 896.5 c 128,-1,7
 319 992 319 992 428 1047.5 c 128,-1,8
 537 1103 537 1103 670 1103 c 0,9,10
 790 1103 790 1103 882.5 1057 c 128,-1,11
 975 1011 975 1011 1027.5 928.5 c 128,-1,12
 1080 846 1080 846 1079 736 c 1,13,-1
 900 736 l 1,14,15
 895 799 895 799 866 846 c 128,-1,16
 837 893 837 893 786.5 919 c 128,-1,17
 736 945 736 945 665 945 c 0,18,19
 569 945 569 945 492 901 c 128,-1,20
 415 857 415 857 361.5 782.5 c 128,-1,21
 308 708 308 708 280 617 c 128,-1,22
 252 526 252 526 252 433 c 0,23,24
 252 295 252 295 323 218.5 c 128,-1,25
 394 142 394 142 516 142 c 0,26,27
 605 142 605 142 679 178.5 c 128,-1,28
 753 215 753 215 802.5 280 c 128,-1,29
 852 345 852 345 865 429 c 1,30,-1
 908 418 l 1,31,-1
 599 418 l 1,32,-1
 624 560 l 1,33,-1
 1057 560 l 1,34,-1
 1035 428 l 2,35,36
 1013 294 1013 294 938 194 c 128,-1,37
 863 94 863 94 752 39 c 128,-1,38
 641 -16 641 -16 508 -16 c 0,0,1
EndSplineSet
EndChar

StartChar: uni0260.sc
Encoding: 60947 60947 639
Width: 1199
GlyphClass: 2
Flags: W
AnchorPoint: "Anchor-1" 672 1087 basechar 0
AnchorPoint: "Anchor-0" 491 0 basechar 0
LayerCount: 2
Fore
SplineSet
954 736 m 1,0,-1
 954 972 l 2,1,2
 951 1056 951 1056 983.5 1119.5 c 128,-1,3
 1016 1183 1016 1183 1081 1219 c 128,-1,4
 1146 1255 1146 1255 1238 1255 c 0,5,6
 1272 1255 1272 1255 1293 1253.5 c 128,-1,7
 1314 1252 1314 1252 1332 1250 c 1,8,-1
 1307 1102 l 1,9,10
 1291 1103 1291 1103 1270.5 1103.5 c 128,-1,11
 1250 1104 1250 1104 1236 1104 c 0,12,13
 1161 1104 1161 1104 1129 1064 c 128,-1,14
 1097 1024 1097 1024 1101 918 c 1,15,-1
 1079 736 l 1,16,-1
 954 736 l 1,0,-1
508 -16 m 0,17,18
 376 -16 376 -16 280 38.5 c 128,-1,19
 184 93 184 93 131.5 193 c 128,-1,20
 79 293 79 293 79 429 c 0,21,22
 79 559 79 559 121 680 c 128,-1,23
 163 801 163 801 241 896.5 c 128,-1,24
 319 992 319 992 428 1047.5 c 128,-1,25
 537 1103 537 1103 670 1103 c 0,26,27
 790 1103 790 1103 882.5 1057 c 128,-1,28
 975 1011 975 1011 1027.5 928.5 c 128,-1,29
 1080 846 1080 846 1079 736 c 1,30,-1
 900 736 l 1,31,32
 895 799 895 799 866 846 c 128,-1,33
 837 893 837 893 786.5 919 c 128,-1,34
 736 945 736 945 665 945 c 0,35,36
 569 945 569 945 492 901 c 128,-1,37
 415 857 415 857 361.5 782.5 c 128,-1,38
 308 708 308 708 280 617 c 128,-1,39
 252 526 252 526 252 433 c 0,40,41
 252 295 252 295 323 218.5 c 128,-1,42
 394 142 394 142 516 142 c 0,43,44
 605 142 605 142 679 178.5 c 128,-1,45
 753 215 753 215 802.5 280 c 128,-1,46
 852 345 852 345 865 429 c 1,47,-1
 908 418 l 1,48,-1
 599 418 l 1,49,-1
 624 560 l 1,50,-1
 1057 560 l 1,51,-1
 1035 428 l 2,52,53
 1013 294 1013 294 938 194 c 128,-1,54
 863 94 863 94 752 39 c 128,-1,55
 641 -16 641 -16 508 -16 c 0,17,18
EndSplineSet
EndChar

StartChar: h
Encoding: 104 104 640
Width: 1166
GlyphClass: 2
Flags: W
AnchorPoint: "Anchor-3" 142 0 basechar 0
AnchorPoint: "Anchor-1" 387 1490 basechar 0
AnchorPoint: "Anchor-0" 493 0 basechar 0
LayerCount: 2
Fore
SplineSet
334 644 m 2,0,-1
 227 0 l 1,1,-1
 52 0 l 1,2,-1
 299 1490 l 1,3,-1
 474 1490 l 1,4,-1
 363 824 l 1,5,-1
 322 824 l 1,6,7
 373 924 373 924 435 985.5 c 128,-1,8
 497 1047 497 1047 569.5 1075.5 c 128,-1,9
 642 1104 642 1104 725 1104 c 0,10,11
 835 1104 835 1104 916 1057.5 c 128,-1,12
 997 1011 997 1011 1034 918 c 128,-1,13
 1071 825 1071 825 1047 683 c 2,14,-1
 934 0 l 1,15,-1
 758 0 l 1,16,-1
 870 670 l 2,17,18
 892 804 892 804 836.5 874.5 c 128,-1,19
 781 945 781 945 663 945 c 0,20,21
 585 945 585 945 516 912 c 128,-1,22
 447 879 447 879 399 812.5 c 128,-1,23
 351 746 351 746 334 644 c 2,0,-1
EndSplineSet
Substitution2: "'smcp' Lowercase to Small Capitals in Latin lookup 68 subtable" h.sc
Substitution2: "'sups' Superscript in Latin lookup 39 subtable" h.sups
Substitution2: "'subs' Subscript in Latin lookup 38 subtable" h.subs
Substitution2: "'sinf' Scientific Inferiors in Latin lookup 18 subtable" h.subs
AlternateSubs2: "'aalt' Access All Alternates in Latin lookup 1 subtable" h.sups h.subs h.sc
EndChar

StartChar: uni0452
Encoding: 1106 1106 643
Width: 1166
GlyphClass: 2
Flags: W
AnchorPoint: "Anchor-3" 142 0 basechar 0
AnchorPoint: "Anchor-1" 387 1490 basechar 0
AnchorPoint: "Anchor-0" 493 0 basechar 0
LayerCount: 2
Fore
SplineSet
577 -422 m 0,0,1
 544 -422 544 -422 518.5 -421 c 128,-1,2
 493 -420 493 -420 475 -418 c 1,3,-1
 500 -269 l 1,4,5
 515 -270 515 -270 540 -270.5 c 128,-1,6
 565 -271 565 -271 579 -271 c 0,7,8
 654 -271 654 -271 688 -246.5 c 128,-1,9
 722 -222 722 -222 730 -170 c 2,10,-1
 758 0 l 1,11,-1
 934 0 l 1,12,-1
 905 -170 l 2,13,14
 884 -295 884 -295 799.5 -358.5 c 128,-1,15
 715 -422 715 -422 577 -422 c 0,0,1
334 644 m 2,16,-1
 227 0 l 1,17,-1
 52 0 l 1,18,-1
 299 1490 l 1,19,-1
 474 1490 l 1,20,-1
 363 824 l 1,21,-1
 322 824 l 1,22,23
 373 924 373 924 435 985.5 c 128,-1,24
 497 1047 497 1047 569.5 1075.5 c 128,-1,25
 642 1104 642 1104 725 1104 c 0,26,27
 835 1104 835 1104 916 1057.5 c 128,-1,28
 997 1011 997 1011 1034 918 c 128,-1,29
 1071 825 1071 825 1047 683 c 2,30,-1
 934 0 l 1,31,-1
 758 0 l 1,32,-1
 870 670 l 2,33,34
 892 804 892 804 836.5 874.5 c 128,-1,35
 781 945 781 945 663 945 c 0,36,37
 585 945 585 945 516 912 c 128,-1,38
 447 879 447 879 399 812.5 c 128,-1,39
 351 746 351 746 334 644 c 2,16,-1
103 1212 m 1,40,-1
 127 1354 l 1,41,-1
 770 1354 l 1,42,-1
 746 1212 l 1,43,-1
 103 1212 l 1,40,-1
EndSplineSet
EndChar

StartChar: uni0266
Encoding: 614 614 644
Width: 1166
GlyphClass: 2
Flags: W
AnchorPoint: "Anchor-1" 673 1087 basechar 0
AnchorPoint: "Anchor-0" 493 0 basechar 0
LayerCount: 2
Fore
SplineSet
199 888 m 1,0,-1
 232 1087 l 1,1,-1
 258 1246 l 2,2,3
 278 1367 278 1367 364 1432 c 128,-1,4
 450 1497 450 1497 592 1497 c 0,5,6
 626 1497 626 1497 651 1496 c 128,-1,7
 676 1495 676 1495 694 1493 c 1,8,-1
 669 1344 l 1,9,10
 653 1345 653 1345 628 1345.5 c 128,-1,11
 603 1346 603 1346 589 1346 c 0,12,13
 517 1346 517 1346 479.5 1322.5 c 128,-1,14
 442 1299 442 1299 434 1246 c 2,15,-1
 407 1087 l 1,16,-1
 374 888 l 1,17,-1
 199 888 l 1,0,-1
333 638 m 2,18,-1
 227 0 l 1,19,-1
 52 0 l 1,20,-1
 232 1087 l 1,21,-1
 402 1087 l 1,22,-1
 359 824 l 1,23,-1
 321 829 l 1,24,25
 397 977 397 977 498 1040.5 c 128,-1,26
 599 1104 599 1104 722 1104 c 0,27,28
 835 1104 835 1104 916 1056 c 128,-1,29
 997 1008 997 1008 1033.5 913.5 c 128,-1,30
 1070 819 1070 819 1046 677 c 2,31,-1
 934 0 l 1,32,-1
 758 0 l 1,33,-1
 870 676 l 2,34,35
 893 810 893 810 840.5 877.5 c 128,-1,36
 788 945 788 945 674 945 c 0,37,38
 593 945 593 945 521.5 910.5 c 128,-1,39
 450 876 450 876 400 808 c 128,-1,40
 350 740 350 740 333 638 c 2,18,-1
EndSplineSet
EndChar

StartChar: uni0267
Encoding: 615 615 645
Width: 1166
GlyphClass: 2
Flags: W
AnchorPoint: "Anchor-1" 673 1087 basechar 0
AnchorPoint: "Anchor-0" 493 0 basechar 0
LayerCount: 2
Fore
SplineSet
577 -422 m 0,0,1
 544 -422 544 -422 518.5 -421 c 128,-1,2
 493 -420 493 -420 475 -418 c 1,3,-1
 500 -269 l 1,4,5
 515 -270 515 -270 540 -270.5 c 128,-1,6
 565 -271 565 -271 579 -271 c 0,7,8
 654 -271 654 -271 688 -246.5 c 128,-1,9
 722 -222 722 -222 730 -170 c 2,10,-1
 758 0 l 1,11,-1
 934 0 l 1,12,-1
 905 -170 l 2,13,14
 884 -295 884 -295 799.5 -358.5 c 128,-1,15
 715 -422 715 -422 577 -422 c 0,0,1
333 638 m 2,16,-1
 227 0 l 1,17,-1
 52 0 l 1,18,-1
 232 1087 l 1,19,-1
 402 1087 l 1,20,-1
 359 824 l 1,21,-1
 321 829 l 1,22,23
 397 977 397 977 498 1040.5 c 128,-1,24
 599 1104 599 1104 722 1104 c 0,25,26
 835 1104 835 1104 916 1056 c 128,-1,27
 997 1008 997 1008 1033.5 913.5 c 128,-1,28
 1070 819 1070 819 1046 677 c 2,29,-1
 934 0 l 1,30,-1
 758 0 l 1,31,-1
 870 676 l 2,32,33
 893 810 893 810 840.5 877.5 c 128,-1,34
 788 945 788 945 674 945 c 0,35,36
 593 945 593 945 521.5 910.5 c 128,-1,37
 450 876 450 876 400 808 c 128,-1,38
 350 740 350 740 333 638 c 2,16,-1
199 888 m 1,39,-1
 232 1087 l 1,40,-1
 258 1246 l 2,41,42
 278 1367 278 1367 364 1432 c 128,-1,43
 450 1497 450 1497 592 1497 c 0,44,45
 626 1497 626 1497 651 1496 c 128,-1,46
 676 1495 676 1495 694 1493 c 1,47,-1
 669 1344 l 1,48,49
 653 1345 653 1345 628 1345.5 c 128,-1,50
 603 1346 603 1346 589 1346 c 0,51,52
 517 1346 517 1346 479.5 1322.5 c 128,-1,53
 442 1299 442 1299 434 1246 c 2,54,-1
 407 1087 l 1,55,-1
 374 888 l 1,56,-1
 199 888 l 1,39,-1
EndSplineSet
EndChar

StartChar: uni0195
Encoding: 405 405 646
Width: 1912
Flags: W
LayerCount: 2
Fore
SplineSet
52 0 m 1,0,-1
 299 1490 l 1,1,-1
 474 1490 l 1,2,-1
 384 941 l 1,3,-1
 400 941 l 1,4,5
 453 1030 453 1030 540.5 1081 c 128,-1,6
 628 1132 628 1132 760 1132 c 0,7,8
 874 1132 874 1132 952 1086.5 c 128,-1,9
 1030 1041 1030 1041 1062.5 947.5 c 128,-1,10
 1095 854 1095 854 1071 710 c 2,11,-1
 1046 558 l 1,12,-1
 869 558 l 1,13,-1
 892 697 l 2,14,15
 913 829 913 829 857 901.5 c 128,-1,16
 801 974 801 974 680 974 c 0,17,18
 598 974 598 974 526 939 c 128,-1,19
 454 904 454 904 404.5 836.5 c 128,-1,20
 355 769 355 769 339 671 c 2,21,-1
 228 0 l 1,22,-1
 52 0 l 1,0,-1
1148 -20 m 0,23,24
 1042 -20 1042 -20 965 29 c 128,-1,25
 888 78 888 78 855.5 180 c 128,-1,26
 823 282 823 282 850 442 c 2,27,-1
 869 558 l 1,28,-1
 1046 558 l 1,29,-1
 1027 442 l 2,30,31
 1005 314 1005 314 1028.5 247.5 c 128,-1,32
 1052 181 1052 181 1097.5 158 c 128,-1,33
 1143 135 1143 135 1186 134 c 0,34,35
 1276 135 1276 135 1366.5 215 c 128,-1,36
 1457 295 1457 295 1535 477.5 c 128,-1,37
 1613 660 1613 660 1664 967 c 2,38,-1
 1689 1118 l 1,39,-1
 1866 1118 l 1,40,-1
 1841 967 l 2,41,42
 1783 617 1783 617 1677 399.5 c 128,-1,43
 1571 182 1571 182 1434.5 81 c 128,-1,44
 1298 -20 1298 -20 1148 -20 c 0,23,24
EndSplineSet
EndChar

StartChar: hturn
Encoding: 613 613 647
Width: 1166
GlyphClass: 2
Flags: W
AnchorPoint: "Anchor-3" 1025 1087 basechar 0
AnchorPoint: "Anchor-1" 676 1087 basechar 0
AnchorPoint: "Anchor-0" 674 1087 basechar 0
LayerCount: 2
Fore
SplineSet
833 443 m 2,0,-1
 939 1087 l 1,1,-1
 1114 1087 l 1,2,-1
 867 -403 l 1,3,-1
 692 -403 l 1,4,-1
 803 264 l 1,5,-1
 845 264 l 1,6,7
 794 164 794 164 732 102 c 128,-1,8
 670 40 670 40 597.5 11.5 c 128,-1,9
 525 -17 525 -17 442 -17 c 0,10,11
 332 -17 332 -17 250.5 29.5 c 128,-1,12
 169 76 169 76 132.5 170 c 128,-1,13
 96 264 96 264 119 404 c 2,14,-1
 233 1087 l 1,15,-1
 408 1087 l 1,16,-1
 297 418 l 2,17,18
 275 284 275 284 330.5 213 c 128,-1,19
 386 142 386 142 503 142 c 0,20,21
 581 142 581 142 650 175 c 128,-1,22
 719 208 719 208 767.5 275 c 128,-1,23
 816 342 816 342 833 443 c 2,0,-1
EndSplineSet
EndChar

StartChar: hturnlthook
Encoding: 686 686 648
Width: 1262
Flags: W
LayerCount: 2
Fore
SplineSet
785 -418 m 1,0,-1
 898 264 l 1,1,-1
 940 264 l 1,2,3
 864 116 864 116 759.5 49.5 c 128,-1,4
 655 -17 655 -17 529 -17 c 0,5,6
 419 -17 419 -17 340 30 c 128,-1,7
 261 77 261 77 226.5 170.5 c 128,-1,8
 192 264 192 264 215 404 c 2,9,-1
 280 799 l 2,10,11
 294 884 294 884 256.5 914 c 128,-1,12
 219 944 219 944 139 944 c 0,13,14
 129 944 129 944 119.5 943.5 c 128,-1,15
 110 943 110 943 100.5 942.5 c 128,-1,16
 91 942 91 942 83 941 c 1,17,-1
 108 1089 l 1,18,19
 127 1093 127 1093 150 1093.5 c 128,-1,20
 173 1094 173 1094 201 1094 c 0,21,22
 269 1094 269 1094 321.5 1075.5 c 128,-1,23
 374 1057 374 1057 408.5 1020.5 c 128,-1,24
 443 984 443 984 455.5 929.5 c 128,-1,25
 468 875 468 875 456 803 c 2,26,-1
 393 418 l 2,27,28
 371 286 371 286 425 214 c 128,-1,29
 479 142 479 142 598 142 c 0,30,31
 676 142 676 142 745 175 c 128,-1,32
 814 208 814 208 862.5 275 c 128,-1,33
 911 342 911 342 928 443 c 2,34,-1
 1034 1087 l 1,35,-1
 1209 1087 l 1,36,-1
 960 -418 l 1,37,-1
 785 -418 l 1,0,-1
EndSplineSet
EndChar

StartChar: hturnhook2
Encoding: 687 687 649
Width: 1262
Flags: W
LayerCount: 2
Fore
SplineSet
1071 -422 m 0,0,1
 932 -422 932 -422 869 -358 c 128,-1,2
 806 -294 806 -294 826 -170 c 2,3,-1
 898 264 l 1,4,-1
 939 264 l 1,5,6
 864 116 864 116 759.5 49.5 c 128,-1,7
 655 -17 655 -17 529 -17 c 0,8,9
 419 -17 419 -17 340 30 c 128,-1,10
 261 77 261 77 226.5 170.5 c 128,-1,11
 192 264 192 264 215 404 c 2,12,-1
 280 799 l 2,13,14
 294 884 294 884 256.5 914 c 128,-1,15
 219 944 219 944 139 944 c 0,16,17
 129 944 129 944 119.5 943.5 c 128,-1,18
 110 943 110 943 100.5 942.5 c 128,-1,19
 91 942 91 942 83 941 c 1,20,-1
 108 1089 l 1,21,22
 127 1093 127 1093 150 1093.5 c 128,-1,23
 173 1094 173 1094 201 1094 c 0,24,25
 269 1094 269 1094 321.5 1075.5 c 128,-1,26
 374 1057 374 1057 408.5 1020.5 c 128,-1,27
 443 984 443 984 455.5 929.5 c 128,-1,28
 468 875 468 875 456 803 c 2,29,-1
 392 418 l 2,30,31
 371 286 371 286 425 214 c 128,-1,32
 479 142 479 142 598 142 c 0,33,34
 676 142 676 142 745 175 c 128,-1,35
 814 208 814 208 862.5 275 c 128,-1,36
 911 342 911 342 928 443 c 2,37,-1
 1034 1087 l 1,38,-1
 1209 1087 l 1,39,-1
 1001 -170 l 2,40,41
 992 -224 992 -224 1019.5 -247.5 c 128,-1,42
 1047 -271 1047 -271 1119 -271 c 0,43,44
 1132 -271 1132 -271 1157.5 -270.5 c 128,-1,45
 1183 -270 1183 -270 1199 -269 c 1,46,-1
 1175 -418 l 1,47,48
 1163 -419 1163 -419 1147 -420 c 128,-1,49
 1131 -421 1131 -421 1112.5 -421.5 c 128,-1,50
 1094 -422 1094 -422 1071 -422 c 0,0,1
EndSplineSet
EndChar

StartChar: dotlessi
Encoding: 305 305 660
Width: 460
GlyphClass: 2
Flags: W
AnchorPoint: "Anchor-4" 228 0 basechar 0
AnchorPoint: "Anchor-1" 321 1087 basechar 0
AnchorPoint: "Anchor-0" 141 0 basechar 0
LayerCount: 2
Fore
SplineSet
53 0 m 1,0,-1
 232 1087 l 1,1,-1
 408 1087 l 1,2,-1
 228 0 l 1,3,-1
 53 0 l 1,0,-1
EndSplineSet
EndChar

StartChar: uni0237
Encoding: 567 567 682
Width: 459
GlyphClass: 2
Flags: W
AnchorPoint: "Anchor-1" 320 1087 basechar 0
AnchorPoint: "Anchor-0" 7 -458 basechar 0
LayerCount: 2
Fore
SplineSet
232 1087 m 1,0,-1
 407 1087 l 1,1,-1
 208 -114 l 2,2,3
 193 -205 193 -205 147.5 -273.5 c 128,-1,4
 102 -342 102 -342 28 -380 c 128,-1,5
 -46 -418 -46 -418 -145 -418 c 2,6,-1
 -200 -418 l 1,7,-1
 -174 -260 l 1,8,-1
 -128 -260 l 2,9,10
 -57 -260 -57 -260 -17.5 -220.5 c 128,-1,11
 22 -181 22 -181 35 -101 c 2,12,-1
 232 1087 l 1,0,-1
EndSplineSet
EndChar

StartChar: i.sc
Encoding: 60950 60950 689
Width: 616
GlyphClass: 2
Flags: W
AnchorPoint: "Anchor-4" 468 0 basechar 0
AnchorPoint: "Anchor-1" 398 1087 basechar 0
AnchorPoint: "Anchor-0" 218 0 basechar 0
LayerCount: 2
Fore
SplineSet
-32 0 m 1,0,-1
 -8 149 l 1,1,-1
 155 149 l 1,2,-1
 286 939 l 1,3,-1
 123 939 l 1,4,-1
 148 1087 l 1,5,-1
 648 1087 l 1,6,-1
 623 939 l 1,7,-1
 461 939 l 1,8,-1
 330 149 l 1,9,-1
 492 149 l 1,10,-1
 468 0 l 1,11,-1
 -32 0 l 1,0,-1
EndSplineSet
EndChar

StartChar: jcrosstail.ccmp
Encoding: 57423 57423 691
Width: 678
GlyphClass: 2
Flags: W
AnchorPoint: "Anchor-4" 452 0 basechar 0
AnchorPoint: "Anchor-1" 545 1087 basechar 0
AnchorPoint: "Anchor-0" 274 -460 basechar 0
LayerCount: 2
Fore
SplineSet
90 -418 m 0,0,1
 0 -418 0 -418 -59 -383 c 128,-1,2
 -118 -348 -118 -348 -143 -288 c 128,-1,3
 -168 -228 -168 -228 -156 -154 c 0,4,5
 -143 -71 -143 -71 -92 -10.5 c 128,-1,6
 -41 50 -41 50 32.5 83 c 128,-1,7
 106 116 106 116 187 116 c 2,8,-1
 682 116 l 1,9,-1
 656 -46 l 1,10,-1
 161 -46 l 2,11,12
 108 -47 108 -47 70 -79 c 128,-1,13
 32 -111 32 -111 25 -158 c 0,14,15
 19 -201 19 -201 43 -231.5 c 128,-1,16
 67 -262 67 -262 114 -262 c 0,17,18
 176 -262 176 -262 212.5 -212 c 128,-1,19
 249 -162 249 -162 257 -116 c 2,20,-1
 296 122 l 1,21,-1
 467 122 l 1,22,-1
 431 -98 l 2,23,24
 422 -160 422 -160 393 -217.5 c 128,-1,25
 364 -275 364 -275 319.5 -320.5 c 128,-1,26
 275 -366 275 -366 217 -392 c 128,-1,27
 159 -418 159 -418 90 -418 c 0,0,1
277 0 m 1,28,-1
 457 1087 l 1,29,-1
 632 1087 l 1,30,-1
 452 0 l 1,31,-1
 277 0 l 1,28,-1
EndSplineSet
EndChar

StartChar: k
Encoding: 107 107 698
Width: 1082
GlyphClass: 2
Flags: W
AnchorPoint: "Anchor-1" 387 1490 basechar 0
AnchorPoint: "Anchor-0" 473 0 basechar 0
LayerCount: 2
Fore
SplineSet
281 391 m 1,0,-1
 316 603 l 1,1,-1
 339 603 l 1,2,-1
 904 1087 l 1,3,-1
 1125 1087 l 1,4,-1
 524 572 l 1,5,-1
 506 572 l 1,6,-1
 281 391 l 1,0,-1
52 0 m 1,7,-1
 299 1490 l 1,8,-1
 474 1490 l 1,9,-1
 227 0 l 1,10,-1
 52 0 l 1,7,-1
756 0 m 1,11,-1
 415 533 l 1,12,-1
 560 655 l 1,13,-1
 980 0 l 1,14,-1
 756 0 l 1,11,-1
EndSplineSet
Substitution2: "'sups' Superscript in Latin lookup 39 subtable" k.sups
Substitution2: "'subs' Subscript in Latin lookup 38 subtable" k.subs
Substitution2: "'sinf' Scientific Inferiors in Latin lookup 18 subtable" k.subs
AlternateSubs2: "'aalt' Access All Alternates in Latin lookup 1 subtable" k.sups k.subs
EndChar

StartChar: uni0199
Encoding: 409 409 699
Width: 1083
GlyphClass: 2
Flags: W
AnchorPoint: "Anchor-1" 321 1087 basechar 0
AnchorPoint: "Anchor-0" 474 0 basechar 0
LayerCount: 2
Fore
SplineSet
200 888 m 1,0,-1
 233 1087 l 1,1,-1
 259 1246 l 2,2,3
 279 1367 279 1367 365 1432 c 128,-1,4
 451 1497 451 1497 593 1497 c 0,5,6
 627 1497 627 1497 652 1496 c 128,-1,7
 677 1495 677 1495 695 1493 c 1,8,-1
 670 1344 l 1,9,10
 654 1345 654 1345 629 1345.5 c 128,-1,11
 604 1346 604 1346 590 1346 c 0,12,13
 518 1346 518 1346 480.5 1322.5 c 128,-1,14
 443 1299 443 1299 435 1246 c 2,15,-1
 408 1087 l 1,16,-1
 375 888 l 1,17,-1
 200 888 l 1,0,-1
282 391 m 1,18,-1
 317 603 l 1,19,-1
 340 603 l 1,20,-1
 905 1087 l 1,21,-1
 1126 1087 l 1,22,-1
 525 572 l 1,23,-1
 507 572 l 1,24,-1
 282 391 l 1,18,-1
53 0 m 1,25,-1
 233 1087 l 1,26,-1
 408 1087 l 1,27,-1
 228 0 l 1,28,-1
 53 0 l 1,25,-1
757 0 m 1,29,-1
 416 533 l 1,30,-1
 561 655 l 1,31,-1
 981 0 l 1,32,-1
 757 0 l 1,29,-1
EndSplineSet
EndChar

StartChar: kturn
Encoding: 670 670 705
Width: 1082
GlyphClass: 2
Flags: W
AnchorPoint: "Anchor-1" 641 1087 basechar 0
AnchorPoint: "Anchor-0" 610 1087 basechar 0
LayerCount: 2
Fore
SplineSet
801 696 m 1,0,-1
 766 484 l 1,1,-1
 743 484 l 1,2,-1
 179 0 l 1,3,-1
 -43 0 l 1,4,-1
 558 516 l 1,5,-1
 576 516 l 1,6,-1
 801 696 l 1,0,-1
1030 1087 m 1,7,-1
 783 -403 l 1,8,-1
 608 -403 l 1,9,-1
 855 1087 l 1,10,-1
 1030 1087 l 1,7,-1
326 1087 m 1,11,-1
 667 555 l 1,12,-1
 523 432 l 1,13,-1
 103 1087 l 1,14,-1
 326 1087 l 1,11,-1
EndSplineSet
EndChar

StartChar: k.base
Encoding: 60951 60951 706
Width: 1083
GlyphClass: 2
Flags: W
AnchorPoint: "Anchor-1" 320 1087 basechar 0
AnchorPoint: "Anchor-0" 473 0 basechar 0
LayerCount: 2
Fore
SplineSet
282 391 m 1,0,-1
 317 603 l 1,1,-1
 340 603 l 1,2,-1
 904 1087 l 1,3,-1
 1126 1087 l 1,4,-1
 525 572 l 1,5,-1
 507 572 l 1,6,-1
 282 391 l 1,0,-1
53 0 m 1,7,-1
 233 1087 l 1,8,-1
 408 1087 l 1,9,-1
 228 0 l 1,10,-1
 53 0 l 1,7,-1
757 0 m 1,11,-1
 416 533 l 1,12,-1
 560 655 l 1,13,-1
 980 0 l 1,14,-1
 757 0 l 1,11,-1
EndSplineSet
EndChar

StartChar: l
Encoding: 1114124 -1 707
Width: 460
GlyphClass: 2
Flags: W
AnchorPoint: "Anchor-1" 387 1490 basechar 0
AnchorPoint: "Anchor-0" 139 0 basechar 0
LayerCount: 2
Fore
SplineSet
474 1490 m 1,0,-1
 227 0 l 1,1,-1
 52 0 l 1,2,-1
 299 1490 l 1,3,-1
 474 1490 l 1,0,-1
EndSplineSet
Substitution2: "'smcp' Lowercase to Small Capitals in Latin lookup 68 subtable" l.sc
Substitution2: "'c2sc' Capitals to Small Capitals in Latin lookup 67 subtable" l.sc
Substitution2: "'cv05' Character Variants 05 in Latin lookup 59 subtable" l.ss02
Substitution2: "'ss04' Style Set 4 in Latin lookup 50 subtable" l.ss02
Substitution2: "'ss02' Style Set 2 in Latin lookup 48 subtable" l.ss02
Substitution2: "'salt' Stylistic Alternatives in Latin lookup 46 subtable" l.ss02
Substitution2: "'sups' Superscript in Latin lookup 39 subtable" l.sups
Substitution2: "'subs' Subscript in Latin lookup 38 subtable" l.subs
Substitution2: "'sinf' Scientific Inferiors in Latin lookup 18 subtable" l.subs
AlternateSubs2: "'aalt' Access All Alternates in Latin lookup 1 subtable" l.sc l.sups l.subs
EndChar

StartChar: lrthook
Encoding: 621 621 711
Width: 460
GlyphClass: 2
Flags: W
AnchorPoint: "Anchor-1" 387 1490 basechar 0
AnchorPoint: "Anchor-0" 139 0 basechar 0
LayerCount: 2
Fore
SplineSet
269 -422 m 0,0,1
 131 -422 131 -422 67 -358.5 c 128,-1,2
 3 -295 3 -295 24 -170 c 2,3,-1
 52 0 l 1,4,-1
 227 0 l 1,5,-1
 199 -170 l 2,6,7
 190 -223 190 -223 217 -247 c 128,-1,8
 244 -271 244 -271 317 -271 c 0,9,10
 331 -271 331 -271 356 -270.5 c 128,-1,11
 381 -270 381 -270 397 -269 c 1,12,-1
 372 -418 l 1,13,14
 354 -420 354 -420 328 -421 c 128,-1,15
 302 -422 302 -422 269 -422 c 0,0,1
474 1490 m 1,16,-1
 227 0 l 1,17,-1
 52 0 l 1,18,-1
 299 1490 l 1,19,-1
 474 1490 l 1,16,-1
EndSplineSet
EndChar

StartChar: uni026C
Encoding: 1114128 -1 712
Width: 833
Flags: W
LayerCount: 2
Fore
SplineSet
840 598 m 1,0,-1
 339 598 l 2,1,2
 258 598 258 598 195.5 630 c 128,-1,3
 133 662 133 662 102 722.5 c 128,-1,4
 71 783 71 783 84 866 c 0,5,6
 97 940 97 940 142 1000 c 128,-1,7
 187 1060 187 1060 259 1096 c 128,-1,8
 331 1132 331 1132 423 1132 c 0,9,10
 493 1132 493 1132 543.5 1110.5 c 128,-1,11
 594 1089 594 1089 625 1050 c 128,-1,12
 656 1011 656 1011 666 957.5 c 128,-1,13
 676 904 676 904 666 840 c 2,14,-1
 604 467 l 1,15,-1
 428 467 l 1,16,-1
 492 860 l 2,17,18
 500 906 500 906 477.5 942 c 128,-1,19
 455 978 455 978 393 978 c 0,20,21
 362 978 362 978 335.5 962 c 128,-1,22
 309 946 309 946 291 920.5 c 128,-1,23
 273 895 273 895 268 864 c 0,24,25
 262 823 262 823 289 791.5 c 128,-1,26
 316 760 316 760 368 760 c 2,27,-1
 866 760 l 1,28,-1
 840 598 l 1,0,-1
774 1490 m 1,29,-1
 527 0 l 1,30,-1
 350 0 l 1,31,-1
 596 1490 l 1,32,-1
 774 1490 l 1,29,-1
EndSplineSet
Substitution2: "'cv05' Character Variants 05 in Latin lookup 59 subtable" uni026C.ss02
Substitution2: "'ss04' Style Set 4 in Latin lookup 50 subtable" uni026C.ss02
Substitution2: "'ss02' Style Set 2 in Latin lookup 48 subtable" uni026C.ss02
Substitution2: "'salt' Stylistic Alternatives in Latin lookup 46 subtable" uni026C.ss02
EndChar

StartChar: uni0234
Encoding: 564 564 713
Width: 780
GlyphClass: 2
Flags: W
AnchorPoint: "Anchor-1" 387 1490 basechar 0
AnchorPoint: "Anchor-0" 139 0 basechar 0
LayerCount: 2
Fore
SplineSet
295 -418 m 0,0,1
 181 -418 181 -418 120.5 -370.5 c 128,-1,2
 60 -323 60 -323 41.5 -250 c 128,-1,3
 23 -177 23 -177 35 -102 c 2,4,-1
 92 243 l 1,5,-1
 267 243 l 1,6,-1
 207 -120 l 2,7,8
 195 -193 195 -193 230 -230.5 c 128,-1,9
 265 -268 265 -268 319 -268 c 0,10,11
 370 -268 370 -268 407.5 -235.5 c 128,-1,12
 445 -203 445 -203 454 -154 c 0,13,14
 461 -110 461 -110 441 -79 c 128,-1,15
 421 -48 421 -48 375 -41 c 0,16,17
 342 -35 342 -35 310 -42 c 128,-1,18
 278 -49 278 -49 248.5 -65.5 c 128,-1,19
 219 -82 219 -82 191 -106 c 2,20,-1
 -129 -383 l 1,21,-1
 -222 -266 l 1,22,-1
 47 -32 l 2,23,24
 128 38 128 38 221 74.5 c 128,-1,25
 314 111 314 111 395 111 c 0,26,27
 519 111 519 111 586.5 38 c 128,-1,28
 654 -35 654 -35 635 -153 c 256,29,30
 616 -271 616 -271 524 -344.5 c 128,-1,31
 432 -418 432 -418 295 -418 c 0,0,1
474 1490 m 1,32,-1
 227 0 l 1,33,-1
 52 0 l 1,34,-1
 299 1490 l 1,35,-1
 474 1490 l 1,32,-1
EndSplineSet
EndChar

StartChar: l.ss02
Encoding: 57424 57424 722
AltUni2: 00006c.ffffffff.0
Width: 517
GlyphClass: 2
Flags: W
AnchorPoint: "Anchor-1" 387 1490 basechar 0
AnchorPoint: "Anchor-0" 204 0 basechar 0
LayerCount: 2
Fore
SplineSet
313 -4 m 0,0,1
 177 -4 177 -4 124.5 57 c 128,-1,2
 72 118 72 118 93 243 c 2,3,-1
 300 1490 l 1,4,-1
 475 1490 l 1,5,-1
 273 275 l 2,6,7
 261 203 261 203 276.5 176.5 c 128,-1,8
 292 150 292 150 353 150 c 0,9,10
 371 150 371 150 385.5 151 c 128,-1,11
 400 152 400 152 410 154 c 1,12,-1
 403 5 l 1,13,14
 385 1 385 1 361 -1.5 c 128,-1,15
 337 -4 337 -4 313 -4 c 0,0,1
EndSplineSet
EndChar

StartChar: uni026C.ss02
Encoding: 57428 57428 726
AltUni2: 00026c.ffffffff.0
Width: 822
GlyphClass: 2
Flags: W
AnchorPoint: "Anchor-1" 671 1490 basechar 0
AnchorPoint: "Anchor-0" 488 0 basechar 0
LayerCount: 2
Fore
SplineSet
379 600 m 2,0,1
 203 600 203 600 127 673 c 128,-1,2
 51 746 51 746 72 870 c 0,3,4
 85 947 85 947 126.5 1006 c 128,-1,5
 168 1065 168 1065 230 1098.5 c 128,-1,6
 292 1132 292 1132 364 1132 c 0,7,8
 443 1132 443 1132 484 1094 c 128,-1,9
 525 1056 525 1056 535 991 c 128,-1,10
 545 926 545 926 532 844 c 2,11,-1
 525 802 l 1,12,-1
 469 802 l 1,13,-1
 479 862 l 2,14,15
 487 909 487 909 463.5 944.5 c 128,-1,16
 440 980 440 980 378 980 c 0,17,18
 332 980 332 980 295.5 946.5 c 128,-1,19
 259 913 259 913 251 866 c 0,20,21
 244 823 244 823 271.5 784.5 c 128,-1,22
 299 746 299 746 351 746 c 2,23,-1
 795 746 l 1,24,-1
 771 600 l 1,25,-1
 379 600 l 2,0,1
597 -4 m 0,26,27
 461 -4 461 -4 408.5 57 c 128,-1,28
 356 118 356 118 377 243 c 2,29,-1
 584 1490 l 1,30,-1
 759 1490 l 1,31,-1
 557 275 l 2,32,33
 545 203 545 203 560.5 176.5 c 128,-1,34
 576 150 576 150 637 150 c 0,35,36
 655 150 655 150 669.5 151 c 128,-1,37
 684 152 684 152 694 154 c 1,38,-1
 687 5 l 1,39,40
 669 1 669 1 645 -1.5 c 128,-1,41
 621 -4 621 -4 597 -4 c 0,26,27
EndSplineSet
EndChar

StartChar: l.sc
Encoding: 60952 60952 736
Width: 800
GlyphClass: 2
Flags: W
AnchorPoint: "Anchor-1" 285 1087 basechar 0
AnchorPoint: "Anchor-0" 349 0 basechar 0
LayerCount: 2
Fore
SplineSet
17 0 m 1,0,-1
 197 1087 l 1,1,-1
 372 1087 l 1,2,-1
 216 150 l 1,3,-1
 717 150 l 1,4,-1
 692 0 l 1,5,-1
 17 0 l 1,0,-1
EndSplineSet
EndChar

StartChar: m
Encoding: 109 109 737
Width: 1756
GlyphClass: 2
Flags: W
AnchorPoint: "Anchor-1" 968 1087 basechar 0
AnchorPoint: "Anchor-0" 788 0 basechar 0
LayerCount: 2
Fore
SplineSet
52 0 m 1,0,-1
 232 1087 l 1,1,-1
 403 1087 l 1,2,-1
 365 854 l 1,3,-1
 347 859 l 1,4,5
 387 944 387 944 445.5 998.5 c 128,-1,6
 504 1053 504 1053 572 1080 c 128,-1,7
 640 1107 640 1107 709 1107 c 0,8,9
 794 1107 794 1107 854.5 1071.5 c 128,-1,10
 915 1036 915 1036 947.5 977.5 c 128,-1,11
 980 919 980 919 982 847 c 1,12,-1
 954 859 l 1,13,14
 988 933 988 933 1046.5 989 c 128,-1,15
 1105 1045 1105 1045 1182 1076 c 128,-1,16
 1259 1107 1259 1107 1345 1107 c 0,17,18
 1445 1107 1445 1107 1520 1063.5 c 128,-1,19
 1595 1020 1595 1020 1630 933.5 c 128,-1,20
 1665 847 1665 847 1643 717 c 2,21,-1
 1524 0 l 1,22,-1
 1349 0 l 1,23,-1
 1469 727 l 2,24,25
 1483 809 1483 809 1460.5 857 c 128,-1,26
 1438 905 1438 905 1392.5 926 c 128,-1,27
 1347 947 1347 947 1290 947 c 0,28,29
 1210 947 1210 947 1146.5 913.5 c 128,-1,30
 1083 880 1083 880 1043 823 c 128,-1,31
 1003 766 1003 766 991 695 c 2,32,-1
 876 0 l 1,33,-1
 701 0 l 1,34,-1
 824 745 l 2,35,36
 840 840 840 840 788.5 893.5 c 128,-1,37
 737 947 737 947 647 947 c 0,38,39
 579 947 579 947 513.5 915 c 128,-1,40
 448 883 448 883 400.5 820.5 c 128,-1,41
 353 758 353 758 338 668 c 2,42,-1
 227 0 l 1,43,-1
 52 0 l 1,0,-1
EndSplineSet
Substitution2: "'smcp' Lowercase to Small Capitals in Latin lookup 68 subtable" m.sc
Substitution2: "'c2sc' Capitals to Small Capitals in Latin lookup 67 subtable" m.sc
Substitution2: "'sups' Superscript in Latin lookup 39 subtable" m.sups
Substitution2: "'subs' Subscript in Latin lookup 38 subtable" m.subs
Substitution2: "'sinf' Scientific Inferiors in Latin lookup 18 subtable" m.subs
AlternateSubs2: "'aalt' Access All Alternates in Latin lookup 1 subtable" m.sups m.subs m.sc
EndChar

StartChar: uni0271
Encoding: 625 625 738
Width: 1756
GlyphClass: 2
Flags: W
AnchorPoint: "Anchor-1" 968 1087 basechar 0
AnchorPoint: "Anchor-0" 788 0 basechar 0
LayerCount: 2
Fore
SplineSet
1168 -422 m 0,0,1
 1134 -422 1134 -422 1108.5 -421 c 128,-1,2
 1083 -420 1083 -420 1066 -418 c 1,3,-1
 1090 -269 l 1,4,5
 1105 -270 1105 -270 1130.5 -270.5 c 128,-1,6
 1156 -271 1156 -271 1169 -271 c 0,7,8
 1245 -271 1245 -271 1278.5 -246.5 c 128,-1,9
 1312 -222 1312 -222 1321 -170 c 2,10,-1
 1349 0 l 1,11,-1
 1524 0 l 1,12,-1
 1496 -170 l 2,13,14
 1475 -295 1475 -295 1390.5 -358.5 c 128,-1,15
 1306 -422 1306 -422 1168 -422 c 0,0,1
52 0 m 1,16,-1
 232 1087 l 1,17,-1
 403 1087 l 1,18,-1
 365 854 l 1,19,-1
 347 859 l 1,20,21
 387 944 387 944 445.5 998.5 c 128,-1,22
 504 1053 504 1053 572 1080 c 128,-1,23
 640 1107 640 1107 709 1107 c 0,24,25
 794 1107 794 1107 854.5 1071.5 c 128,-1,26
 915 1036 915 1036 947.5 977.5 c 128,-1,27
 980 919 980 919 982 847 c 1,28,-1
 954 859 l 1,29,30
 988 933 988 933 1046.5 989 c 128,-1,31
 1105 1045 1105 1045 1182 1076 c 128,-1,32
 1259 1107 1259 1107 1345 1107 c 0,33,34
 1445 1107 1445 1107 1520 1063.5 c 128,-1,35
 1595 1020 1595 1020 1630 933.5 c 128,-1,36
 1665 847 1665 847 1643 717 c 2,37,-1
 1524 0 l 1,38,-1
 1349 0 l 1,39,-1
 1469 727 l 2,40,41
 1483 809 1483 809 1460.5 857 c 128,-1,42
 1438 905 1438 905 1392.5 926 c 128,-1,43
 1347 947 1347 947 1290 947 c 0,44,45
 1210 947 1210 947 1146.5 913.5 c 128,-1,46
 1083 880 1083 880 1043 823 c 128,-1,47
 1003 766 1003 766 991 695 c 2,48,-1
 876 0 l 1,49,-1
 701 0 l 1,50,-1
 824 745 l 2,51,52
 840 840 840 840 788.5 893.5 c 128,-1,53
 737 947 737 947 647 947 c 0,54,55
 579 947 579 947 513.5 915 c 128,-1,56
 448 883 448 883 400.5 820.5 c 128,-1,57
 353 758 353 758 338 668 c 2,58,-1
 227 0 l 1,59,-1
 52 0 l 1,16,-1
EndSplineSet
EndChar

StartChar: mturn
Encoding: 623 623 739
Width: 1756
GlyphClass: 2
Flags: W
AnchorPoint: "Anchor-1" 966 1087 basechar 0
AnchorPoint: "Anchor-0" 786 0 basechar 0
LayerCount: 2
Fore
SplineSet
1704 1087 m 1,0,-1
 1524 0 l 1,1,-1
 1354 0 l 1,2,-1
 1391 233 l 1,3,-1
 1410 228 l 1,4,5
 1369 145 1369 145 1311 89.5 c 128,-1,6
 1253 34 1253 34 1185 7 c 128,-1,7
 1117 -20 1117 -20 1048 -20 c 0,8,9
 962 -20 962 -20 902 15.5 c 128,-1,10
 842 51 842 51 809.5 110.5 c 128,-1,11
 777 170 777 170 774 240 c 1,12,-1
 802 229 l 1,13,14
 769 155 769 155 710 99 c 128,-1,15
 651 43 651 43 574.5 11.5 c 128,-1,16
 498 -20 498 -20 411 -20 c 0,17,18
 312 -20 312 -20 237 23.5 c 128,-1,19
 162 67 162 67 127.5 154 c 128,-1,20
 93 241 93 241 114 370 c 2,21,-1
 232 1087 l 1,22,-1
 408 1087 l 1,23,-1
 287 360 l 2,24,25
 274 279 274 279 296 231 c 128,-1,26
 318 183 318 183 364 161.5 c 128,-1,27
 410 140 410 140 467 140 c 0,28,29
 547 140 547 140 610 173.5 c 128,-1,30
 673 207 673 207 713.5 264.5 c 128,-1,31
 754 322 754 322 766 392 c 2,32,-1
 881 1087 l 1,33,-1
 1056 1087 l 1,34,-1
 933 343 l 2,35,36
 917 248 917 248 968 194 c 128,-1,37
 1019 140 1019 140 1109 140 c 0,38,39
 1178 140 1178 140 1243.5 172.5 c 128,-1,40
 1309 205 1309 205 1356.5 267 c 128,-1,41
 1404 329 1404 329 1419 420 c 2,42,-1
 1529 1087 l 1,43,-1
 1704 1087 l 1,0,-1
EndSplineSet
EndChar

StartChar: mturndescend
Encoding: 624 624 740
Width: 1756
GlyphClass: 2
Flags: W
AnchorPoint: "Anchor-1" 966 1087 basechar 0
AnchorPoint: "Anchor-0" 786 0 basechar 0
LayerCount: 2
Fore
SplineSet
1279 -418 m 1,0,-1
 1348 0 l 1,1,-1
 1518 0 l 1,2,-1
 1449 -418 l 1,3,-1
 1279 -418 l 1,0,-1
1704 1087 m 1,4,-1
 1524 0 l 1,5,-1
 1354 0 l 1,6,-1
 1391 233 l 1,7,-1
 1410 228 l 1,8,9
 1369 145 1369 145 1311 89.5 c 128,-1,10
 1253 34 1253 34 1185 7 c 128,-1,11
 1117 -20 1117 -20 1048 -20 c 0,12,13
 962 -20 962 -20 902 15.5 c 128,-1,14
 842 51 842 51 809.5 110.5 c 128,-1,15
 777 170 777 170 774 240 c 1,16,-1
 802 229 l 1,17,18
 769 155 769 155 710 99 c 128,-1,19
 651 43 651 43 574.5 11.5 c 128,-1,20
 498 -20 498 -20 411 -20 c 0,21,22
 312 -20 312 -20 237 23.5 c 128,-1,23
 162 67 162 67 127.5 154 c 128,-1,24
 93 241 93 241 114 370 c 2,25,-1
 232 1087 l 1,26,-1
 408 1087 l 1,27,-1
 287 360 l 2,28,29
 274 279 274 279 296 231 c 128,-1,30
 318 183 318 183 364 161.5 c 128,-1,31
 410 140 410 140 467 140 c 0,32,33
 547 140 547 140 610 173.5 c 128,-1,34
 673 207 673 207 713.5 264.5 c 128,-1,35
 754 322 754 322 766 392 c 2,36,-1
 881 1087 l 1,37,-1
 1056 1087 l 1,38,-1
 933 343 l 2,39,40
 917 248 917 248 968 194 c 128,-1,41
 1019 140 1019 140 1109 140 c 0,42,43
 1178 140 1178 140 1243.5 172.5 c 128,-1,44
 1309 205 1309 205 1356.5 267 c 128,-1,45
 1404 329 1404 329 1419 420 c 2,46,-1
 1529 1087 l 1,47,-1
 1704 1087 l 1,4,-1
EndSplineSet
EndChar

StartChar: n
Encoding: 110 110 744
Width: 1166
GlyphClass: 2
Flags: W
AnchorPoint: "Anchor-1" 673 1087 basechar 0
AnchorPoint: "Anchor-0" 493 0 basechar 0
LayerCount: 2
Fore
SplineSet
333 638 m 2,0,-1
 227 0 l 1,1,-1
 52 0 l 1,2,-1
 232 1087 l 1,3,-1
 402 1087 l 1,4,-1
 359 824 l 1,5,-1
 321 829 l 1,6,7
 397 977 397 977 498 1040.5 c 128,-1,8
 599 1104 599 1104 722 1104 c 0,9,10
 835 1104 835 1104 916 1056 c 128,-1,11
 997 1008 997 1008 1033.5 913.5 c 128,-1,12
 1070 819 1070 819 1046 677 c 2,13,-1
 934 0 l 1,14,-1
 758 0 l 1,15,-1
 870 676 l 2,16,17
 893 810 893 810 840.5 877.5 c 128,-1,18
 788 945 788 945 674 945 c 0,19,20
 593 945 593 945 521.5 910.5 c 128,-1,21
 450 876 450 876 400 808 c 128,-1,22
 350 740 350 740 333 638 c 2,0,-1
EndSplineSet
Substitution2: "'smcp' Lowercase to Small Capitals in Latin lookup 68 subtable" n.sc
Substitution2: "'c2sc' Capitals to Small Capitals in Latin lookup 67 subtable" n.sc
Substitution2: "'sups' Superscript in Latin lookup 39 subtable" n.sups
Substitution2: "'subs' Subscript in Latin lookup 38 subtable" n.subs
Substitution2: "'numr' Numerators in Latin lookup 19 subtable" n.numr
Substitution2: "'sinf' Scientific Inferiors in Latin lookup 18 subtable" n.subs
AlternateSubs2: "'aalt' Access All Alternates in Latin lookup 1 subtable" n.sc n.numr n.sups n.subs
EndChar

StartChar: nrthook
Encoding: 627 627 746
Width: 1166
GlyphClass: 2
Flags: W
AnchorPoint: "Anchor-1" 673 1087 basechar 0
AnchorPoint: "Anchor-0" 493 0 basechar 0
LayerCount: 2
Fore
SplineSet
975 -422 m 0,0,1
 837 -422 837 -422 773.5 -358.5 c 128,-1,2
 710 -295 710 -295 730 -170 c 2,3,-1
 758 0 l 1,4,-1
 934 0 l 1,5,-1
 905 -170 l 2,6,7
 896 -223 896 -223 923 -247 c 128,-1,8
 950 -271 950 -271 1023 -271 c 0,9,10
 1037 -271 1037 -271 1062 -270.5 c 128,-1,11
 1087 -270 1087 -270 1103 -269 c 1,12,-1
 1079 -418 l 1,13,14
 1060 -420 1060 -420 1034.5 -421 c 128,-1,15
 1009 -422 1009 -422 975 -422 c 0,0,1
333 638 m 2,16,-1
 227 0 l 1,17,-1
 52 0 l 1,18,-1
 232 1087 l 1,19,-1
 402 1087 l 1,20,-1
 359 824 l 1,21,-1
 321 829 l 1,22,23
 397 977 397 977 498 1040.5 c 128,-1,24
 599 1104 599 1104 722 1104 c 0,25,26
 835 1104 835 1104 916 1056 c 128,-1,27
 997 1008 997 1008 1033.5 913.5 c 128,-1,28
 1070 819 1070 819 1046 677 c 2,29,-1
 934 0 l 1,30,-1
 758 0 l 1,31,-1
 870 676 l 2,32,33
 893 810 893 810 840.5 877.5 c 128,-1,34
 788 945 788 945 674 945 c 0,35,36
 593 945 593 945 521.5 910.5 c 128,-1,37
 450 876 450 876 400 808 c 128,-1,38
 350 740 350 740 333 638 c 2,16,-1
EndSplineSet
EndChar

StartChar: eng
Encoding: 331 331 747
Width: 1166
GlyphClass: 2
Flags: W
AnchorPoint: "Anchor-1" 673 1087 basechar 0
AnchorPoint: "Anchor-0" 493 0 basechar 0
LayerCount: 2
Fore
SplineSet
470 -418 m 1,0,-1
 496 -260 l 1,1,2
 512 -262 512 -262 542 -262.5 c 128,-1,3
 572 -263 572 -263 585 -263 c 0,4,5
 657 -263 657 -263 689.5 -239.5 c 128,-1,6
 722 -216 722 -216 731 -162 c 2,7,-1
 758 0 l 1,8,-1
 934 0 l 1,9,-1
 905 -170 l 2,10,11
 884 -295 884 -295 799 -358.5 c 128,-1,12
 714 -422 714 -422 576 -422 c 0,13,14
 543 -422 543 -422 515.5 -421 c 128,-1,15
 488 -420 488 -420 470 -418 c 1,0,-1
333 638 m 2,16,-1
 227 0 l 1,17,-1
 52 0 l 1,18,-1
 232 1087 l 1,19,-1
 402 1087 l 1,20,-1
 359 824 l 1,21,-1
 321 829 l 1,22,23
 397 977 397 977 498 1040.5 c 128,-1,24
 599 1104 599 1104 722 1104 c 0,25,26
 835 1104 835 1104 916 1056 c 128,-1,27
 997 1008 997 1008 1033.5 913.5 c 128,-1,28
 1070 819 1070 819 1046 677 c 2,29,-1
 934 0 l 1,30,-1
 758 0 l 1,31,-1
 870 676 l 2,32,33
 893 810 893 810 840.5 877.5 c 128,-1,34
 788 945 788 945 674 945 c 0,35,36
 593 945 593 945 521.5 910.5 c 128,-1,37
 450 876 450 876 400 808 c 128,-1,38
 350 740 350 740 333 638 c 2,16,-1
EndSplineSet
EndChar

StartChar: uni0235
Encoding: 565 565 748
Width: 1486
GlyphClass: 2
Flags: W
AnchorPoint: "Anchor-1" 673 1087 basechar 0
AnchorPoint: "Anchor-0" 493 0 basechar 0
LayerCount: 2
Fore
SplineSet
1001 -418 m 0,0,1
 888 -418 888 -418 827 -370.5 c 128,-1,2
 766 -323 766 -323 748 -250 c 128,-1,3
 730 -177 730 -177 742 -102 c 2,4,-1
 798 243 l 1,5,-1
 974 243 l 1,6,-1
 914 -120 l 2,7,8
 902 -193 902 -193 937 -230.5 c 128,-1,9
 972 -268 972 -268 1026 -268 c 0,10,11
 1077 -268 1077 -268 1114.5 -235.5 c 128,-1,12
 1152 -203 1152 -203 1160 -154 c 0,13,14
 1168 -110 1168 -110 1147.5 -79 c 128,-1,15
 1127 -48 1127 -48 1082 -41 c 0,16,17
 1048 -35 1048 -35 1016 -42 c 128,-1,18
 984 -49 984 -49 954.5 -65.5 c 128,-1,19
 925 -82 925 -82 898 -106 c 2,20,-1
 577 -383 l 1,21,-1
 485 -266 l 1,22,-1
 754 -32 l 2,23,24
 834 38 834 38 927 74.5 c 128,-1,25
 1020 111 1020 111 1102 111 c 0,26,27
 1225 111 1225 111 1293 38 c 128,-1,28
 1361 -35 1361 -35 1342 -153 c 256,29,30
 1323 -271 1323 -271 1231 -344.5 c 128,-1,31
 1139 -418 1139 -418 1001 -418 c 0,0,1
333 638 m 2,32,-1
 227 0 l 1,33,-1
 52 0 l 1,34,-1
 232 1087 l 1,35,-1
 402 1087 l 1,36,-1
 359 824 l 1,37,-1
 321 829 l 1,38,39
 397 977 397 977 498 1040.5 c 128,-1,40
 599 1104 599 1104 722 1104 c 0,41,42
 835 1104 835 1104 916 1056 c 128,-1,43
 997 1008 997 1008 1033.5 913.5 c 128,-1,44
 1070 819 1070 819 1046 677 c 2,45,-1
 934 0 l 1,46,-1
 758 0 l 1,47,-1
 870 676 l 2,48,49
 893 810 893 810 840.5 877.5 c 128,-1,50
 788 945 788 945 674 945 c 0,51,52
 593 945 593 945 521.5 910.5 c 128,-1,53
 450 876 450 876 400 808 c 128,-1,54
 350 740 350 740 333 638 c 2,32,-1
EndSplineSet
EndChar

StartChar: nlfthook
Encoding: 626 626 749
Width: 1166
GlyphClass: 2
Flags: W
AnchorPoint: "Anchor-1" 673 1087 basechar 0
AnchorPoint: "Anchor-0" 493 0 basechar 0
LayerCount: 2
Fore
SplineSet
-129 -422 m 0,0,1
 -162 -422 -162 -422 -187.5 -421 c 128,-1,2
 -213 -420 -213 -420 -231 -418 c 1,3,-1
 -206 -269 l 1,4,5
 -191 -270 -191 -270 -166 -270.5 c 128,-1,6
 -141 -271 -141 -271 -127 -271 c 0,7,8
 -52 -271 -52 -271 -18 -246.5 c 128,-1,9
 16 -222 16 -222 24 -170 c 2,10,-1
 52 0 l 1,11,-1
 228 0 l 1,12,-1
 199 -170 l 2,13,14
 178 -295 178 -295 93.5 -358.5 c 128,-1,15
 9 -422 9 -422 -129 -422 c 0,0,1
333 638 m 2,16,-1
 227 0 l 1,17,-1
 52 0 l 1,18,-1
 232 1087 l 1,19,-1
 402 1087 l 1,20,-1
 359 824 l 1,21,-1
 321 829 l 1,22,23
 397 977 397 977 498 1040.5 c 128,-1,24
 599 1104 599 1104 722 1104 c 0,25,26
 835 1104 835 1104 916 1056 c 128,-1,27
 997 1008 997 1008 1033.5 913.5 c 128,-1,28
 1070 819 1070 819 1046 677 c 2,29,-1
 934 0 l 1,30,-1
 758 0 l 1,31,-1
 870 676 l 2,32,33
 893 810 893 810 840.5 877.5 c 128,-1,34
 788 945 788 945 674 945 c 0,35,36
 593 945 593 945 521.5 910.5 c 128,-1,37
 450 876 450 876 400 808 c 128,-1,38
 350 740 350 740 333 638 c 2,16,-1
EndSplineSet
EndChar

StartChar: n.sc
Encoding: 60953 60953 760
Width: 1244
GlyphClass: 2
Flags: W
AnchorPoint: "Anchor-1" 712 1087 basechar 0
AnchorPoint: "Anchor-0" 532 0 basechar 0
LayerCount: 2
Fore
SplineSet
53 0 m 1,0,-1
 233 1087 l 1,1,-1
 458 1087 l 1,2,-1
 759 456 l 2,3,4
 803 363 803 363 835 283 c 128,-1,5
 867 203 867 203 894 126 c 1,6,-1
 862 126 l 1,7,8
 870 180 870 180 878 233.5 c 128,-1,9
 886 287 886 287 894.5 342.5 c 128,-1,10
 903 398 903 398 913 456 c 2,11,-1
 1017 1087 l 1,12,-1
 1192 1087 l 1,13,-1
 1012 0 l 1,14,-1
 791 0 l 1,15,-1
 489 633 l 2,16,17
 446 725 446 725 413.5 804 c 128,-1,18
 381 883 381 883 352 964 c 1,19,-1
 383 964 l 1,20,21
 376 914 376 914 368 860.5 c 128,-1,22
 360 807 360 807 351.5 750 c 128,-1,23
 343 693 343 693 332 633 c 2,24,-1
 228 0 l 1,25,-1
 53 0 l 1,0,-1
EndSplineSet
EndChar

StartChar: o
Encoding: 111 111 761
Width: 1176
GlyphClass: 2
Flags: W
AnchorPoint: "Anchor-4" 1088 539 basechar 0
AnchorPoint: "Anchor-1" 678 1087 basechar 0
AnchorPoint: "Anchor-0" 498 0 basechar 0
LayerCount: 2
Fore
SplineSet
505 -24 m 0,0,1
 372 -24 372 -24 277 32 c 128,-1,2
 182 88 182 88 130.5 189 c 128,-1,3
 79 290 79 290 79 425 c 0,4,5
 79 554 79 554 120 676 c 128,-1,6
 161 798 161 798 238.5 895 c 128,-1,7
 316 992 316 992 425.5 1049 c 128,-1,8
 535 1106 535 1106 670 1106 c 0,9,10
 803 1106 803 1106 898.5 1050 c 128,-1,11
 994 994 994 994 1045.5 892.5 c 128,-1,12
 1097 791 1097 791 1097 655 c 0,13,14
 1097 524 1097 524 1055.5 402.5 c 128,-1,15
 1014 281 1014 281 936 184.5 c 128,-1,16
 858 88 858 88 749 32 c 128,-1,17
 640 -24 640 -24 505 -24 c 0,0,1
509 134 m 0,18,19
 610 134 610 134 687 180 c 128,-1,20
 764 226 764 226 816.5 302.5 c 128,-1,21
 869 379 869 379 895.5 471.5 c 128,-1,22
 922 564 922 564 922 655 c 0,23,24
 922 742 922 742 894 808 c 128,-1,25
 866 874 866 874 809 911.5 c 128,-1,26
 752 949 752 949 665 949 c 0,27,28
 566 949 566 949 489.5 903 c 128,-1,29
 413 857 413 857 360.5 780.5 c 128,-1,30
 308 704 308 704 281 611 c 128,-1,31
 254 518 254 518 254 424 c 0,32,33
 254 295 254 295 316.5 214.5 c 128,-1,34
 379 134 379 134 509 134 c 0,18,19
EndSplineSet
Substitution2: "Single Substitution lookup 44 subtable" ordmasculine
Substitution2: "'sups' Superscript in Latin lookup 39 subtable" o.sups
Substitution2: "'subs' Subscript in Latin lookup 38 subtable" o.subs
Substitution2: "'sinf' Scientific Inferiors in Latin lookup 18 subtable" o.subs
AlternateSubs2: "'aalt' Access All Alternates in Latin lookup 1 subtable" ordmasculine o.sups o.subs
EndChar

StartChar: ohorn
Encoding: 417 417 765
Width: 1173
GlyphClass: 2
Flags: W
AnchorPoint: "Anchor-4" 1088 539 basechar 0
AnchorPoint: "Anchor-1" 678 1087 basechar 0
AnchorPoint: "Anchor-0" 498 0 basechar 0
LayerCount: 2
Fore
SplineSet
658 979 m 1,0,-1
 679 1106 l 1,1,2
 726 1105 726 1105 761.5 1102.5 c 128,-1,3
 797 1100 797 1100 833 1097.5 c 128,-1,4
 869 1095 869 1095 914 1093 c 128,-1,5
 959 1091 959 1091 1023 1091 c 0,6,7
 1041 1091 1041 1091 1044 1109 c 2,8,-1
 1078 1311 l 1,9,-1
 1238 1311 l 1,10,-1
 1208 1137 l 2,11,12
 1199 1080 1199 1080 1174 1043.5 c 128,-1,13
 1149 1007 1149 1007 1108.5 989 c 128,-1,14
 1068 971 1068 971 1011 971 c 0,15,16
 924 971 924 971 835 975 c 128,-1,17
 746 979 746 979 658 979 c 1,0,-1
505 -24 m 0,18,19
 372 -24 372 -24 277 32 c 128,-1,20
 182 88 182 88 130.5 189 c 128,-1,21
 79 290 79 290 79 425 c 0,22,23
 79 554 79 554 120 676 c 128,-1,24
 161 798 161 798 238.5 895 c 128,-1,25
 316 992 316 992 425.5 1049 c 128,-1,26
 535 1106 535 1106 670 1106 c 0,27,28
 803 1106 803 1106 898.5 1050 c 128,-1,29
 994 994 994 994 1045.5 892.5 c 128,-1,30
 1097 791 1097 791 1097 655 c 0,31,32
 1097 524 1097 524 1055.5 402.5 c 128,-1,33
 1014 281 1014 281 936 184.5 c 128,-1,34
 858 88 858 88 749 32 c 128,-1,35
 640 -24 640 -24 505 -24 c 0,18,19
509 134 m 0,36,37
 610 134 610 134 687 180 c 128,-1,38
 764 226 764 226 816.5 302.5 c 128,-1,39
 869 379 869 379 895.5 471.5 c 128,-1,40
 922 564 922 564 922 655 c 0,41,42
 922 742 922 742 894 808 c 128,-1,43
 866 874 866 874 809 911.5 c 128,-1,44
 752 949 752 949 665 949 c 0,45,46
 566 949 566 949 489.5 903 c 128,-1,47
 413 857 413 857 360.5 780.5 c 128,-1,48
 308 704 308 704 281 611 c 128,-1,49
 254 518 254 518 254 424 c 0,50,51
 254 295 254 295 316.5 214.5 c 128,-1,52
 379 134 379 134 509 134 c 0,36,37
EndSplineSet
EndChar

StartChar: uni1EE1
Encoding: 7905 7905 795
Width: 1173
GlyphClass: 2
Flags: W
AnchorPoint: "Anchor-4" 1088 539 basechar 0
AnchorPoint: "Anchor-1" 746 1498 basechar 0
AnchorPoint: "Anchor-0" 498 0 basechar 0
LayerCount: 2
Fore
SplineSet
505 -24 m 0,0,1
 372 -24 372 -24 277 32 c 128,-1,2
 182 88 182 88 130.5 189 c 128,-1,3
 79 290 79 290 79 425 c 0,4,5
 79 554 79 554 120 676 c 128,-1,6
 161 798 161 798 238.5 895 c 128,-1,7
 316 992 316 992 425.5 1049 c 128,-1,8
 535 1106 535 1106 670 1106 c 0,9,10
 803 1106 803 1106 898.5 1050 c 128,-1,11
 994 994 994 994 1045.5 892.5 c 128,-1,12
 1097 791 1097 791 1097 655 c 0,13,14
 1097 524 1097 524 1055.5 402.5 c 128,-1,15
 1014 281 1014 281 936 184.5 c 128,-1,16
 858 88 858 88 749 32 c 128,-1,17
 640 -24 640 -24 505 -24 c 0,0,1
509 134 m 0,18,19
 610 134 610 134 687 180 c 128,-1,20
 764 226 764 226 816.5 302.5 c 128,-1,21
 869 379 869 379 895.5 471.5 c 128,-1,22
 922 564 922 564 922 655 c 0,23,24
 922 742 922 742 894 808 c 128,-1,25
 866 874 866 874 809 911.5 c 128,-1,26
 752 949 752 949 665 949 c 0,27,28
 566 949 566 949 489.5 903 c 128,-1,29
 413 857 413 857 360.5 780.5 c 128,-1,30
 308 704 308 704 281 611 c 128,-1,31
 254 518 254 518 254 424 c 0,32,33
 254 295 254 295 316.5 214.5 c 128,-1,34
 379 134 379 134 509 134 c 0,18,19
658 979 m 1,35,-1
 679 1106 l 1,36,37
 726 1105 726 1105 761.5 1102.5 c 128,-1,38
 797 1100 797 1100 833 1097.5 c 128,-1,39
 869 1095 869 1095 914 1093 c 128,-1,40
 959 1091 959 1091 1023 1091 c 0,41,42
 1041 1091 1041 1091 1044 1109 c 2,43,-1
 1078 1311 l 1,44,-1
 1238 1311 l 1,45,-1
 1208 1137 l 2,46,47
 1199 1080 1199 1080 1174 1043.5 c 128,-1,48
 1149 1007 1149 1007 1108.5 989 c 128,-1,49
 1068 971 1068 971 1011 971 c 0,50,51
 924 971 924 971 835 975 c 128,-1,52
 746 979 746 979 658 979 c 1,35,-1
842 1286 m 0,53,54
 805 1286 805 1286 772 1298.5 c 128,-1,55
 739 1311 739 1311 710 1327.5 c 128,-1,56
 681 1344 681 1344 656.5 1356 c 128,-1,57
 632 1368 632 1368 614 1368 c 0,58,59
 587 1368 587 1368 570.5 1343 c 128,-1,60
 554 1318 554 1318 548 1290 c 1,61,-1
 423 1290 l 1,62,63
 441 1380 441 1380 490 1438 c 128,-1,64
 539 1496 539 1496 618 1496 c 0,65,66
 656 1496 656 1496 687 1483 c 128,-1,67
 718 1470 718 1470 744.5 1453.5 c 128,-1,68
 771 1437 771 1437 795 1424 c 128,-1,69
 819 1411 819 1411 844 1411 c 0,70,71
 870 1411 870 1411 885.5 1430.5 c 128,-1,72
 901 1450 901 1450 913 1492 c 1,73,-1
 1034 1492 l 1,74,75
 1015 1397 1015 1397 964.5 1341.5 c 128,-1,76
 914 1286 914 1286 842 1286 c 0,53,54
EndSplineSet
Ligature2: "'ccmp' Glyph Composition/Decomposition in Latin lookup 6 subtable" ohorn tildecomb
EndChar

StartChar: obar
Encoding: 629 629 808
Width: 1176
GlyphClass: 2
Flags: W
AnchorPoint: "Anchor-4" 1088 539 basechar 0
AnchorPoint: "Anchor-1" 678 1087 basechar 0
AnchorPoint: "Anchor-0" 498 0 basechar 0
LayerCount: 2
Fore
SplineSet
990 617 m 1,0,-1
 965 470 l 1,1,-1
 185 470 l 1,2,-1
 210 617 l 1,3,-1
 990 617 l 1,0,-1
505 -24 m 0,4,5
 372 -24 372 -24 277 32 c 128,-1,6
 182 88 182 88 130.5 189 c 128,-1,7
 79 290 79 290 79 425 c 0,8,9
 79 554 79 554 120 676 c 128,-1,10
 161 798 161 798 238.5 895 c 128,-1,11
 316 992 316 992 425.5 1049 c 128,-1,12
 535 1106 535 1106 670 1106 c 0,13,14
 803 1106 803 1106 898.5 1050 c 128,-1,15
 994 994 994 994 1045.5 892.5 c 128,-1,16
 1097 791 1097 791 1097 655 c 0,17,18
 1097 524 1097 524 1055.5 402.5 c 128,-1,19
 1014 281 1014 281 936 184.5 c 128,-1,20
 858 88 858 88 749 32 c 128,-1,21
 640 -24 640 -24 505 -24 c 0,4,5
509 134 m 0,22,23
 610 134 610 134 687 180 c 128,-1,24
 764 226 764 226 816.5 302.5 c 128,-1,25
 869 379 869 379 895.5 471.5 c 128,-1,26
 922 564 922 564 922 655 c 0,27,28
 922 742 922 742 894 808 c 128,-1,29
 866 874 866 874 809 911.5 c 128,-1,30
 752 949 752 949 665 949 c 0,31,32
 566 949 566 949 489.5 903 c 128,-1,33
 413 857 413 857 360.5 780.5 c 128,-1,34
 308 704 308 704 281 611 c 128,-1,35
 254 518 254 518 254 424 c 0,36,37
 254 295 254 295 316.5 214.5 c 128,-1,38
 379 134 379 134 509 134 c 0,22,23
EndSplineSet
EndChar

StartChar: oe.sc
Encoding: 60954 60954 812
Width: 1489
GlyphClass: 2
Flags: W
AnchorPoint: "Anchor-4" 1342 0 basechar 0
AnchorPoint: "Anchor-3" 986 0 basechar 0
AnchorPoint: "Anchor-1" 1163 1087 basechar 0
AnchorPoint: "Anchor-0" 983 0 basechar 0
LayerCount: 2
Fore
SplineSet
623 0 m 1,0,-1
 803 1087 l 1,1,-1
 1520 1087 l 1,2,-1
 1495 937 l 1,3,-1
 953 937 l 1,4,-1
 902 625 l 1,5,-1
 1404 625 l 1,6,-1
 1379 477 l 1,7,-1
 876 477 l 1,8,-1
 822 150 l 1,9,-1
 1366 150 l 1,10,-1
 1342 0 l 1,11,-1
 623 0 l 1,0,-1
504 0 m 2,12,13
 350 0 350 0 247 66 c 128,-1,14
 144 132 144 132 102 254 c 128,-1,15
 60 376 60 376 88 545 c 0,16,17
 115 710 115 710 196.5 831.5 c 128,-1,18
 278 953 278 953 401 1019.5 c 128,-1,19
 524 1086 524 1086 679 1087 c 2,20,-1
 882 1087 l 1,21,-1
 858 939 l 1,22,-1
 659 939 l 2,23,24
 555 939 555 939 472 893 c 128,-1,25
 389 847 389 847 334 759 c 128,-1,26
 279 671 279 671 257 544 c 0,27,28
 237 419 237 419 262 330.5 c 128,-1,29
 287 242 287 242 356 195 c 128,-1,30
 425 148 425 148 534 148 c 2,31,-1
 725 148 l 1,32,-1
 699 0 l 1,33,-1
 504 0 l 2,12,13
EndSplineSet
EndChar

StartChar: p
Encoding: 112 112 814
Width: 1206
GlyphClass: 2
Flags: W
AnchorPoint: "Anchor-1" 745 1087 basechar 0
AnchorPoint: "Anchor-0" 69 -417 basechar 0
LayerCount: 2
Fore
SplineSet
-17 -418 m 1,0,-1
 232 1087 l 1,1,-1
 402 1087 l 1,2,-1
 375 921 l 1,3,-1
 380 921 l 1,4,5
 413 969 413 969 463 1010.5 c 128,-1,6
 513 1052 513 1052 580.5 1078 c 128,-1,7
 648 1104 648 1104 734 1104 c 0,8,9
 856 1104 856 1104 944 1050.5 c 128,-1,10
 1032 997 1032 997 1080 899 c 128,-1,11
 1128 801 1128 801 1128 666 c 0,12,13
 1128 540 1128 540 1090 417 c 128,-1,14
 1052 294 1052 294 980 195 c 128,-1,15
 908 96 908 96 804.5 37 c 128,-1,16
 701 -22 701 -22 570 -22 c 0,17,18
 480 -22 480 -22 420 7.5 c 128,-1,19
 360 37 360 37 322.5 81.5 c 128,-1,20
 285 126 285 126 265 173 c 1,21,-1
 256 173 l 1,22,-1
 158 -418 l 1,23,-1
 -17 -418 l 1,0,-1
547 135 m 0,24,25
 645 135 645 135 720.5 181.5 c 128,-1,26
 796 228 796 228 848 305 c 128,-1,27
 900 382 900 382 926 475.5 c 128,-1,28
 952 569 952 569 952 663 c 0,29,30
 952 796 952 796 888.5 872 c 128,-1,31
 825 948 825 948 704 948 c 0,32,33
 605 948 605 948 529 902 c 128,-1,34
 453 856 453 856 401.5 779.5 c 128,-1,35
 350 703 350 703 324 610 c 128,-1,36
 298 517 298 517 298 424 c 0,37,38
 298 291 298 291 362 213 c 128,-1,39
 426 135 426 135 547 135 c 0,24,25
EndSplineSet
Substitution2: "'sups' Superscript in Latin lookup 39 subtable" p.sups
Substitution2: "'subs' Subscript in Latin lookup 38 subtable" p.subs
Substitution2: "'sinf' Scientific Inferiors in Latin lookup 18 subtable" p.subs
AlternateSubs2: "'aalt' Access All Alternates in Latin lookup 1 subtable" p.sups p.subs
EndChar

StartChar: uni048F
Encoding: 1167 1167 815
Width: 1216
GlyphClass: 2
Flags: W
AnchorPoint: "Anchor-1" 745 1087 basechar 0
AnchorPoint: "Anchor-0" 69 -417 basechar 0
LayerCount: 2
Fore
SplineSet
758 395 m 1,0,-1
 1034 19 l 1,1,-1
 899 -91 l 1,2,-1
 624 285 l 1,3,-1
 758 395 l 1,0,-1
-17 -418 m 1,4,-1
 232 1087 l 1,5,-1
 402 1087 l 1,6,-1
 375 921 l 1,7,-1
 380 921 l 1,8,9
 413 969 413 969 463 1010.5 c 128,-1,10
 513 1052 513 1052 580.5 1078 c 128,-1,11
 648 1104 648 1104 734 1104 c 0,12,13
 856 1104 856 1104 944 1050.5 c 128,-1,14
 1032 997 1032 997 1080 899 c 128,-1,15
 1128 801 1128 801 1128 666 c 0,16,17
 1128 540 1128 540 1090 417 c 128,-1,18
 1052 294 1052 294 980 195 c 128,-1,19
 908 96 908 96 804.5 37 c 128,-1,20
 701 -22 701 -22 570 -22 c 0,21,22
 480 -22 480 -22 420 7.5 c 128,-1,23
 360 37 360 37 322.5 81.5 c 128,-1,24
 285 126 285 126 265 173 c 1,25,-1
 256 173 l 1,26,-1
 158 -418 l 1,27,-1
 -17 -418 l 1,4,-1
547 135 m 0,28,29
 645 135 645 135 720.5 181.5 c 128,-1,30
 796 228 796 228 848 305 c 128,-1,31
 900 382 900 382 926 475.5 c 128,-1,32
 952 569 952 569 952 663 c 0,33,34
 952 796 952 796 888.5 872 c 128,-1,35
 825 948 825 948 704 948 c 0,36,37
 605 948 605 948 529 902 c 128,-1,38
 453 856 453 856 401.5 779.5 c 128,-1,39
 350 703 350 703 324 610 c 128,-1,40
 298 517 298 517 298 424 c 0,41,42
 298 291 298 291 362 213 c 128,-1,43
 426 135 426 135 547 135 c 0,28,29
EndSplineSet
EndChar

StartChar: uni01A5
Encoding: 421 421 816
Width: 1206
GlyphClass: 2
Flags: W
AnchorPoint: "Anchor-1" 745 1087 basechar 0
AnchorPoint: "Anchor-0" 69 -417 basechar 0
LayerCount: 2
Fore
SplineSet
199 888 m 1,0,-1
 232 1087 l 1,1,-1
 258 1246 l 2,2,3
 278 1367 278 1367 364 1432 c 128,-1,4
 450 1497 450 1497 592 1497 c 0,5,6
 626 1497 626 1497 651 1496 c 128,-1,7
 676 1495 676 1495 694 1493 c 1,8,-1
 669 1344 l 1,9,10
 653 1345 653 1345 628 1345.5 c 128,-1,11
 603 1346 603 1346 589 1346 c 0,12,13
 517 1346 517 1346 479.5 1322.5 c 128,-1,14
 442 1299 442 1299 434 1246 c 2,15,-1
 407 1087 l 1,16,-1
 374 888 l 1,17,-1
 199 888 l 1,0,-1
-17 -418 m 1,18,-1
 232 1087 l 1,19,-1
 402 1087 l 1,20,-1
 375 921 l 1,21,-1
 380 921 l 1,22,23
 413 969 413 969 463 1010.5 c 128,-1,24
 513 1052 513 1052 580.5 1078 c 128,-1,25
 648 1104 648 1104 734 1104 c 0,26,27
 856 1104 856 1104 944 1050.5 c 128,-1,28
 1032 997 1032 997 1080 899 c 128,-1,29
 1128 801 1128 801 1128 666 c 0,30,31
 1128 540 1128 540 1090 417 c 128,-1,32
 1052 294 1052 294 980 195 c 128,-1,33
 908 96 908 96 804.5 37 c 128,-1,34
 701 -22 701 -22 570 -22 c 0,35,36
 480 -22 480 -22 420 7.5 c 128,-1,37
 360 37 360 37 322.5 81.5 c 128,-1,38
 285 126 285 126 265 173 c 1,39,-1
 256 173 l 1,40,-1
 158 -418 l 1,41,-1
 -17 -418 l 1,18,-1
547 135 m 0,42,43
 645 135 645 135 720.5 181.5 c 128,-1,44
 796 228 796 228 848 305 c 128,-1,45
 900 382 900 382 926 475.5 c 128,-1,46
 952 569 952 569 952 663 c 0,47,48
 952 796 952 796 888.5 872 c 128,-1,49
 825 948 825 948 704 948 c 0,50,51
 605 948 605 948 529 902 c 128,-1,52
 453 856 453 856 401.5 779.5 c 128,-1,53
 350 703 350 703 324 610 c 128,-1,54
 298 517 298 517 298 424 c 0,55,56
 298 291 298 291 362 213 c 128,-1,57
 426 135 426 135 547 135 c 0,42,43
EndSplineSet
EndChar

StartChar: q
Encoding: 113 113 820
Width: 1206
GlyphClass: 2
Flags: W
AnchorPoint: "Anchor-1" 694 1087 basechar 0
AnchorPoint: "Anchor-0" 818 -417 basechar 0
LayerCount: 2
Fore
SplineSet
905 -418 m 1,0,-1
 729 -418 l 1,1,-1
 826 163 l 1,2,-1
 817 163 l 1,3,4
 781 114 781 114 732.5 72 c 128,-1,5
 684 30 684 30 619.5 4 c 128,-1,6
 555 -22 555 -22 471 -22 c 0,7,8
 349 -22 349 -22 261 32 c 128,-1,9
 173 86 173 86 125.5 184.5 c 128,-1,10
 78 283 78 283 78 417 c 0,11,12
 78 545 78 545 116 667.5 c 128,-1,13
 154 790 154 790 226.5 888.5 c 128,-1,14
 299 987 299 987 402.5 1045.5 c 128,-1,15
 506 1104 506 1104 636 1104 c 0,16,17
 727 1104 727 1104 788.5 1075.5 c 128,-1,18
 850 1047 850 1047 889 1002.5 c 128,-1,19
 928 958 928 958 949 912 c 1,20,-1
 955 912 l 1,21,-1
 984 1087 l 1,22,-1
 1154 1087 l 1,23,-1
 905 -418 l 1,0,-1
502 135 m 0,24,25
 600 135 600 135 675.5 181 c 128,-1,26
 751 227 751 227 803 304 c 128,-1,27
 855 381 855 381 882 474.5 c 128,-1,28
 909 568 909 568 909 662 c 0,29,30
 909 794 909 794 845 871 c 128,-1,31
 781 948 781 948 658 948 c 0,32,33
 560 948 560 948 485 902 c 128,-1,34
 410 856 410 856 358.5 780 c 128,-1,35
 307 704 307 704 280.5 611 c 128,-1,36
 254 518 254 518 254 423 c 0,37,38
 254 289 254 289 318 212 c 128,-1,39
 382 135 382 135 502 135 c 0,24,25
EndSplineSet
Substitution2: "'sups' Superscript in Latin lookup 39 subtable" q.sups
Substitution2: "'subs' Subscript in Latin lookup 38 subtable" q.subs
Substitution2: "'sinf' Scientific Inferiors in Latin lookup 18 subtable" q.subs
AlternateSubs2: "'aalt' Access All Alternates in Latin lookup 1 subtable" q.sups q.subs
EndChar

StartChar: uni02A0
Encoding: 672 672 821
Width: 1206
GlyphClass: 2
Flags: W
AnchorPoint: "Anchor-1" 694 1087 basechar 0
AnchorPoint: "Anchor-0" 818 -417 basechar 0
LayerCount: 2
Fore
SplineSet
946 888 m 1,0,-1
 979 1087 l 1,1,-1
 1005 1246 l 2,2,3
 1025 1367 1025 1367 1111 1432 c 128,-1,4
 1197 1497 1197 1497 1339 1497 c 0,5,6
 1373 1497 1373 1497 1398 1496 c 128,-1,7
 1423 1495 1423 1495 1441 1493 c 1,8,-1
 1416 1344 l 1,9,10
 1400 1345 1400 1345 1375 1345.5 c 128,-1,11
 1350 1346 1350 1346 1336 1346 c 0,12,13
 1264 1346 1264 1346 1226.5 1322.5 c 128,-1,14
 1189 1299 1189 1299 1181 1246 c 2,15,-1
 1154 1087 l 1,16,-1
 1121 888 l 1,17,-1
 946 888 l 1,0,-1
905 -418 m 1,18,-1
 729 -418 l 1,19,-1
 826 163 l 1,20,-1
 817 163 l 1,21,22
 781 114 781 114 732.5 72 c 128,-1,23
 684 30 684 30 619.5 4 c 128,-1,24
 555 -22 555 -22 471 -22 c 0,25,26
 349 -22 349 -22 261 32 c 128,-1,27
 173 86 173 86 125.5 184.5 c 128,-1,28
 78 283 78 283 78 417 c 0,29,30
 78 545 78 545 116 667.5 c 128,-1,31
 154 790 154 790 226.5 888.5 c 128,-1,32
 299 987 299 987 402.5 1045.5 c 128,-1,33
 506 1104 506 1104 636 1104 c 0,34,35
 727 1104 727 1104 788.5 1075.5 c 128,-1,36
 850 1047 850 1047 889 1002.5 c 128,-1,37
 928 958 928 958 949 912 c 1,38,-1
 955 912 l 1,39,-1
 984 1087 l 1,40,-1
 1154 1087 l 1,41,-1
 905 -418 l 1,18,-1
502 135 m 0,42,43
 600 135 600 135 675.5 181 c 128,-1,44
 751 227 751 227 803 304 c 128,-1,45
 855 381 855 381 882 474.5 c 128,-1,46
 909 568 909 568 909 662 c 0,47,48
 909 794 909 794 845 871 c 128,-1,49
 781 948 781 948 658 948 c 0,50,51
 560 948 560 948 485 902 c 128,-1,52
 410 856 410 856 358.5 780 c 128,-1,53
 307 704 307 704 280.5 611 c 128,-1,54
 254 518 254 518 254 423 c 0,55,56
 254 289 254 289 318 212 c 128,-1,57
 382 135 382 135 502 135 c 0,42,43
EndSplineSet
EndChar

StartChar: qrthook
Encoding: 587 587 822
Width: 1208
GlyphClass: 2
Flags: W
AnchorPoint: "Anchor-4" 975 0 basechar 0
AnchorPoint: "Anchor-1" 686 1087 basechar 0
AnchorPoint: "Anchor-0" 500 0 basechar 0
LayerCount: 2
Fore
SplineSet
1017 -422 m 0,0,1
 878 -422 878 -422 816 -358 c 128,-1,2
 754 -294 754 -294 774 -170 c 2,3,-1
 833 185 l 1,4,-1
 1006 185 l 1,5,-1
 947 -170 l 2,6,7
 938 -224 938 -224 965.5 -247.5 c 128,-1,8
 993 -271 993 -271 1065 -271 c 0,9,10
 1079 -271 1079 -271 1104 -270.5 c 128,-1,11
 1129 -270 1129 -270 1145 -269 c 1,12,-1
 1121 -418 l 1,13,14
 1102 -420 1102 -420 1076.5 -421 c 128,-1,15
 1051 -422 1051 -422 1017 -422 c 0,0,1
460 -22 m 0,16,17
 322 -22 322 -22 228.5 48.5 c 128,-1,18
 135 119 135 119 97.5 246 c 128,-1,19
 60 373 60 373 88 543 c 256,20,21
 116 713 116 713 196 839 c 128,-1,22
 276 965 276 965 393 1034.5 c 128,-1,23
 510 1104 510 1104 648 1104 c 0,24,25
 736 1104 736 1104 795.5 1076.5 c 128,-1,26
 855 1049 855 1049 891 1007 c 128,-1,27
 927 965 927 965 946 920 c 1,28,-1
 954 920 l 1,29,-1
 982 1087 l 1,30,-1
 1155 1087 l 1,31,-1
 975 0 l 1,32,-1
 805 0 l 1,33,-1
 832 167 l 1,34,-1
 820 167 l 1,35,36
 784 120 784 120 733.5 76.5 c 128,-1,37
 683 33 683 33 615.5 5.5 c 128,-1,38
 548 -22 548 -22 460 -22 c 0,16,17
514 135 m 0,39,40
 614 135 614 135 693 186.5 c 128,-1,41
 772 238 772 238 825 330 c 128,-1,42
 878 422 878 422 898 544 c 256,43,44
 918 666 918 666 895.5 756.5 c 128,-1,45
 873 847 873 847 810.5 897.5 c 128,-1,46
 748 948 748 948 648 948 c 0,47,48
 549 948 549 948 470 897.5 c 128,-1,49
 391 847 391 847 338.5 756.5 c 128,-1,50
 286 666 286 666 265 544 c 0,51,52
 245 421 245 421 268 329 c 128,-1,53
 291 237 291 237 353.5 186 c 128,-1,54
 416 135 416 135 514 135 c 0,39,40
EndSplineSet
EndChar

StartChar: r
Encoding: 114 114 823
Width: 716
GlyphClass: 2
Flags: W
AnchorPoint: "Anchor-1" 488 1087 basechar 0
AnchorPoint: "Anchor-0" 139 0 basechar 0
LayerCount: 2
Fore
SplineSet
53 0 m 1,0,-1
 233 1087 l 1,1,-1
 401 1087 l 1,2,-1
 373 918 l 1,3,-1
 381 918 l 1,4,5
 424 1002 424 1002 504 1052.5 c 128,-1,6
 584 1103 584 1103 683 1103 c 0,7,8
 705 1103 705 1103 728 1101.5 c 128,-1,9
 751 1100 751 1100 764 1099 c 1,10,-1
 735 923 l 1,11,12
 724 926 724 926 695 930 c 128,-1,13
 666 934 666 934 631 934 c 0,14,15
 562 934 562 934 500 904 c 128,-1,16
 438 874 438 874 396 816 c 128,-1,17
 354 758 354 758 340 675 c 2,18,-1
 228 0 l 1,19,-1
 53 0 l 1,0,-1
EndSplineSet
Substitution2: "'smcp' Lowercase to Small Capitals in Latin lookup 68 subtable" r.sc
Substitution2: "'c2sc' Capitals to Small Capitals in Latin lookup 67 subtable" r.sc
Substitution2: "'sups' Superscript in Latin lookup 39 subtable" r.sups
Substitution2: "'subs' Subscript in Latin lookup 38 subtable" r.subs
Substitution2: "'sinf' Scientific Inferiors in Latin lookup 18 subtable" r.subs
AlternateSubs2: "'aalt' Access All Alternates in Latin lookup 1 subtable" r.sc r.sups r.subs
EndChar

StartChar: rrthook
Encoding: 57437 57437 824
Width: 716
GlyphClass: 2
Flags: W
AnchorPoint: "Anchor-1" 488 1087 basechar 0
AnchorPoint: "Anchor-0" 139 0 basechar 0
LayerCount: 2
Fore
SplineSet
269 -422 m 0,0,1
 131 -422 131 -422 67.5 -358.5 c 128,-1,2
 4 -295 4 -295 24 -170 c 2,3,-1
 52 0 l 1,4,-1
 228 0 l 1,5,-1
 199 -170 l 2,6,7
 190 -223 190 -223 217 -247 c 128,-1,8
 244 -271 244 -271 317 -271 c 0,9,10
 331 -271 331 -271 356 -270.5 c 128,-1,11
 381 -270 381 -270 397 -269 c 1,12,-1
 373 -418 l 1,13,14
 354 -420 354 -420 328.5 -421 c 128,-1,15
 303 -422 303 -422 269 -422 c 0,0,1
53 0 m 1,16,-1
 233 1087 l 1,17,-1
 401 1087 l 1,18,-1
 373 918 l 1,19,-1
 381 918 l 1,20,21
 424 1002 424 1002 504 1052.5 c 128,-1,22
 584 1103 584 1103 683 1103 c 0,23,24
 705 1103 705 1103 728 1101.5 c 128,-1,25
 751 1100 751 1100 764 1099 c 1,26,-1
 735 923 l 1,27,28
 724 926 724 926 695 930 c 128,-1,29
 666 934 666 934 631 934 c 0,30,31
 562 934 562 934 500 904 c 128,-1,32
 438 874 438 874 396 816 c 128,-1,33
 354 758 354 758 340 675 c 2,34,-1
 228 0 l 1,35,-1
 53 0 l 1,16,-1
EndSplineSet
EndChar

StartChar: rturn
Encoding: 633 633 826
Width: 716
GlyphClass: 2
Flags: W
AnchorPoint: "Anchor-1" 574 1087 basechar 0
AnchorPoint: "Anchor-0" 290 0 basechar 0
LayerCount: 2
Fore
SplineSet
664 1087 m 1,0,-1
 484 0 l 1,1,-1
 316 0 l 1,2,-1
 344 169 l 1,3,-1
 336 169 l 1,4,5
 292 86 292 86 212.5 35 c 128,-1,6
 133 -16 133 -16 33 -16 c 0,7,8
 12 -16 12 -16 -11 -14 c 128,-1,9
 -34 -12 -34 -12 -47 -11 c 1,10,-1
 -18 164 l 1,11,12
 -7 162 -7 162 22 157.5 c 128,-1,13
 51 153 51 153 86 153 c 0,14,15
 156 153 156 153 217 183.5 c 128,-1,16
 278 214 278 214 321 272 c 128,-1,17
 364 330 364 330 377 412 c 2,18,-1
 489 1087 l 1,19,-1
 664 1087 l 1,0,-1
EndSplineSet
EndChar

StartChar: rturnrthook
Encoding: 635 635 827
Width: 716
GlyphClass: 2
Flags: W
AnchorPoint: "Anchor-1" 574 1087 basechar 0
AnchorPoint: "Anchor-0" 290 0 basechar 0
LayerCount: 2
Fore
SplineSet
521 -422 m 0,0,1
 383 -422 383 -422 323 -358.5 c 128,-1,2
 263 -295 263 -295 283 -170 c 2,3,-1
 311 0 l 1,4,-1
 479 0 l 1,5,-1
 451 -170 l 2,6,7
 443 -222 443 -222 468.5 -246.5 c 128,-1,8
 494 -271 494 -271 569 -271 c 0,9,10
 583 -271 583 -271 608 -270.5 c 128,-1,11
 633 -270 633 -270 649 -269 c 1,12,-1
 624 -418 l 1,13,14
 612 -419 612 -419 596.5 -420 c 128,-1,15
 581 -421 581 -421 562.5 -421.5 c 128,-1,16
 544 -422 544 -422 521 -422 c 0,0,1
664 1087 m 1,17,-1
 484 0 l 1,18,-1
 316 0 l 1,19,-1
 344 169 l 1,20,-1
 336 169 l 1,21,22
 292 86 292 86 212.5 35 c 128,-1,23
 133 -16 133 -16 33 -16 c 0,24,25
 12 -16 12 -16 -11 -14 c 128,-1,26
 -34 -12 -34 -12 -47 -11 c 1,27,-1
 -18 164 l 1,28,29
 -7 162 -7 162 22 157.5 c 128,-1,30
 51 153 51 153 86 153 c 0,31,32
 156 153 156 153 217 183.5 c 128,-1,33
 278 214 278 214 321 272 c 128,-1,34
 364 330 364 330 377 412 c 2,35,-1
 489 1087 l 1,36,-1
 664 1087 l 1,17,-1
EndSplineSet
EndChar

StartChar: rfishhookrev
Encoding: 639 639 828
Width: 684
Flags: W
LayerCount: 2
Fore
SplineSet
276 0 m 1,0,-1
 395 718 l 2,1,2
 410 807 410 807 387.5 853 c 128,-1,3
 365 899 365 899 318.5 915.5 c 128,-1,4
 272 932 272 932 214 932 c 0,5,6
 177 932 177 932 151 931 c 128,-1,7
 125 930 125 930 108 928 c 1,8,-1
 136 1093 l 1,9,10
 144 1094 144 1094 159.5 1095.5 c 128,-1,11
 175 1097 175 1097 199.5 1098 c 128,-1,12
 224 1099 224 1099 255 1099 c 0,13,14
 322 1099 322 1099 386 1080 c 128,-1,15
 450 1061 450 1061 498 1018 c 128,-1,16
 546 975 546 975 567 901.5 c 128,-1,17
 588 828 588 828 570 719 c 2,18,-1
 451 0 l 1,19,-1
 276 0 l 1,0,-1
EndSplineSet
EndChar

StartChar: uni027E
Encoding: 638 638 829
Width: 683
Flags: W
LayerCount: 2
Fore
SplineSet
52 0 m 1,0,-1
 171 719 l 2,1,2
 195 864 195 864 265.5 947 c 128,-1,3
 336 1030 336 1030 428.5 1064.5 c 128,-1,4
 521 1099 521 1099 612 1099 c 0,5,6
 643 1099 643 1099 667 1098 c 128,-1,7
 691 1097 691 1097 706.5 1095.5 c 128,-1,8
 722 1094 722 1094 729 1093 c 1,9,-1
 702 928 l 1,10,11
 686 930 686 930 661 931 c 128,-1,12
 636 932 636 932 599 932 c 0,13,14
 540 932 540 932 488 915 c 128,-1,15
 436 898 436 898 398.5 852 c 128,-1,16
 361 806 361 806 346 718 c 2,17,-1
 227 0 l 1,18,-1
 52 0 l 1,0,-1
EndSplineSet
EndChar

StartChar: rdescend
Encoding: 57438 57438 830
Width: 717
GlyphClass: 2
Flags: W
AnchorPoint: "Anchor-1" 489 1087 basechar 0
AnchorPoint: "Anchor-0" 140 0 basechar 0
LayerCount: 2
Fore
SplineSet
-17 -418 m 1,0,-1
 53 0 l 1,1,-1
 224 0 l 1,2,-1
 154 -418 l 1,3,-1
 -17 -418 l 1,0,-1
54 0 m 1,4,-1
 234 1087 l 1,5,-1
 402 1087 l 1,6,-1
 374 918 l 1,7,-1
 382 918 l 1,8,9
 425 1002 425 1002 505 1052.5 c 128,-1,10
 585 1103 585 1103 684 1103 c 0,11,12
 706 1103 706 1103 729 1101.5 c 128,-1,13
 752 1100 752 1100 765 1099 c 1,14,-1
 736 923 l 1,15,16
 725 926 725 926 696 930 c 128,-1,17
 667 934 667 934 632 934 c 0,18,19
 563 934 563 934 501 904 c 128,-1,20
 439 874 439 874 397 816 c 128,-1,21
 355 758 355 758 341 675 c 2,22,-1
 229 0 l 1,23,-1
 54 0 l 1,4,-1
EndSplineSet
EndChar

StartChar: r.sc
Encoding: 60955 60955 840
Width: 1002
GlyphClass: 2
Flags: W
AnchorPoint: "Anchor-1" 601 1087 basechar 0
AnchorPoint: "Anchor-0" 437 0 basechar 0
LayerCount: 2
Fore
SplineSet
53 0 m 1,0,-1
 233 1087 l 1,1,-1
 638 1087 l 2,2,3
 759 1087 759 1087 837.5 1045 c 128,-1,4
 916 1003 916 1003 949 926 c 128,-1,5
 982 849 982 849 964 744 c 0,6,7
 947 641 947 641 888 565 c 128,-1,8
 829 489 829 489 735.5 447.5 c 128,-1,9
 642 406 642 406 520 406 c 2,10,-1
 221 406 l 1,11,-1
 245 554 l 1,12,-1
 536 554 l 2,13,14
 642 554 642 554 708.5 604 c 128,-1,15
 775 654 775 654 790 747 c 0,16,17
 805 838 805 838 757 888 c 128,-1,18
 709 938 709 938 600 938 c 2,19,-1
 383 938 l 1,20,-1
 227 0 l 1,21,-1
 53 0 l 1,0,-1
681 0 m 1,22,-1
 502 491 l 1,23,-1
 686 491 l 1,24,-1
 870 0 l 1,25,-1
 681 0 l 1,22,-1
EndSplineSet
EndChar

StartChar: rinv.sc
Encoding: 60956 60956 841
Width: 1110
Flags: W
LayerCount: 2
Fore
SplineSet
53 0 m 1,0,-1
 233 1087 l 1,1,-1
 407 1087 l 1,2,-1
 253 154 l 1,3,-1
 520 154 l 2,4,5
 658 154 658 154 727 202 c 128,-1,6
 796 250 796 250 812 344 c 0,7,8
 828 437 828 437 773.5 484.5 c 128,-1,9
 719 532 719 532 580 532 c 2,10,-1
 240 532 l 1,11,-1
 264 679 l 1,12,-1
 618 679 l 2,13,14
 827 679 827 679 919.5 589.5 c 128,-1,15
 1012 500 1012 500 986 344 c 0,16,17
 969 238 969 238 908.5 161 c 128,-1,18
 848 84 848 84 748 42 c 128,-1,19
 648 0 648 0 509 0 c 2,20,-1
 53 0 l 1,0,-1
570 596 m 1,21,-1
 957 1087 l 1,22,-1
 1158 1087 l 1,23,-1
 765 596 l 1,24,-1
 570 596 l 1,21,-1
EndSplineSet
EndChar

StartChar: s
Encoding: 115 115 842
Width: 1027
GlyphClass: 2
Flags: W
AnchorPoint: "Anchor-3" 427 0 basechar 0
AnchorPoint: "Anchor-1" 605 1087 basechar 0
AnchorPoint: "Anchor-0" 425 0 basechar 0
LayerCount: 2
Fore
SplineSet
432 -24 m 0,0,1
 322 -24 322 -24 238 8.5 c 128,-1,2
 154 41 154 41 105 104.5 c 128,-1,3
 56 168 56 168 51 262 c 0,4,5
 51 271 51 271 51 279.5 c 128,-1,6
 51 288 51 288 51 297 c 1,7,-1
 222 311 l 1,8,9
 223 218 223 218 277.5 173 c 128,-1,10
 332 128 332 128 433 128 c 0,11,12
 510 128 510 128 573.5 152.5 c 128,-1,13
 637 177 637 177 677 219.5 c 128,-1,14
 717 262 717 262 721 316 c 0,15,16
 725 366 725 366 691 397.5 c 128,-1,17
 657 429 657 429 587 446 c 2,18,-1
 416 488 l 2,19,20
 280 521 280 521 215.5 593 c 128,-1,21
 151 665 151 665 161 775 c 0,22,23
 169 874 169 874 230.5 949 c 128,-1,24
 292 1024 292 1024 389.5 1065 c 128,-1,25
 487 1106 487 1106 602 1106 c 0,26,27
 760 1106 760 1106 850.5 1035 c 128,-1,28
 941 964 941 964 955 845 c 0,29,30
 956 834 956 834 957 822.5 c 128,-1,31
 958 811 958 811 957 799 c 1,32,-1
 792 784 l 1,33,34
 792 859 792 859 744.5 908 c 128,-1,35
 697 957 697 957 599 957 c 0,36,37
 528 957 528 957 469.5 932 c 128,-1,38
 411 907 411 907 375.5 865 c 128,-1,39
 340 823 340 823 336 772 c 0,40,41
 331 720 331 720 367 689 c 128,-1,42
 403 658 403 658 483 638 c 2,43,-1
 646 598 l 2,44,45
 783 565 783 565 846 494.5 c 128,-1,46
 909 424 909 424 899 318 c 0,47,48
 893 240 893 240 854.5 177 c 128,-1,49
 816 114 816 114 752 69 c 128,-1,50
 688 24 688 24 606.5 0 c 128,-1,51
 525 -24 525 -24 432 -24 c 0,0,1
EndSplineSet
Substitution2: "'sups' Superscript in Latin lookup 39 subtable" s.sups
Substitution2: "'subs' Subscript in Latin lookup 38 subtable" s.subs
Substitution2: "'sinf' Scientific Inferiors in Latin lookup 18 subtable" s.subs
AlternateSubs2: "'aalt' Access All Alternates in Latin lookup 1 subtable" s.sups s.subs
EndChar

